<svg xmlns:xlink="http://www.w3.org/1999/xlink" xmlns="http://www.w3.org/2000/svg" width="628" height="521" viewBox="0 0 628 521" fill="none">
<path d="M316.565 16L316.564 46.571M316.565 16L316.566 46.571M316.565 16L343.036 31.2863M316.565 16L290.094 31.2864M104.793 260.575L316.561 138.284M104.793 260.575L104.794 230.004M104.793 260.575L104.792 291.146M316.569 138.284L316.57 168.855M316.569 138.284L528.336 260.575M316.569 138.284L316.568 107.713M316.561 138.284L316.562 107.713M316.561 138.284L316.56 168.855M104.795 199.433L104.796 168.862M104.795 199.433L104.794 230.004M104.795 199.433L316.567 77.142M316.564 46.571L316.563 77.142L316.562 107.713M316.564 46.571L528.333 168.862M104.796 168.862L104.797 138.291L131.268 123.005M104.796 168.862L316.566 46.571M104.794 230.004L316.562 107.713M316.567 77.142L316.566 46.571M316.567 77.142L316.568 107.713M316.567 77.142L528.334 199.433M104.791 321.717L104.79 352.288M104.791 321.717L104.792 291.146M104.791 321.717L316.559 199.426M104.79 352.288L104.789 382.859L131.26 367.573M104.79 352.288L316.558 229.997M104.792 291.146L316.57 168.855M316.572 229.997L316.573 260.568L343.043 275.854M316.572 229.997L316.571 199.426L316.57 168.855M316.572 229.997L528.339 352.288M316.559 199.426L316.558 229.997M316.559 199.426L528.338 321.717M316.559 199.426L316.56 168.855M316.558 229.997L316.557 260.568L210.673 321.714M528.336 260.575L528.335 230.004M528.336 260.575L528.337 291.146M528.334 199.433L528.333 168.862M528.334 199.433L528.335 230.004M528.333 168.862L528.332 138.291L501.861 123.004M528.335 230.004L316.568 107.713M528.338 321.717L528.337 291.146M528.338 321.717L528.339 352.288M528.337 291.146L316.56 168.855M528.339 352.288L528.34 382.859L501.869 367.572M422.448 77.1454L448.919 92.4317M422.448 77.1454L395.977 61.859M422.448 77.1454L422.456 321.713M475.39 107.718L448.919 92.4317M475.39 107.718L501.861 123.004M475.39 107.718L475.398 352.286M448.919 92.4317L448.927 337M501.861 123.004L501.869 367.572M369.507 46.5727L395.977 61.859M369.507 46.5727L343.036 31.2863M369.507 46.5727L369.514 291.141M395.977 61.859L395.985 306.427M343.036 31.2863L343.043 275.854M210.681 77.1455L237.152 61.8591M210.681 77.1455L184.21 92.4318M210.681 77.1455L210.677 321.694M263.623 46.5727L290.094 31.2864M263.623 46.5727L237.152 61.8591M263.623 46.5727L263.621 291.125M290.094 31.2864L290.093 275.84M237.152 61.8591L237.149 306.41M157.739 107.718L131.268 123.005M157.739 107.718L184.21 92.4318M157.739 107.718L157.733 352.264M131.268 123.005L131.262 367.548M184.21 92.4318L184.205 336.979M210.677 321.694L184.205 336.979M210.677 321.694L237.149 306.41M157.733 352.264L131.262 367.548M157.733 352.264L184.205 336.979M131.262 367.548L104.79 382.833L131.262 398.118M184.205 336.979L395.98 459.256M263.621 291.125L237.149 306.41M263.621 291.125L290.093 275.84M263.621 291.125L475.396 413.402M237.149 306.41L448.924 428.687M290.093 275.84L316.565 260.556L343.037 275.84M290.093 275.84L501.868 398.118M422.456 321.713L395.985 306.427M422.456 321.713L448.927 337M369.514 291.141L395.985 306.427M369.514 291.141L343.043 275.854M395.985 306.427L184.205 428.687M475.398 352.286L448.927 337M475.398 352.286L501.869 367.572M475.398 352.286L263.621 474.541M448.927 337L237.149 459.256M501.869 367.572L290.093 489.825M210.677 443.971L184.205 428.687M210.677 443.971L237.149 459.256M210.677 443.971L422.452 321.694M157.733 413.402L131.262 398.118M157.733 413.402L184.205 428.687M157.733 413.402L369.508 291.125M131.262 398.118L343.037 275.84M263.621 474.541L237.149 459.256M263.621 474.541L290.093 489.825M290.093 489.825L316.565 505.11L343.037 489.825M422.452 443.971L395.98 459.256M422.452 443.971L448.924 428.687M422.452 443.971L210.673 321.714M369.508 474.541L343.037 489.825M369.508 474.541L395.98 459.256M369.508 474.541L157.731 352.286M343.037 489.825L131.26 367.573M475.396 413.402L501.868 398.118M475.396 413.402L448.924 428.687M501.868 398.118L528.34 382.833L422.452 321.694M210.673 321.714L157.731 352.286M157.731 352.286L131.26 367.573M422.452 321.694L369.508 291.125M369.508 291.125L343.037 275.84" stroke="#BBBBBB" stroke-width="0.5" stroke-linejoin="round"/>
<path d="M316.565 16L104.797 138.291M316.565 16V260.556M316.565 16L528.332 138.291L528.34 382.859M528.34 382.859L316.565 260.556M528.34 382.859L316.565 505.11L104.79 382.833M104.797 138.291L104.789 382.859L104.79 382.833M104.797 138.291L104.79 382.833M316.565 260.556L104.79 382.833" stroke="#696969" stroke-linejoin="round"/>
<path d="M89.2103 249.058C89.0669 248.635 88.9951 248.124 88.9951 247.526C88.9951 246.496 89.1904 245.5 89.5808 244.538C89.9792 243.572 90.5171 242.705 91.1944 241.936C91.8717 241.177 92.6207 240.561 93.4415 240.087C94.2622 239.613 95.0112 239.364 95.6885 239.341C96.3658 239.327 96.8997 239.576 97.2902 240.086C97.6886 240.592 97.8878 241.361 97.8878 242.391C97.8878 243.422 97.6886 244.42 97.2902 245.386C96.8997 246.348 96.3658 247.208 95.6885 247.967C95.0112 248.736 94.2622 249.357 93.4415 249.831C92.6606 250.282 91.9474 250.528 91.302 250.569C90.6565 250.611 90.1386 250.422 89.7482 250.004L88.1704 252.184L88.1704 250.501L89.2103 249.058ZM92.043 246.843L90.9314 248.382C91.2024 248.603 91.553 248.681 91.9833 248.616C92.4215 248.557 92.9076 248.373 93.4415 248.064C94.0311 247.724 94.561 247.307 95.0312 246.815C95.5013 246.323 95.8718 245.764 96.1427 245.138C96.4216 244.508 96.5611 243.848 96.5611 243.157C96.5611 242.467 96.4216 241.968 96.1427 241.66C95.8718 241.356 95.5013 241.225 95.0312 241.267C94.561 241.317 94.0311 241.513 93.4415 241.853C92.8678 242.185 92.3498 242.589 91.8876 243.068C91.4255 243.556 91.055 244.101 90.7761 244.704C90.4972 245.316 90.3458 245.96 90.3219 246.636C90.3219 246.94 90.3458 247.206 90.3936 247.436L92.043 245.159L92.043 246.843ZM89.1386 260.465L89.1386 258.933L90.0111 258.429C89.7003 258.342 89.4533 258.158 89.2701 257.877C89.0868 257.606 88.9951 257.226 88.9951 256.739C88.9951 256.177 89.0947 255.646 89.294 255.144C89.5011 254.648 89.784 254.199 90.1426 253.799C90.5091 253.403 90.9275 253.069 91.3976 252.798L95.3539 250.513L95.3539 252.087L91.553 254.282C91.1386 254.521 90.8079 254.831 90.5609 255.213C90.3219 255.591 90.2023 256.023 90.2023 256.511C90.2023 256.759 90.2502 256.989 90.3458 257.201C90.4494 257.408 90.6287 257.534 90.8836 257.58C91.1386 257.626 91.4852 257.523 91.9235 257.27L95.3539 255.289L95.3539 256.876L89.1386 260.465ZM88.9951 264.871C88.9951 264.071 89.1585 263.342 89.4852 262.684C89.8119 262.026 90.2701 261.527 90.8597 261.186C91.2263 260.974 91.5331 260.894 91.7801 260.944C92.0351 261 92.2422 261.179 92.4016 261.483C92.5689 261.782 92.6964 262.214 92.7841 262.78L93.1188 264.712L93.5132 264.485C93.816 264.31 94.0391 264.07 94.1825 263.767C94.3339 263.459 94.4096 263.07 94.4096 262.601C94.4096 262.15 94.326 261.825 94.1586 261.628C93.9993 261.425 93.7443 261.416 93.3937 261.6L93.3937 260.027C94.0949 259.64 94.6208 259.635 94.9714 260.013C95.322 260.399 95.4973 261.048 95.4973 261.959C95.4973 262.934 95.3339 263.76 95.0072 264.436C94.6885 265.117 94.2383 265.625 93.6566 265.961L89.1386 268.57L89.1386 267.066L89.8677 266.645C89.5569 266.53 89.3338 266.323 89.1983 266.024C89.0629 265.725 88.9951 265.341 88.9951 264.871ZM90.047 264.568C90.047 264.899 90.0988 265.177 90.2023 265.403C90.3139 265.633 90.4812 265.775 90.7044 265.83C90.9354 265.881 91.2223 265.807 91.5649 265.61L92.1506 265.271L91.8279 263.622C91.7402 263.194 91.6327 262.907 91.5052 262.759C91.3856 262.617 91.1864 262.626 90.9075 262.787C90.6366 262.944 90.4255 263.171 90.2741 263.47C90.1227 263.779 90.047 264.144 90.047 264.568ZM97.7444 265.508L97.7444 267.096L90.8358 271.085C90.6207 271.209 90.4653 271.354 90.3697 271.52C90.2741 271.685 90.2263 271.892 90.2263 272.141L90.2263 273.093L89.1386 273.721L89.1386 272.396C89.1386 271.955 89.1864 271.568 89.282 271.237C89.3776 270.915 89.537 270.616 89.7601 270.34C89.9912 270.059 90.298 269.808 90.6804 269.587L97.7444 265.508ZM95.3539 271.808L95.3539 273.395L89.1386 276.984L89.1386 275.397L95.3539 271.808ZM97.7444 270.427L97.7444 272.015L96.3937 272.794L96.3937 271.207L97.7444 270.427ZM89.1386 281.685C89.1386 281.253 89.1864 280.871 89.282 280.54C89.3776 280.208 89.537 279.905 89.7601 279.629C89.9912 279.357 90.298 279.111 90.6804 278.89L94.2662 276.82L94.2662 275.536L95.3539 274.908L95.3539 276.192L97.2663 275.087L97.2663 276.675L95.3539 277.779L95.3539 279.628L94.2662 280.256L94.2662 278.407L90.8358 280.388C90.6207 280.512 90.4653 280.652 90.3697 280.809C90.2741 280.974 90.2263 281.186 90.2263 281.444L90.2263 282.589L89.1386 283.217L89.1386 281.685ZM87.8955 285.243L87.8955 286.375C87.8955 286.587 87.9154 286.741 87.9553 286.837C87.9951 286.943 88.0589 287.008 88.1465 287.031C88.2342 287.054 88.3577 287.056 88.517 287.038L89.0908 286.968L95.3539 280.619L95.3539 282.344L90.5848 286.948L95.3539 286.016L95.3539 287.727L88.3497 288.763C87.9911 288.813 87.7043 288.818 87.4891 288.777C87.266 288.74 87.0867 288.627 86.9513 288.439C86.8158 288.25 86.7481 287.949 86.7481 287.535L86.7481 285.906L87.8955 285.243Z" fill="#696969"/>
<path d="M179.825 450.143C178.932 449.628 178.362 449.074 178.115 448.48C177.876 447.882 177.932 447.293 178.283 446.714C178.641 446.139 179.231 445.614 180.052 445.14C180.872 444.666 181.781 444.326 182.777 444.119C183.781 443.917 184.797 443.887 185.825 444.029C186.861 444.167 187.825 444.494 188.718 445.009C189.395 445.4 189.861 445.826 190.116 446.286C190.387 446.746 190.451 447.206 190.307 447.666C190.164 448.126 189.841 448.556 189.339 448.956L187.845 448.094C188.124 447.85 188.299 447.592 188.371 447.321C188.443 447.049 188.391 446.78 188.216 446.514C188.056 446.247 187.781 446.001 187.391 445.775C186.793 445.43 186.152 445.221 185.466 445.147C184.797 445.074 184.128 445.115 183.458 445.271C182.797 445.432 182.171 445.683 181.582 446.024C180.992 446.364 180.558 446.725 180.279 447.107C180.008 447.493 179.932 447.882 180.052 448.273C180.187 448.664 180.554 449.032 181.151 449.377C181.574 449.621 182.028 449.787 182.514 449.874C183.016 449.962 183.518 449.975 184.02 449.916C184.53 449.851 185.016 449.722 185.478 449.529L186.961 450.385C186.243 450.707 185.466 450.921 184.63 451.027C183.801 451.137 182.968 451.121 182.132 450.978C181.303 450.831 180.534 450.553 179.825 450.143ZM187.993 454.859C187.355 454.491 186.937 454.088 186.738 453.651C186.546 453.219 186.574 452.789 186.821 452.361C187.068 451.933 187.503 451.54 188.124 451.181C188.746 450.822 189.427 450.571 190.168 450.429C190.909 450.286 191.654 450.27 192.404 450.38C193.161 450.495 193.858 450.737 194.495 451.105C195.133 451.473 195.547 451.873 195.738 452.306C195.93 452.738 195.902 453.168 195.655 453.596C195.408 454.024 194.973 454.417 194.352 454.776C193.73 455.135 193.049 455.386 192.308 455.528C191.567 455.671 190.822 455.687 190.073 455.576C189.324 455.466 188.63 455.227 187.993 454.859ZM189.164 454.183C189.539 454.399 189.937 454.532 190.36 454.583C190.79 454.629 191.22 454.597 191.65 454.486C192.089 454.38 192.519 454.206 192.941 453.962C193.364 453.718 193.667 453.469 193.85 453.216C194.041 452.968 194.093 452.722 194.005 452.478C193.926 452.23 193.698 451.997 193.324 451.781C192.941 451.56 192.535 451.427 192.105 451.381C191.69 451.335 191.264 451.365 190.826 451.471C190.387 451.576 189.957 451.751 189.535 451.995C189.112 452.239 188.81 452.487 188.626 452.74C188.443 452.993 188.387 453.242 188.459 453.486C188.547 453.729 188.782 453.962 189.164 454.183ZM195.008 458.909C194.172 458.426 193.681 457.941 193.538 457.453C193.411 456.965 193.697 456.491 194.399 456.031L195.749 456.811C195.383 457.078 195.227 457.333 195.283 457.577C195.355 457.821 195.618 458.074 196.072 458.336C196.463 458.562 196.841 458.702 197.208 458.757C197.582 458.808 197.893 458.762 198.14 458.619C198.307 458.522 198.403 458.426 198.427 458.329C198.459 458.228 198.407 458.092 198.271 457.922C198.144 457.756 197.901 457.529 197.542 457.239C197.024 456.811 196.67 456.445 196.478 456.142C196.295 455.834 196.247 455.567 196.335 455.341C196.439 455.116 196.67 454.9 197.028 454.693C197.594 454.366 198.267 454.239 199.048 454.313C199.845 454.387 200.618 454.64 201.367 455.072C202.22 455.564 202.69 456.052 202.778 456.535C202.873 457.014 202.599 457.448 201.953 457.839L200.65 457.087C201.033 456.848 201.18 456.611 201.092 456.376C201.005 456.142 200.754 455.905 200.339 455.666C200.013 455.477 199.674 455.36 199.323 455.314C198.973 455.268 198.678 455.314 198.439 455.452C198.271 455.548 198.176 455.649 198.152 455.755C198.144 455.861 198.212 455.997 198.355 456.162C198.507 456.333 198.758 456.56 199.108 456.846C199.626 457.264 199.977 457.623 200.16 457.922C200.343 458.221 200.383 458.483 200.28 458.709C200.192 458.934 199.965 459.153 199.598 459.364C199.001 459.709 198.287 459.836 197.459 459.744C196.63 459.652 195.813 459.374 195.008 458.909ZM201.511 462.497C201.137 462.281 200.878 462.076 200.734 461.883C200.591 461.69 200.567 461.492 200.662 461.29C200.774 461.087 201.021 460.876 201.403 460.655L204.989 458.585L203.878 457.943L204.966 457.315L206.077 457.957L207.99 456.853L209.364 457.646L207.452 458.75L209.053 459.675L207.966 460.303L206.364 459.378L202.933 461.359C202.718 461.483 202.607 461.598 202.599 461.704C202.599 461.814 202.71 461.934 202.933 462.063L203.926 462.635L202.838 463.263L201.511 462.497Z" fill="#696969"/>
<circle cx="138.199" cy="359.816" r="5.17577" transform="rotate(6.68479 138.199 359.816)" fill="#468BFF"/>
<circle cx="166.615" cy="323.832" r="5.17577" transform="rotate(6.68479 166.615 323.832)" fill="#9D70FF"/>
<circle cx="150.441" cy="284.955" r="5.17577" transform="rotate(6.68479 150.441 284.955)" fill="#9D70FF"/>
<circle cx="173.148" cy="238.499" r="5.17577" transform="rotate(6.68479 173.148 238.499)" fill="#ABABAB"/>
<circle cx="185.341" cy="193.66" r="5.17577" transform="rotate(6.68479 185.341 193.66)" fill="#9D70FF"/>
<circle cx="201.885" cy="152.583" r="5.17577" transform="rotate(6.68479 201.885 152.583)" fill="#468BFF"/>
<circle cx="234.586" cy="132.907" r="5.17577" transform="rotate(6.68479 234.586 132.907)" fill="#9D70FF"/>
<circle cx="286.848" cy="128.904" r="5.17577" transform="rotate(6.68479 286.848 128.904)" fill="#9D70FF"/>
<circle cx="240.287" cy="188.361" r="5.17577" transform="rotate(6.68479 240.287 188.361)" fill="#468BFF"/>
<circle cx="226.803" cy="228.905" r="5.17577" transform="rotate(6.68479 226.803 228.905)" fill="#9D70FF"/>
<circle cx="212.945" cy="258.356" r="5.17577" transform="rotate(6.68479 212.945 258.356)" fill="#468BFF"/>
<circle cx="262.045" cy="267.579" r="5.17577" transform="rotate(6.68479 262.045 267.579)" fill="#9D70FF"/>
<circle cx="265.083" cy="227.911" r="5.17577" transform="rotate(6.68479 265.083 227.911)" fill="#9D70FF"/>
<circle cx="278.893" cy="183.031" r="5.17577" transform="rotate(6.68479 278.893 183.031)" fill="#9D70FF"/>
<circle cx="326.116" cy="172.913" r="5.17577" transform="rotate(6.68479 326.116 172.913)" fill="#ABABAB"/>
<circle cx="361.032" cy="173.536" r="5.17577" transform="rotate(6.68479 361.032 173.536)" fill="#9D70FF"/>
<circle cx="397.728" cy="158.967" r="5.17577" transform="rotate(6.68479 397.728 158.967)" fill="#9D70FF"/>
<circle cx="373.228" cy="210.88" r="5.17577" transform="rotate(6.68479 373.228 210.88)" fill="#9D70FF"/>
<circle cx="338.207" cy="203.307" r="5.17577" transform="rotate(6.68479 338.207 203.307)" fill="#9D70FF"/>
<circle cx="299.055" cy="223.117" r="5.17577" transform="rotate(6.68479 299.055 223.117)" fill="#9D70FF"/>
<circle cx="306.603" cy="262.395" r="5.17577" transform="rotate(6.68479 306.603 262.395)" fill="#9D70FF"/>
<circle cx="256.788" cy="298.681" r="5.17577" transform="rotate(6.68479 256.788 298.681)" fill="#ABABAB"/>
<circle cx="201.377" cy="297.863" r="5.17577" transform="rotate(6.68479 201.377 297.863)" fill="#9D70FF"/>
<circle cx="229.359" cy="324.247" r="5.17577" transform="rotate(6.68479 229.359 324.247)" fill="#9D70FF"/>
<circle cx="204.953" cy="356.145" r="5.17577" transform="rotate(6.68479 204.953 356.145)" fill="#9D70FF"/>
<circle cx="255.885" cy="365.583" r="5.17577" transform="rotate(6.68479 255.885 365.583)" fill="#468BFF"/>
<circle cx="282.781" cy="332.367" r="5.17577" transform="rotate(6.68479 282.781 332.367)" fill="#468BFF"/>
<circle cx="308.162" cy="296.502" r="5.17577" transform="rotate(6.68479 308.162 296.502)" fill="#9D70FF"/>
<circle cx="345.566" cy="246.293" r="5.17577" transform="rotate(6.68479 345.566 246.293)" fill="#9D70FF"/>
<circle cx="389.123" cy="261.987" r="5.17577" transform="rotate(6.68479 389.123 261.987)" fill="#468BFF"/>
<circle cx="396.058" cy="232.414" r="5.17577" transform="rotate(6.68479 396.058 232.414)" fill="#9D70FF"/>
<circle cx="412.721" cy="202.185" r="5.17577" transform="rotate(6.68479 412.721 202.185)" fill="#9D70FF"/>
<circle cx="435.078" cy="180.346" r="5.17577" transform="rotate(6.68479 435.078 180.346)" fill="#468BFF"/>
<circle cx="466.253" cy="214.845" r="5.17577" transform="rotate(6.68479 466.253 214.845)" fill="#9D70FF"/>
<circle cx="485.513" cy="148.72" r="5.17577" transform="rotate(6.68479 485.513 148.72)" fill="#9D70FF"/>
<circle cx="438.455" cy="251.7" r="5.17577" transform="rotate(6.68479 438.455 251.7)" fill="#9D70FF"/>
<circle cx="418.824" cy="289.424" r="5.17577" transform="rotate(6.68479 418.824 289.424)" fill="#ABABAB"/>
<circle cx="469.144" cy="288.383" r="5.17577" transform="rotate(6.68479 469.144 288.383)" fill="#9D70FF"/>
<circle cx="357.337" cy="282.217" r="5.17577" transform="rotate(6.68479 357.337 282.217)" fill="#9D70FF"/>
<circle cx="346.424" cy="316.125" r="5.17577" transform="rotate(6.68479 346.424 316.125)" fill="#9D70FF"/>
<circle cx="323.622" cy="345.703" r="5.17577" transform="rotate(6.68479 323.622 345.703)" fill="#ABABAB"/>
<circle cx="384.423" cy="349.36" r="5.17577" transform="rotate(6.68479 384.423 349.36)" fill="#9D70FF"/>
<circle cx="383.634" cy="308.817" r="5.17577" transform="rotate(6.68479 383.634 308.817)" fill="#9D70FF"/>
<circle cx="433.327" cy="325.049" r="5.17577" transform="rotate(6.68479 433.327 325.049)" fill="#9D70FF"/>
<circle cx="459.786" cy="356.581" r="5.17577" transform="rotate(6.68479 459.786 356.581)" fill="#9D70FF"/>
<circle cx="426.536" cy="373.17" r="5.17577" transform="rotate(6.68479 426.536 373.17)" fill="#9D70FF"/>
<circle cx="357.575" cy="374.033" r="5.17577" transform="rotate(6.68479 357.575 374.033)" fill="#9D70FF"/>
<circle cx="305.115" cy="381.696" r="5.17577" transform="rotate(6.68479 305.115 381.696)" fill="#9D70FF"/>
<circle cx="283.416" cy="415.753" r="5.17577" transform="rotate(6.68479 283.416 415.753)" fill="#9D70FF"/>
<circle cx="347.298" cy="414.723" r="5.17577" transform="rotate(6.68479 347.298 414.723)" fill="#468BFF"/>
<circle cx="393.129" cy="398.95" r="5.17577" transform="rotate(6.68479 393.129 398.95)" fill="#9D70FF"/>
<circle cx="230.102" cy="399.408" r="5.17577" transform="rotate(6.68479 230.102 399.408)" fill="#ABABAB"/>
<circle cx="183.983" cy="387.065" r="5.17577" transform="rotate(6.68479 183.983 387.065)" fill="#9D70FF"/>
<circle cx="368.065" cy="131.485" r="7.73789" transform="rotate(6.68479 368.065 131.485)" fill="url(#paint0_radial_4023_9039)"/>
<path d="M404.41 95.3623L377.385 122.387" stroke="#12E7CD" stroke-width="1.72526" stroke-linecap="round"/>
<rect x="405.093" y="42.7417" width="138.758" height="52.1536" rx="3.45051" fill="#D3FFF7"/>
<rect x="405.093" y="42.7417" width="138.758" height="52.1536" rx="3.45051" stroke="#12E7CD" stroke-width="1.72526" stroke-linecap="round" stroke-linejoin="round" stroke-dasharray="3.45 5.18"/>
<path d="M437.235 75.0254C433.798 75.0254 431.893 72.1684 431.893 67.5723C431.893 62.9762 433.798 60.1192 437.235 60.1192C440.672 60.1192 442.576 62.9762 442.576 67.5723C442.576 72.1684 440.672 75.0254 437.235 75.0254ZM437.193 73.1621H437.276C439.409 73.1621 440.506 71.0504 440.506 67.5723C440.506 64.0942 439.409 61.9825 437.276 61.9825H437.193C435.061 61.9825 433.964 64.0942 433.964 67.5723C433.964 71.0504 435.061 73.1621 437.193 73.1621ZM447.206 74.8184H445.135V60.3262H450.27C452.92 60.3262 454.804 61.8996 454.804 64.736C454.804 67.5723 452.858 69.125 450.249 69.125H447.206V74.8184ZM447.206 62.1895V67.2617H449.959C451.719 67.2617 452.733 66.3715 452.733 64.736C452.733 63.1004 451.76 62.1895 449.959 62.1895H447.206ZM463.097 74.8184H461.027V62.1895H456.907V60.3262H467.217V62.1895H463.097V74.8184ZM478.492 60.3262V62.0446H475.511V73.1H478.492V74.8184H470.46V73.1H473.441V62.0446H470.46V60.3262H478.492ZM486.89 68.711L489.354 60.3262H491.879V74.8184H489.954V63.825L487.884 70.8641H485.896L483.826 63.825V74.8184H481.921V60.3262H484.426L486.89 68.711ZM505.1 74.8184H502.968L501.85 71.0918H496.716L495.598 74.8184H493.527L498.041 60.3262H500.649L505.1 74.8184ZM499.283 62.4793L497.275 69.2285H501.312L499.283 62.4793ZM516.852 74.8184H507.018V60.3262H509.088V72.9551H516.852V74.8184Z" fill="black"/>
<path d="M422.29 464.131C421.58 464.54 420.843 464.837 420.078 465.021C419.305 465.2 418.54 465.251 417.783 465.173C417.026 465.085 416.305 464.853 415.62 464.476L417.078 463.634C417.755 463.997 418.433 464.144 419.11 464.075C419.787 463.997 420.449 463.772 421.094 463.399C421.652 463.077 421.987 462.755 422.098 462.433C422.21 462.102 422.058 461.816 421.644 461.577C421.405 461.439 421.15 461.361 420.879 461.343C420.608 461.324 420.25 461.37 419.803 461.481C419.357 461.591 418.767 461.789 418.034 462.074C417.19 462.405 416.444 462.638 415.799 462.771C415.146 462.9 414.54 462.932 413.982 462.868C413.416 462.799 412.874 462.615 412.356 462.316C411.894 462.049 411.619 461.738 411.532 461.384C411.436 461.025 411.524 460.653 411.795 460.266C412.074 459.875 412.516 459.505 413.121 459.155C414.253 458.502 415.365 458.159 416.456 458.127C417.556 458.09 418.556 458.318 419.457 458.81L418.022 459.638C417.441 459.339 416.851 459.206 416.253 459.238C415.656 459.27 415.022 459.479 414.353 459.866C413.867 460.147 413.576 460.429 413.48 460.715C413.376 460.995 413.496 461.235 413.839 461.432C414.086 461.575 414.341 461.662 414.604 461.695C414.859 461.722 415.197 461.688 415.62 461.591C416.042 461.485 416.608 461.297 417.317 461.025C418.297 460.634 419.134 460.372 419.827 460.239C420.52 460.105 421.122 460.08 421.632 460.163C422.142 460.236 422.628 460.406 423.09 460.673C423.632 460.986 423.955 461.338 424.059 461.729C424.162 462.111 424.059 462.511 423.748 462.93C423.445 463.344 422.959 463.744 422.29 464.131ZM423.05 456.487C423.209 456.193 423.516 455.915 423.97 455.652C424.56 455.312 425.205 455.1 425.907 455.018C426.608 454.935 427.313 454.974 428.022 455.135C428.731 455.287 429.401 455.544 430.03 455.908C430.66 456.271 431.11 456.66 431.381 457.074C431.652 457.479 431.716 457.884 431.572 458.288C431.429 458.693 431.062 459.066 430.473 459.406C430.042 459.655 429.58 459.83 429.086 459.931C428.592 460.023 428.086 460.043 427.568 459.993L430.76 461.835L429.385 462.629L420.779 457.66L422.105 456.894L422.978 457.398C422.874 457.081 422.898 456.777 423.05 456.487ZM426.038 456.115C425.616 456.156 425.217 456.285 424.843 456.501C424.468 456.717 424.245 456.947 424.173 457.191C424.094 457.43 424.145 457.677 424.329 457.93C424.512 458.183 424.815 458.431 425.237 458.675C425.66 458.919 426.09 459.093 426.528 459.199C426.966 459.305 427.397 459.337 427.819 459.296C428.233 459.25 428.628 459.119 429.002 458.903C429.377 458.686 429.604 458.459 429.684 458.219C429.763 457.971 429.712 457.72 429.528 457.467C429.345 457.214 429.042 456.966 428.62 456.722C428.198 456.478 427.767 456.303 427.329 456.198C426.891 456.092 426.46 456.064 426.038 456.115ZM437.579 455.304C436.966 455.658 436.288 455.888 435.547 455.994C434.806 456.099 434.065 456.081 433.324 455.938C432.591 455.791 431.913 455.538 431.292 455.179C430.67 454.821 430.232 454.43 429.977 454.006C429.73 453.578 429.698 453.151 429.881 452.723C430.065 452.295 430.463 451.904 431.077 451.55C431.69 451.195 432.364 450.968 433.097 450.866C433.838 450.761 434.579 450.784 435.32 450.936C436.069 451.083 436.778 451.35 437.448 451.736L437.806 451.943L433.145 454.634C433.527 454.809 433.91 454.929 434.292 454.993C434.683 455.053 435.065 455.057 435.44 455.007C435.814 454.956 436.157 454.841 436.468 454.662C436.842 454.446 437.077 454.218 437.173 453.979C437.269 453.73 437.237 453.482 437.077 453.233L438.44 452.447C438.87 452.925 439.014 453.417 438.87 453.923C438.727 454.43 438.296 454.89 437.579 455.304ZM435.356 452.157C434.798 451.927 434.24 451.812 433.683 451.812C433.133 451.807 432.635 451.934 432.188 452.191C431.742 452.449 431.519 452.739 431.519 453.061C431.519 453.383 431.718 453.705 432.117 454.027L435.356 452.157ZM444.909 451.072C444.296 451.426 443.619 451.656 442.877 451.762C442.136 451.868 441.395 451.849 440.654 451.707C439.921 451.559 439.244 451.306 438.622 450.948C438.001 450.589 437.562 450.198 437.307 449.775C437.06 449.347 437.028 448.919 437.212 448.491C437.395 448.063 437.793 447.672 438.407 447.318C439.021 446.964 439.694 446.736 440.427 446.635C441.168 446.529 441.909 446.552 442.65 446.704C443.399 446.851 444.109 447.118 444.778 447.504L445.137 447.711L440.475 450.402C440.857 450.577 441.24 450.697 441.622 450.761C442.013 450.821 442.395 450.826 442.77 450.775C443.144 450.725 443.487 450.61 443.798 450.43C444.172 450.214 444.407 449.986 444.503 449.747C444.599 449.499 444.567 449.25 444.407 449.002L445.77 448.215C446.2 448.693 446.344 449.186 446.2 449.692C446.057 450.198 445.627 450.658 444.909 451.072ZM442.686 447.925C442.128 447.695 441.571 447.58 441.013 447.58C440.463 447.576 439.965 447.702 439.519 447.96C439.072 448.217 438.849 448.507 438.849 448.829C438.849 449.151 439.048 449.473 439.447 449.795L442.686 447.925ZM452.921 446.143C452.77 446.433 452.467 446.709 452.013 446.971C451.423 447.312 450.777 447.523 450.076 447.606C449.375 447.689 448.67 447.654 447.96 447.503C447.251 447.342 446.582 447.079 445.952 446.716C445.323 446.352 444.873 445.968 444.602 445.563C444.331 445.149 444.267 444.74 444.41 444.335C444.554 443.93 444.92 443.558 445.51 443.217C445.94 442.969 446.403 442.799 446.897 442.707C447.391 442.605 447.897 442.58 448.415 442.631L445.223 440.788L446.598 439.995L455.204 444.963L453.877 445.729L453.005 445.225C453.108 445.543 453.08 445.849 452.921 446.143ZM449.945 446.523C450.367 446.472 450.765 446.339 451.14 446.122C451.514 445.906 451.742 445.678 451.821 445.439C451.893 445.195 451.837 444.947 451.654 444.694C451.471 444.441 451.168 444.193 450.745 443.949C450.323 443.705 449.893 443.53 449.455 443.424C449.016 443.318 448.59 443.289 448.176 443.335C447.753 443.376 447.355 443.505 446.98 443.721C446.606 443.937 446.379 444.17 446.299 444.418C446.219 444.657 446.271 444.903 446.454 445.156C446.638 445.409 446.94 445.658 447.363 445.902C447.785 446.145 448.215 446.32 448.654 446.426C449.092 446.532 449.522 446.564 449.945 446.523Z" fill="#696969"/>
<defs>
<radialGradient id="paint0_radial_4023_9039" cx="0" cy="0" r="1" gradientUnits="userSpaceOnUse" gradientTransform="translate(369.888 129.286) rotate(104.17) scale(8.65405 9.03805)">
<stop stop-color="#B9FFF2"/>
<stop offset="1" stop-color="#12E7CD"/>
</radialGradient>
</defs>
</svg>