<svg xmlns:xlink="http://www.w3.org/1999/xlink" xmlns="http://www.w3.org/2000/svg" width="628" height="521" viewBox="0 0 628 521" fill="none">
<rect width="49.9952" height="49.9952" transform="matrix(0.86601 0.500028 3.18351e-05 1 128.298 89)" fill="#6E6E6E"/>
<rect width="49.9952" height="49.9952" transform="matrix(0.86601 -0.500028 -3.18351e-05 1 85.0017 113.999)" fill="#5A5A5A"/>
<rect width="49.9952" height="49.9952" transform="matrix(0.866041 0.499972 -0.866041 0.499972 128.298 138.992)" fill="#AAAAAA"/>
<rect width="49.9952" height="49.9952" transform="matrix(0.86601 0.500028 3.18351e-05 1 85 113.991)" fill="#CDB5FF" stroke="#6720FF" stroke-width="0.47"/>
<rect width="49.9952" height="49.9952" transform="matrix(0.86601 -0.500028 -3.18351e-05 1 128.298 138.99)" fill="#CDB5FF" stroke="#6720FF" stroke-width="0.47"/>
<rect width="49.9952" height="49.9952" transform="matrix(0.866041 -0.499972 0.866041 0.499972 85 113.996)" fill="#E0D1FF" stroke="#6720FF" stroke-width="0.47"/>
<path d="M163.408 141.95L155.803 155.22L155.438 155.857L155.96 155.555L166.801 149.225L167.668 151.089L156.052 157.829L156.048 157.827L155.959 157.879C155.104 158.373 154.332 158.271 153.948 157.632L153.877 157.497C153.522 156.732 153.706 155.52 154.348 154.397L162.54 140.086L163.408 141.95ZM145.542 159.475C146.184 159.854 146.369 160.857 146.012 162.03L146.012 162.031C145.659 163.198 144.839 164.292 143.931 164.816L132.222 171.545L133.088 168.686L143.93 162.497L144.453 162.198L144.085 161.982L136.481 157.491L137.35 154.624L145.542 159.475ZM145.582 143.785L149.743 152.887L149.943 153.324L150.143 152.656L154.301 138.751L156.536 137.46L152.012 152.474C151.661 153.643 150.843 154.742 149.927 155.271C149.012 155.799 148.192 155.645 147.843 154.878L143.346 145.076L145.582 143.785Z" fill="#6720FF" stroke="#5818DF" stroke-width="0.5"/>
<path d="M121.195 157.825L112.981 162.671L112.617 162.887L113.139 163.188L124.847 169.872L125.797 173.011L113.231 165.791L113.228 165.785L113.137 165.733C112.209 165.197 111.371 164.118 110.954 162.942L110.876 162.706C110.491 161.429 110.69 160.343 111.387 159.929L120.242 154.683L121.195 157.825ZM101.911 154.449L101.911 154.45C102.608 155.667 102.81 156.99 102.423 157.817L102.423 157.818C102.039 158.643 101.148 158.801 100.161 158.232L87.5027 150.89L88.4515 148.853L100.16 155.689L100.683 155.995L100.315 155.353L92.1029 141.021L93.0543 138.978L101.911 154.449ZM101.953 137.565L106.447 152.585L106.647 153.253L106.846 152.816L111.336 142.983L113.785 144.397L108.896 154.982L108.895 154.982C108.513 155.81 107.624 155.979 106.63 155.404C105.635 154.83 104.745 153.635 104.365 152.362L104.365 152.361L99.5035 136.151L101.953 137.565Z" fill="#6720FF" stroke="#5818DF" stroke-width="0.5"/>
<path d="M139.293 103.632L139.382 112.837L139.386 113.261L139.908 112.959L151.145 106.398L154.208 107.113L142.117 114.128H142.11L142.02 114.18C141.067 114.73 139.649 114.898 138.409 114.609C137.159 114.316 136.349 113.626 136.34 112.846L136.229 102.917L139.293 103.632ZM127.172 118.131C128.522 118.136 129.722 118.604 130.225 119.326L130.226 119.326C130.729 120.043 130.432 120.862 129.482 121.41L117.241 128.445L116.004 126.68L127.37 120.192L127.896 119.892L127.157 119.89L111.212 119.837L109.972 118.067L127.172 118.131ZM113.073 109.945L127.798 113.437L128.477 113.598L128.198 113.206L122.145 104.708L124.494 103.352L130.979 112.544C131.486 113.261 131.198 114.082 130.241 114.635C129.284 115.188 127.859 115.355 126.615 115.059H126.614L110.725 111.301L113.073 109.945Z" fill="#6720FF" stroke="#5818DF" stroke-width="0.5"/>
<g filter="url(#filter0_d_4023_8918)">
<path d="M397.221 122.936L268.086 197.487C264.691 199.447 262.996 202.017 263 204.586C263.004 207.148 264.7 209.71 268.086 211.665L280.367 218.754L397.221 286.215C404.002 290.13 414.998 290.13 421.779 286.215L538.633 218.754L550.914 211.665C554.22 209.756 555.914 207.269 555.997 204.768C556.084 202.139 554.389 199.493 550.914 197.487L421.779 122.936C414.998 119.021 404.002 119.021 397.221 122.936Z" fill="white"/>
<path d="M421.779 286.215C414.998 290.13 404.002 290.13 397.221 286.215L280.367 218.754L268.086 211.665C264.7 209.71 263.004 207.148 263 204.586V222.954C262.996 225.523 264.691 228.093 268.086 230.053L397.221 304.604C404.002 308.519 414.998 308.519 421.779 304.604L550.914 230.053C554.22 228.145 555.914 225.658 555.997 223.157V204.768C555.914 207.269 554.22 209.756 550.914 211.665L538.633 218.754L421.779 286.215Z" fill="#E9E9E9"/>
<path d="M555.997 204.768C556.084 202.139 554.389 199.493 550.914 197.487L421.779 122.936C414.998 119.021 404.002 119.021 397.221 122.936L268.086 197.487C264.691 199.447 262.996 202.017 263 204.586M555.997 204.768C555.914 207.269 554.22 209.756 550.914 211.665L538.633 218.754L421.779 286.215C414.998 290.13 404.002 290.13 397.221 286.215L280.367 218.754L268.086 211.665C264.7 209.71 263.004 207.148 263 204.586M555.997 204.768V223.157C555.914 225.658 554.22 228.145 550.914 230.053L421.779 304.604C414.998 308.519 404.002 308.519 397.221 304.604L268.086 230.053C264.691 228.093 262.996 225.523 263 222.954V204.586" stroke="#696969" stroke-linecap="round" stroke-linejoin="round"/>
</g>
<g filter="url(#filter1_d_4023_8918)">
<path d="M415.041 230.215C401.684 237.926 380.027 237.926 366.67 230.215C361.764 227.382 358.659 223.903 357.357 220.253C356.972 219.172 356.745 218.077 356.675 216.978C356.468 213.713 357.657 210.424 360.242 207.435C361.39 206.106 362.815 204.836 364.515 203.654C360.25 200.223 357.587 196.332 356.526 192.328C356.239 191.244 356.07 190.151 356.017 189.057C355.684 182.078 360.131 175.038 369.357 169.711C385.372 160.466 410.334 159.534 428.153 166.916C441.59 160.474 461.565 160.888 474.161 168.16C480.799 171.992 484.138 177.008 484.178 182.031C484.179 182.092 484.179 182.153 484.178 182.214C484.168 183.524 483.933 184.835 483.473 186.124C482.171 189.774 479.067 193.252 474.161 196.085C450.567 209.705 435.697 218.29 415.041 230.215Z" fill="white"/>
<path d="M366.67 238.217C380.027 245.928 401.683 245.928 415.04 238.217L474.16 204.086C480.855 200.221 484.194 195.153 484.178 190.087V182.214C484.168 183.524 483.933 184.835 483.473 186.124C482.171 189.774 479.067 193.252 474.161 196.085L415.041 230.215C401.684 237.926 380.027 237.926 366.67 230.215C361.764 227.382 358.659 223.903 357.357 220.253C356.972 219.172 356.745 218.077 356.675 216.978V224.953C356.969 229.771 360.299 234.539 366.67 238.217Z" fill="#D8D8D8"/>
<path d="M356.017 189.057L356.007 196.817C356.123 200.451 357.535 204.074 360.242 207.435C361.39 206.106 362.815 204.836 364.515 203.654C360.25 200.223 357.587 196.332 356.526 192.328C356.239 191.244 356.07 190.151 356.017 189.057Z" fill="#D8D8D8"/>
<path d="M415.04 238.217C401.683 245.928 380.027 245.928 366.67 238.217C360.299 234.539 356.969 229.771 356.675 224.953V216.978M415.04 238.217C435.696 226.292 450.567 217.707 474.16 204.086M415.04 238.217L474.16 204.086M474.16 204.086C480.855 200.221 484.194 195.153 484.178 190.087V182.214M415.041 230.215C401.684 237.926 380.027 237.926 366.67 230.215C361.764 227.382 358.659 223.903 357.357 220.253C356.972 219.172 356.745 218.077 356.675 216.978M415.041 230.215C435.697 218.29 450.567 209.705 474.161 196.085M415.041 230.215L474.161 196.085M474.161 196.085C479.067 193.252 482.171 189.774 483.473 186.124C483.933 184.835 484.168 183.524 484.178 182.214M356.017 189.057C355.684 182.078 360.131 175.038 369.357 169.711C385.372 160.466 410.334 159.534 428.153 166.916C441.59 160.474 461.565 160.888 474.161 168.16C480.799 171.992 484.138 177.008 484.178 182.031M356.017 189.057L356.007 196.817C356.123 200.451 357.535 204.074 360.242 207.435M356.017 189.057C356.07 190.151 356.239 191.244 356.526 192.328C357.587 196.332 360.25 200.223 364.515 203.654C362.815 204.836 361.39 206.106 360.242 207.435M360.242 207.435C357.657 210.424 356.468 213.713 356.675 216.978M484.178 182.031V182.214M484.178 182.031C484.179 182.092 484.179 182.153 484.178 182.214" stroke="#696969" stroke-width="1.00019" stroke-linecap="round" stroke-linejoin="round"/>
</g>
<g clip-path="url(#clip0_4023_8918)">
<path d="M415.972 188.166L413.085 186.499C409.099 184.198 402.637 184.198 398.651 186.499C394.665 188.8 394.665 192.531 398.651 194.832L401.538 196.499M415.25 196.082L418.137 197.749M420.013 204.165L429.251 198.832C431.676 197.432 432.889 196.732 433.343 195.925C433.743 195.215 433.743 194.45 433.343 193.74C432.889 192.932 431.676 192.232 429.251 190.832L427.23 189.666C424.805 188.266 423.593 187.566 422.195 187.303C420.965 187.073 419.64 187.073 418.41 187.303C417.012 187.566 415.799 188.266 413.374 189.666L404.136 194.999C401.711 196.399 400.498 197.099 400.044 197.906C399.644 198.616 399.644 199.381 400.044 200.091C400.498 200.898 401.711 201.598 404.136 202.998L406.157 204.165C408.582 205.565 409.795 206.265 411.193 206.527C412.423 206.758 413.748 206.758 414.977 206.527C416.376 206.265 417.588 205.565 420.013 204.165Z" stroke="#6720FF" stroke-width="3.33365" stroke-linecap="round" stroke-linejoin="round"/>
</g>
<g filter="url(#filter2_d_4023_8918)">
<path d="M206.221 247.936L77.0863 322.487C73.6911 324.447 71.9956 327.017 72 329.586C72.0044 332.148 73.6998 334.71 77.0863 336.665L89.3672 343.754L206.221 411.215C213.002 415.13 223.998 415.13 230.779 411.215L347.633 343.754L359.914 336.665C363.22 334.756 364.914 332.269 364.997 329.768C365.084 327.139 363.389 324.493 359.914 322.487L230.779 247.936C223.998 244.021 213.002 244.021 206.221 247.936Z" fill="white"/>
<path d="M230.779 411.215C223.998 415.13 213.002 415.13 206.221 411.215L89.3672 343.754L77.0863 336.665C73.6998 334.71 72.0044 332.148 72 329.586V347.954C71.9956 350.523 73.6911 353.093 77.0863 355.053L206.221 429.604C213.002 433.519 223.998 433.519 230.779 429.604L359.914 355.053C363.22 353.145 364.914 350.658 364.997 348.157V329.768C364.914 332.269 363.22 334.756 359.914 336.665L347.633 343.754L230.779 411.215Z" fill="#E9E9E9"/>
<path d="M364.997 329.768C365.084 327.139 363.389 324.493 359.914 322.487L230.779 247.936C223.998 244.021 213.002 244.021 206.221 247.936L77.0863 322.487C73.6911 324.447 71.9956 327.017 72 329.586M364.997 329.768C364.914 332.269 363.22 334.756 359.914 336.665L347.633 343.754L230.779 411.215C223.998 415.13 213.002 415.13 206.221 411.215L89.3672 343.754L77.0863 336.665C73.6998 334.71 72.0044 332.148 72 329.586M364.997 329.768V348.157C364.914 350.658 363.22 353.145 359.914 355.053L230.779 429.604C223.998 433.519 213.002 433.519 206.221 429.604L77.0863 355.053C73.6911 353.093 71.9956 350.523 72 347.954V329.586" stroke="#696969" stroke-linecap="round" stroke-linejoin="round"/>
</g>
<path d="M220.483 388.686C212.908 393.059 200.626 393.059 193.051 388.686C190.269 387.079 188.508 385.106 187.77 383.036C187.551 382.423 187.422 381.802 187.383 381.179C187.266 379.327 187.94 377.462 189.406 375.767C190.057 375.013 190.865 374.293 191.829 373.623C189.41 371.677 187.9 369.47 187.299 367.2C187.136 366.585 187.04 365.965 187.01 365.344C186.821 361.387 189.343 357.394 194.575 354.373C203.657 349.13 217.814 348.602 227.919 352.788C235.539 349.134 246.868 349.37 254.011 353.493C257.776 355.667 259.669 358.511 259.692 361.36C259.692 361.394 259.692 361.429 259.692 361.464C259.686 362.207 259.553 362.95 259.292 363.681C258.553 365.751 256.793 367.724 254.011 369.33C240.631 377.054 232.197 381.923 220.483 388.686Z" fill="white"/>
<path d="M193.051 393.224C200.626 397.597 212.908 397.597 220.483 393.224L254.011 373.868C257.807 371.676 259.701 368.801 259.692 365.929V361.464C259.686 362.207 259.553 362.95 259.292 363.681C258.553 365.751 256.793 367.724 254.011 369.33L220.483 388.686C212.908 393.059 200.626 393.059 193.051 388.686C190.269 387.079 188.508 385.106 187.77 383.036C187.551 382.423 187.422 381.802 187.383 381.179V385.702C187.55 388.434 189.438 391.138 193.051 393.224Z" fill="#D8D8D8"/>
<path d="M187.01 365.344L187.004 369.745C187.07 371.806 187.871 373.861 189.406 375.767C190.057 375.013 190.865 374.293 191.829 373.623C189.41 371.677 187.9 369.47 187.299 367.2C187.136 366.585 187.04 365.965 187.01 365.344Z" fill="#D8D8D8"/>
<path d="M220.483 393.224C212.908 397.597 200.626 397.597 193.051 393.224C189.438 391.138 187.55 388.434 187.383 385.702V381.179M220.483 393.224C232.197 386.461 240.631 381.592 254.011 373.868M220.483 393.224L254.011 373.868M254.011 373.868C257.807 371.676 259.701 368.801 259.692 365.929V361.464M220.483 388.686C212.908 393.059 200.626 393.059 193.051 388.686C190.269 387.079 188.508 385.106 187.77 383.036C187.551 382.423 187.422 381.802 187.383 381.179M220.483 388.686C232.197 381.923 240.631 377.054 254.011 369.33M220.483 388.686L254.011 369.33M254.011 369.33C256.793 367.724 258.553 365.751 259.292 363.681C259.553 362.95 259.686 362.207 259.692 361.464M187.01 365.344C186.821 361.387 189.343 357.394 194.575 354.373C203.657 349.13 217.814 348.602 227.919 352.788C235.539 349.134 246.868 349.37 254.011 353.493C257.776 355.667 259.669 358.511 259.692 361.36M187.01 365.344L187.004 369.745C187.07 371.806 187.871 373.861 189.406 375.767M187.01 365.344C187.04 365.965 187.136 366.585 187.299 367.2C187.9 369.47 189.41 371.677 191.829 373.623C190.865 374.293 190.057 375.013 189.406 375.767M189.406 375.767C187.94 377.462 187.266 379.327 187.383 381.179M259.692 361.36V361.464M259.692 361.36C259.692 361.394 259.692 361.429 259.692 361.464" stroke="#696969" stroke-width="0.567223" stroke-linecap="round" stroke-linejoin="round"/>
<g clip-path="url(#clip1_4023_8918)">
<path d="M207.204 377.274L208.533 378.042L211.741 376.19C212.392 376.663 212.702 377.138 212.672 377.579C212.67 378.103 212.441 378.823 211.164 379.561C209.205 380.692 206.087 380.662 204.136 379.535C202.184 378.409 202.105 376.626 204.092 375.478C205.143 374.872 206.362 374.658 207.467 374.64L207.471 373.56C205.912 373.578 204.239 373.858 202.763 374.711C200.065 376.268 199.972 378.836 202.659 380.388C205.346 381.939 209.796 381.885 212.493 380.328C213.941 379.492 214.568 378.575 214.542 377.577C214.546 376.563 213.585 375.681 212.595 375.109C212.284 374.929 211.973 374.782 211.718 374.668L207.204 377.274Z" fill="#4285F4"/>
<path d="M214.647 371.704C212.915 372.704 212.796 374.307 214.606 375.352C216.417 376.397 219.166 376.345 220.926 375.329C222.686 374.313 222.805 372.742 220.995 371.697C219.156 370.635 216.407 370.687 214.647 371.704ZM219.71 374.627C218.744 375.184 217.129 375.202 216.026 374.565C214.894 373.912 214.954 372.996 215.919 372.439C216.885 371.881 218.472 371.847 219.603 372.5C220.706 373.137 220.675 374.069 219.71 374.627Z" fill="#EA4335"/>
<path d="M230.884 363.146L230.828 363.179C230.148 363.147 229.212 363.295 228.445 363.738C226.855 364.656 226.85 366.226 228.632 367.255C230.386 368.267 233.135 368.281 234.725 367.363C235.491 366.92 235.748 366.38 235.693 365.988L235.75 365.955L236.202 366.216C237.39 366.902 237.388 367.655 236.366 368.245C235.514 368.736 234.409 368.688 233.644 368.509L232.961 369.492C234.122 369.769 236.105 369.832 237.639 368.947C239.257 368.012 239.686 366.654 237.367 365.315L231.71 362.049L230.404 362.803L230.941 363.113L230.884 363.146ZM233.65 366.579C232.685 367.136 231.155 367.072 230.08 366.452C228.977 365.815 228.923 364.931 229.86 364.391C230.797 363.85 232.356 363.897 233.459 364.534C234.562 365.138 234.616 366.021 233.65 366.579Z" fill="#4285F4"/>
<path d="M221.716 367.622C219.984 368.622 219.866 370.226 221.676 371.271C223.486 372.316 226.235 372.264 227.996 371.247C229.756 370.231 229.875 368.66 228.064 367.615C226.226 366.554 223.477 366.606 221.716 367.622ZM226.779 370.545C225.814 371.103 224.199 371.121 223.096 370.484C221.964 369.831 222.024 368.914 222.989 368.357C223.954 367.8 225.542 367.765 226.673 368.418C227.776 369.055 227.745 369.988 226.779 370.545Z" fill="#FBBC05"/>
<path d="M229.394 359.5L230.757 358.713L240.261 364.2L238.898 364.986L229.394 359.5Z" fill="#34A853"/>
<path d="M243.219 361.055C242.509 361.465 241.715 361.564 240.724 361.385L243.229 357.947L242.719 357.816C241.756 357.556 239.632 357.28 238.013 358.214C236.395 359.148 236.305 360.67 238.172 361.748C239.926 362.76 242.646 362.79 244.435 361.757C245.883 360.921 245.829 359.94 245.689 359.433L243.903 359.647C244.072 360.171 243.928 360.645 243.219 361.055ZM239.258 358.867C239.826 358.539 240.592 358.424 241.13 358.571L239.478 360.896C238.149 360.161 238.548 359.277 239.258 358.867Z" fill="#EA4335"/>
</g>
<path d="M290.483 348.968C282.908 353.341 270.626 353.341 263.051 348.968C260.269 347.361 258.508 345.388 257.77 343.318C257.551 342.705 257.422 342.084 257.383 341.461C257.266 339.609 257.94 337.744 259.406 336.048C260.057 335.295 260.865 334.575 261.829 333.904C259.41 331.958 257.9 329.752 257.299 327.481C257.136 326.866 257.04 326.247 257.01 325.626C256.821 321.668 259.343 317.676 264.575 314.655C273.657 309.412 287.814 308.883 297.919 313.07C305.539 309.416 316.868 309.651 324.011 313.775C327.776 315.948 329.669 318.793 329.692 321.641C329.692 321.676 329.692 321.711 329.692 321.745C329.686 322.489 329.553 323.232 329.292 323.963C328.553 326.033 326.793 328.005 324.011 329.612C310.631 337.336 302.197 342.205 290.483 348.968Z" fill="white"/>
<path d="M263.051 353.505C270.626 357.879 282.908 357.879 290.483 353.505L324.011 334.15C327.807 331.958 329.701 329.083 329.692 326.21V321.745C329.686 322.489 329.553 323.232 329.292 323.963C328.553 326.033 326.793 328.005 324.011 329.612L290.483 348.968C282.908 353.341 270.626 353.341 263.051 348.968C260.269 347.361 258.508 345.388 257.77 343.318C257.551 342.705 257.422 342.084 257.383 341.461V345.984C257.55 348.716 259.438 351.42 263.051 353.505Z" fill="#D8D8D8"/>
<path d="M257.01 325.626L257.004 330.027C257.07 332.088 257.871 334.143 259.406 336.048C260.057 335.295 260.865 334.575 261.829 333.904C259.41 331.958 257.9 329.752 257.299 327.481C257.136 326.866 257.04 326.247 257.01 325.626Z" fill="#D8D8D8"/>
<path d="M290.483 353.505C282.908 357.879 270.626 357.879 263.051 353.505C259.438 351.42 257.55 348.716 257.383 345.984V341.461M290.483 353.505C302.197 346.743 310.631 341.874 324.011 334.15M290.483 353.505L324.011 334.15M324.011 334.15C327.807 331.958 329.701 329.083 329.692 326.21V321.745M290.483 348.968C282.908 353.341 270.626 353.341 263.051 348.968C260.269 347.361 258.508 345.388 257.77 343.318C257.551 342.705 257.422 342.084 257.383 341.461M290.483 348.968C302.197 342.205 310.631 337.336 324.011 329.612M290.483 348.968L324.011 329.612M324.011 329.612C326.793 328.005 328.553 326.033 329.292 323.963C329.553 323.232 329.686 322.489 329.692 321.745M257.01 325.626C256.821 321.668 259.343 317.676 264.575 314.655C273.657 309.412 287.814 308.883 297.919 313.07C305.539 309.416 316.868 309.651 324.011 313.775C327.776 315.948 329.669 318.793 329.692 321.641M257.01 325.626L257.004 330.027C257.07 332.088 257.871 334.143 259.406 336.048M257.01 325.626C257.04 326.247 257.136 326.866 257.299 327.481C257.9 329.752 259.41 331.958 261.829 333.904C260.865 334.575 260.057 335.295 259.406 336.048M259.406 336.048C257.94 337.744 257.266 339.609 257.383 341.461M329.692 321.641V321.745M329.692 321.641C329.692 321.676 329.692 321.711 329.692 321.745" stroke="#696969" stroke-width="0.567223" stroke-linecap="round" stroke-linejoin="round"/>
<g clip-path="url(#clip2_4023_8918)">
<path d="M292.885 332.593L295.63 331.008L291.828 330.492L293.391 334.48L292.181 335.179L290.347 330.367C290.239 330.023 290.645 329.694 291.232 329.637C291.358 329.627 291.476 329.621 291.602 329.632L299.955 330.69L298.745 331.389L297.228 331.17L294.447 332.776L292.885 332.593ZM306.457 325.853L302.04 323.303L301.011 323.898L305.861 326.697C305.996 326.775 306.186 326.822 306.375 326.817C306.574 326.817 306.764 326.77 306.908 326.687L311.595 323.981L311.261 323.079L306.457 325.853ZM288.605 335.241C289.607 334.663 289.607 333.724 288.604 333.145C287.602 332.567 285.976 332.567 284.974 333.145L280.468 335.747L285.833 338.844L286.853 338.254L282.446 335.71L285.859 333.74C286.338 333.463 287.114 333.463 287.593 333.74C288.072 334.016 288.072 334.464 287.593 334.741L284.686 336.419L290.438 336.185L291.937 335.32L288.135 335.512L288.605 335.241ZM279.494 342.503L282.609 340.705C284.054 339.829 283.981 338.442 282.473 337.613C281.01 336.81 278.707 336.815 277.254 337.613L274.138 339.411C272.621 340.245 272.549 341.632 273.994 342.508C275.439 343.384 277.832 343.421 279.349 342.586C279.403 342.566 279.449 342.54 279.494 342.503ZM281.598 340.204L278.618 341.924C277.633 342.461 276.08 342.43 275.15 341.862C274.265 341.319 274.265 340.464 275.15 339.922L278.13 338.202C279.06 337.634 280.613 337.603 281.597 338.14C282.582 338.677 282.636 339.573 281.706 340.141C281.67 340.162 281.634 340.183 281.598 340.204ZM302.104 329.45L305.283 327.615L304.949 326.723L301.237 328.866C300.307 329.434 298.754 329.465 297.77 328.928C296.785 328.391 296.731 327.495 297.661 326.926C297.697 326.905 297.733 326.885 297.77 326.864L300.795 325.117L300.46 324.215L296.758 326.353C295.241 327.187 295.178 328.568 296.623 329.444C298.068 330.32 300.461 330.357 301.978 329.523C302.023 329.507 302.068 329.481 302.104 329.45ZM313.771 321.63C312.994 322.079 311.793 322.178 310.836 321.865L315.242 319.321L314.899 318.424L309.888 321.317C309.346 320.765 309.517 320.071 310.294 319.623L313.319 317.877L312.976 316.98L309.273 319.117C307.838 319.998 307.901 321.38 309.418 322.214C310.881 323.017 313.175 323.017 314.638 322.214L317.816 320.379L317.482 319.488L313.771 321.63Z" fill="#C74634"/>
</g>
<path d="M205.483 335.686C197.908 340.059 185.626 340.059 178.051 335.686C175.269 334.079 173.508 332.106 172.77 330.036C172.551 329.423 172.422 328.802 172.383 328.179C172.266 326.327 172.94 324.462 174.406 322.767C175.057 322.013 175.865 321.293 176.829 320.623C174.41 318.677 172.9 316.47 172.299 314.2C172.136 313.585 172.04 312.965 172.01 312.344C171.821 308.387 174.343 304.394 179.575 301.373C188.657 296.13 202.814 295.602 212.919 299.788C220.539 296.134 231.868 296.37 239.011 300.493C242.776 302.667 244.669 305.511 244.692 308.36C244.692 308.394 244.692 308.429 244.692 308.464C244.686 309.207 244.553 309.95 244.292 310.681C243.553 312.751 241.793 314.724 239.011 316.33C225.631 324.054 217.197 328.923 205.483 335.686Z" fill="white"/>
<path d="M178.051 340.224C185.626 344.597 197.908 344.597 205.483 340.224L239.011 320.868C242.807 318.676 244.701 315.801 244.692 312.929V308.464C244.686 309.207 244.553 309.95 244.292 310.681C243.553 312.751 241.793 314.724 239.011 316.33L205.483 335.686C197.908 340.059 185.626 340.059 178.051 335.686C175.269 334.079 173.508 332.106 172.77 330.036C172.551 329.423 172.422 328.802 172.383 328.179V332.702C172.55 335.434 174.438 338.138 178.051 340.224Z" fill="#D8D8D8"/>
<path d="M172.01 312.344L172.004 316.745C172.07 318.806 172.871 320.861 174.406 322.767C175.057 322.013 175.865 321.293 176.829 320.623C174.41 318.677 172.9 316.47 172.299 314.2C172.136 313.585 172.04 312.965 172.01 312.344Z" fill="#D8D8D8"/>
<path d="M205.483 340.224C197.908 344.597 185.626 344.597 178.051 340.224C174.438 338.138 172.55 335.434 172.383 332.702V328.179M205.483 340.224C217.197 333.461 225.631 328.592 239.011 320.868M205.483 340.224L239.011 320.868M239.011 320.868C242.807 318.676 244.701 315.801 244.692 312.929V308.464M205.483 335.686C197.908 340.059 185.626 340.059 178.051 335.686C175.269 334.079 173.508 332.106 172.77 330.036C172.551 329.423 172.422 328.802 172.383 328.179M205.483 335.686C217.197 328.923 225.631 324.054 239.011 316.33M205.483 335.686L239.011 316.33M239.011 316.33C241.793 314.724 243.553 312.751 244.292 310.681C244.553 309.95 244.686 309.207 244.692 308.464M172.01 312.344C171.821 308.387 174.343 304.394 179.575 301.373C188.657 296.13 202.814 295.602 212.919 299.788C220.539 296.134 231.868 296.37 239.011 300.493C242.776 302.667 244.669 305.511 244.692 308.36M172.01 312.344L172.004 316.745C172.07 318.806 172.871 320.861 174.406 322.767M172.01 312.344C172.04 312.965 172.136 313.585 172.299 314.2C172.9 316.47 174.41 318.677 176.829 320.623C175.865 321.293 175.057 322.013 174.406 322.767M174.406 322.767C172.94 324.462 172.266 326.327 172.383 328.179M244.692 308.36V308.464M244.692 308.36C244.692 308.394 244.692 308.429 244.692 308.464" stroke="#696969" stroke-width="0.567223" stroke-linecap="round" stroke-linejoin="round"/>
<g clip-path="url(#clip3_4023_8918)">
<path d="M201.065 318.062C201.324 318.212 201.566 318.312 201.756 318.382C201.964 318.441 202.189 318.491 202.483 318.541C202.569 318.551 202.638 318.571 202.69 318.601C202.759 318.641 202.794 318.701 202.759 318.801L202.621 319.22C202.586 319.28 202.569 319.33 202.517 319.36C202.448 319.4 202.344 319.42 202.205 319.42C201.998 319.42 201.825 319.4 201.635 319.37C201.445 319.34 201.254 319.31 201.012 319.25C201.116 319.929 200.752 320.498 199.922 320.977C199.334 321.317 198.711 321.477 198.037 321.487C197.363 321.497 196.74 321.337 196.187 321.018C195.599 320.679 195.323 320.279 195.392 319.84C195.462 319.401 195.842 318.962 196.552 318.552C196.794 318.412 197.053 318.283 197.33 318.163C197.624 318.033 197.935 317.913 198.281 317.793L197.78 317.504C197.261 317.204 196.777 317.045 196.345 317.055C195.913 317.065 195.446 317.215 194.909 317.524C194.667 317.664 194.46 317.824 194.252 318.004C194.062 318.193 193.889 318.373 193.75 318.573C193.681 318.653 193.629 318.722 193.595 318.762C193.543 318.792 193.525 318.822 193.508 318.832C193.404 318.892 193.301 318.872 193.162 318.792L192.817 318.593C192.713 318.533 192.644 318.473 192.626 318.423C192.609 318.373 192.626 318.303 192.678 318.234C192.8 318.024 192.99 317.794 193.232 317.555C193.492 317.305 193.786 317.075 194.166 316.856C194.997 316.376 195.775 316.147 196.536 316.126C197.296 316.126 198.04 316.336 198.818 316.785L201.065 318.062ZM199.317 320.289C199.542 320.159 199.75 319.999 199.905 319.809C200.061 319.62 200.13 319.4 200.113 319.17C200.079 319.031 200.027 318.901 199.906 318.771C199.768 318.651 199.612 318.522 199.37 318.382L199.076 318.212C198.817 318.302 198.575 318.402 198.315 318.512C198.056 318.622 197.848 318.742 197.623 318.871C197.156 319.141 196.914 319.381 196.862 319.63C196.827 319.87 196.966 320.089 197.311 320.289C197.64 320.479 197.968 320.568 198.297 320.558C198.677 320.578 198.989 320.478 199.317 320.289ZM205.63 317.522C205.509 317.592 205.405 317.632 205.302 317.632C205.215 317.642 205.06 317.612 204.887 317.552L197.902 315.397C197.729 315.338 197.608 315.308 197.556 315.278C197.453 315.218 197.435 315.148 197.556 315.078L198.231 314.689C198.369 314.609 198.473 314.569 198.577 314.569C198.663 314.559 198.819 314.589 198.992 314.649L204.732 316.624L201.223 313.36C201.12 313.261 201.068 313.191 201.085 313.121C201.102 313.071 201.172 312.991 201.293 312.921L201.846 312.602C201.985 312.522 202.088 312.482 202.192 312.482C202.279 312.472 202.434 312.502 202.607 312.561L208.329 314.607L204.89 311.243C204.787 311.144 204.752 311.064 204.752 311.004C204.77 310.954 204.821 310.884 204.96 310.804L205.6 310.435C205.704 310.375 205.825 310.365 205.946 310.435C205.98 310.454 206.015 310.474 206.032 310.504C206.067 310.524 206.118 310.574 206.153 310.634L209.834 314.696C209.938 314.796 209.972 314.876 209.972 314.936C209.955 314.986 209.903 315.056 209.782 315.126L209.194 315.465C209.055 315.545 208.951 315.585 208.848 315.585C208.744 315.585 208.606 315.565 208.433 315.505L202.901 313.55L206.288 316.743C206.392 316.843 206.443 316.913 206.426 316.983C206.426 317.043 206.34 317.113 206.218 317.183L205.63 317.522ZM214.711 312.479C214.348 312.689 213.95 312.879 213.518 313.029C213.086 313.178 212.722 313.288 212.446 313.328C212.273 313.348 212.117 313.358 212.048 313.338C211.979 313.318 211.858 313.288 211.806 313.258L211.46 313.059C211.322 312.979 211.305 312.909 211.408 312.849C211.443 312.829 211.495 312.799 211.547 312.789C211.599 312.779 211.685 312.749 211.789 312.729C212.135 312.649 212.463 312.56 212.792 312.43C213.121 312.3 213.432 312.16 213.709 312C214.141 311.751 214.418 311.511 214.487 311.291C214.574 311.062 214.47 310.862 214.194 310.702C214.003 310.593 213.779 310.543 213.519 310.533C213.26 310.523 212.914 310.603 212.464 310.723L211.15 311.122C210.493 311.322 209.87 311.402 209.334 311.352C208.798 311.302 208.349 311.183 207.986 310.973C207.692 310.804 207.502 310.614 207.415 310.424C207.329 310.235 207.295 310.015 207.347 309.805C207.399 309.596 207.52 309.386 207.71 309.176C207.9 308.967 208.16 308.777 208.454 308.607C208.61 308.517 208.765 308.427 208.956 308.358C209.129 308.278 209.319 308.208 209.474 308.138C209.647 308.078 209.82 308.018 209.976 307.968C210.132 307.918 210.287 307.888 210.391 307.868C210.547 307.838 210.668 307.828 210.772 307.848C210.858 307.858 210.979 307.888 211.065 307.938L211.394 308.127C211.532 308.207 211.567 308.287 211.463 308.347C211.411 308.377 211.29 308.407 211.117 308.447C210.546 308.577 210.01 308.767 209.509 309.056C209.111 309.286 208.868 309.506 208.782 309.695C208.695 309.885 208.782 310.075 209.076 310.244C209.266 310.354 209.508 310.414 209.767 310.404C210.044 310.404 210.424 310.324 210.909 310.184L212.206 309.794C212.863 309.595 213.451 309.515 213.935 309.555C214.419 309.594 214.851 309.724 215.214 309.934C215.508 310.103 215.716 310.303 215.836 310.493C215.957 310.702 215.992 310.922 215.94 311.131C215.905 311.351 215.767 311.571 215.559 311.79C215.351 312.07 215.057 312.28 214.711 312.479Z" fill="#252F3E"/>
<path fill-rule="evenodd" clip-rule="evenodd" d="M219.397 313.666C218.79 315.952 216.368 318.389 213.531 320.026C209.535 322.333 204.468 323.562 199.298 323.713C198.9 323.723 198.831 323.463 199.229 323.393C203.881 322.684 208.516 321.185 212.269 319.018C214.795 317.56 217.061 315.653 218.532 313.547C218.74 313.247 219.483 313.297 219.397 313.666Z" fill="#FF9900"/>
<path fill-rule="evenodd" clip-rule="evenodd" d="M219.259 312.509C218.585 312.459 217.166 313.517 216.509 313.996C216.319 314.146 216.076 314.046 216.146 313.847C216.527 312.569 218.931 311.48 219.484 311.52C220.038 311.56 221.87 312.977 221.679 314.265C221.644 314.465 221.385 314.515 221.264 314.345C220.849 313.786 219.916 312.548 219.259 312.509Z" fill="#FF9900"/>
<path d="M201.065 318.062C201.324 318.212 201.566 318.312 201.756 318.382C201.964 318.441 202.189 318.491 202.483 318.541C202.569 318.551 202.638 318.571 202.69 318.601C202.759 318.641 202.794 318.701 202.759 318.801L202.621 319.22C202.586 319.28 202.569 319.33 202.517 319.36C202.448 319.4 202.344 319.42 202.205 319.42C201.998 319.42 201.825 319.4 201.635 319.37C201.445 319.34 201.254 319.31 201.012 319.25C201.116 319.929 200.752 320.498 199.922 320.977C199.334 321.317 198.711 321.477 198.037 321.487C197.363 321.497 196.74 321.337 196.187 321.018C195.599 320.679 195.323 320.279 195.392 319.84C195.462 319.401 195.842 318.962 196.552 318.552C196.794 318.412 197.053 318.283 197.33 318.163C197.624 318.033 197.935 317.913 198.281 317.793L197.78 317.504C197.261 317.204 196.777 317.045 196.345 317.055C195.913 317.065 195.446 317.215 194.909 317.524C194.667 317.664 194.46 317.824 194.252 318.004C194.062 318.193 193.889 318.373 193.75 318.573C193.681 318.653 193.629 318.722 193.595 318.762C193.543 318.792 193.525 318.822 193.508 318.832C193.404 318.892 193.301 318.872 193.162 318.792L192.817 318.593C192.713 318.533 192.644 318.473 192.626 318.423C192.609 318.373 192.626 318.303 192.678 318.234C192.8 318.024 192.99 317.794 193.232 317.555C193.492 317.305 193.786 317.075 194.166 316.856C194.997 316.376 195.775 316.147 196.536 316.126C197.296 316.126 198.04 316.336 198.818 316.785L201.065 318.062ZM199.317 320.289C199.542 320.159 199.75 319.999 199.905 319.809C200.061 319.62 200.13 319.4 200.113 319.17C200.079 319.031 200.027 318.901 199.906 318.771C199.768 318.651 199.612 318.522 199.37 318.382L199.076 318.212C198.817 318.302 198.575 318.402 198.315 318.512C198.056 318.622 197.848 318.742 197.623 318.871C197.156 319.141 196.914 319.381 196.862 319.63C196.827 319.87 196.966 320.089 197.311 320.289C197.64 320.479 197.968 320.568 198.297 320.558C198.677 320.578 198.989 320.478 199.317 320.289ZM205.63 317.522C205.509 317.592 205.405 317.632 205.302 317.632C205.215 317.642 205.06 317.612 204.887 317.552L197.902 315.397C197.729 315.338 197.608 315.308 197.556 315.278C197.453 315.218 197.435 315.148 197.556 315.078L198.231 314.689C198.369 314.609 198.473 314.569 198.577 314.569C198.663 314.559 198.819 314.589 198.992 314.649L204.732 316.624L201.223 313.36C201.12 313.261 201.068 313.191 201.085 313.121C201.102 313.071 201.172 312.991 201.293 312.921L201.846 312.602C201.985 312.522 202.088 312.482 202.192 312.482C202.279 312.472 202.434 312.502 202.607 312.561L208.329 314.607L204.89 311.243C204.787 311.144 204.752 311.064 204.752 311.004C204.77 310.954 204.821 310.884 204.96 310.804L205.6 310.435C205.704 310.375 205.825 310.365 205.946 310.435C205.98 310.454 206.015 310.474 206.032 310.504C206.067 310.524 206.118 310.574 206.153 310.634L209.834 314.696C209.938 314.796 209.972 314.876 209.972 314.936C209.955 314.986 209.903 315.056 209.782 315.126L209.194 315.465C209.055 315.545 208.951 315.585 208.848 315.585C208.744 315.585 208.606 315.565 208.433 315.505L202.901 313.55L206.288 316.743C206.392 316.843 206.443 316.913 206.426 316.983C206.426 317.043 206.34 317.113 206.218 317.183L205.63 317.522ZM214.711 312.479C214.348 312.689 213.95 312.879 213.518 313.029C213.086 313.178 212.722 313.288 212.446 313.328C212.273 313.348 212.117 313.358 212.048 313.338C211.979 313.318 211.858 313.288 211.806 313.258L211.46 313.059C211.322 312.979 211.305 312.909 211.408 312.849C211.443 312.829 211.495 312.799 211.547 312.789C211.599 312.779 211.685 312.749 211.789 312.729C212.135 312.649 212.463 312.56 212.792 312.43C213.121 312.3 213.432 312.16 213.709 312C214.141 311.751 214.418 311.511 214.487 311.291C214.574 311.062 214.47 310.862 214.194 310.702C214.003 310.593 213.779 310.543 213.519 310.533C213.26 310.523 212.914 310.603 212.464 310.723L211.15 311.122C210.493 311.322 209.87 311.402 209.334 311.352C208.798 311.302 208.349 311.183 207.986 310.973C207.692 310.804 207.502 310.614 207.415 310.424C207.329 310.235 207.295 310.015 207.347 309.805C207.399 309.596 207.52 309.386 207.71 309.176C207.9 308.967 208.16 308.777 208.454 308.607C208.61 308.517 208.765 308.427 208.956 308.358C209.129 308.278 209.319 308.208 209.474 308.138C209.647 308.078 209.82 308.018 209.976 307.968C210.132 307.918 210.287 307.888 210.391 307.868C210.547 307.838 210.668 307.828 210.772 307.848C210.858 307.858 210.979 307.888 211.065 307.938L211.394 308.127C211.532 308.207 211.567 308.287 211.463 308.347C211.411 308.377 211.29 308.407 211.117 308.447C210.546 308.577 210.01 308.767 209.509 309.056C209.111 309.286 208.868 309.506 208.782 309.695C208.695 309.885 208.782 310.075 209.076 310.244C209.266 310.354 209.508 310.414 209.767 310.404C210.044 310.404 210.424 310.324 210.909 310.184L212.206 309.794C212.863 309.595 213.451 309.515 213.935 309.555C214.419 309.594 214.851 309.724 215.214 309.934C215.508 310.103 215.716 310.303 215.836 310.493C215.957 310.702 215.992 310.922 215.94 311.131C215.905 311.351 215.767 311.571 215.559 311.79C215.351 312.07 215.057 312.28 214.711 312.479Z" fill="#252F3E"/>
<path fill-rule="evenodd" clip-rule="evenodd" d="M219.397 313.666C218.79 315.952 216.368 318.389 213.531 320.026C209.535 322.333 204.468 323.562 199.298 323.713C198.9 323.723 198.831 323.463 199.229 323.393C203.881 322.684 208.516 321.185 212.269 319.018C214.795 317.56 217.061 315.653 218.532 313.547C218.74 313.247 219.483 313.297 219.397 313.666Z" fill="#FF9900"/>
<path fill-rule="evenodd" clip-rule="evenodd" d="M219.259 312.509C218.585 312.459 217.166 313.517 216.509 313.996C216.319 314.146 216.076 314.046 216.146 313.847C216.527 312.569 218.931 311.48 219.484 311.52C220.038 311.56 221.87 312.977 221.679 314.265C221.644 314.465 221.385 314.515 221.264 314.345C220.849 313.786 219.916 312.548 219.259 312.509Z" fill="#FF9900"/>
</g>
<path d="M139.557 306.432L137.701 303.577L138.678 303.013L140.818 306.682L143.33 308.148L142.529 308.61L139.99 307.16L133.636 305.924L134.617 305.358L139.557 306.432ZM143.469 305.108C143.107 304.898 142.823 304.674 142.618 304.434C142.41 304.192 142.291 303.948 142.26 303.701C142.226 303.455 142.285 303.214 142.437 302.976C142.586 302.736 142.837 302.514 143.19 302.31C143.547 302.104 143.933 301.958 144.349 301.872C144.764 301.782 145.186 301.747 145.614 301.765C146.039 301.784 146.46 301.854 146.879 301.974C147.295 302.092 147.684 302.256 148.047 302.465L148.149 302.524C148.512 302.734 148.796 302.959 149 303.199C149.205 303.438 149.324 303.681 149.358 303.926C149.389 304.173 149.329 304.416 149.177 304.654C149.025 304.892 148.772 305.113 148.419 305.317C148.062 305.523 147.676 305.671 147.26 305.76C146.848 305.848 146.429 305.882 146.005 305.862C145.577 305.845 145.155 305.776 144.739 305.658C144.324 305.54 143.935 305.376 143.572 305.167L143.469 305.108ZM144.432 304.67C144.68 304.813 144.947 304.933 145.232 305.03C145.515 305.125 145.801 305.187 146.093 305.215C146.381 305.246 146.665 305.238 146.944 305.191C147.223 305.145 147.482 305.052 147.721 304.914C147.957 304.778 148.113 304.631 148.191 304.471C148.271 304.31 148.287 304.146 148.237 303.977C148.185 303.811 148.076 303.646 147.912 303.483C147.744 303.318 147.536 303.164 147.288 303.021L147.186 302.962C146.941 302.821 146.676 302.703 146.391 302.61C146.105 302.514 145.818 302.45 145.53 302.42C145.239 302.391 144.953 302.4 144.674 302.447C144.395 302.49 144.136 302.58 143.897 302.718C143.659 302.856 143.502 303.005 143.428 303.166C143.35 303.326 143.338 303.489 143.39 303.655C143.44 303.823 143.549 303.99 143.716 304.155C143.88 304.317 144.085 304.47 144.33 304.611L144.432 304.67ZM154.931 301.45L154.187 301.08C154.268 301.319 154.252 301.552 154.141 301.778C154.026 302.001 153.804 302.208 153.475 302.398C153.212 302.55 152.933 302.665 152.638 302.742C152.34 302.817 152.029 302.848 151.703 302.836C151.378 302.823 151.04 302.764 150.689 302.659C150.339 302.549 149.976 302.386 149.601 302.17L146.61 300.443L147.47 299.946L150.47 301.678C150.743 301.836 150.991 301.954 151.215 302.033C151.438 302.112 151.646 302.156 151.838 302.167C152.033 302.18 152.215 302.163 152.382 302.116C152.553 302.068 152.72 301.996 152.885 301.901C153.077 301.79 153.227 301.678 153.336 301.566C153.441 301.451 153.509 301.338 153.541 301.227C153.568 301.136 153.572 301.045 153.55 300.953C153.528 300.858 153.486 300.766 153.424 300.677L149.815 298.593L150.68 298.093L155.713 300.999L154.931 301.45ZM155.127 295.418C155.285 295.327 155.46 295.239 155.653 295.153C155.848 295.065 156.008 295.007 156.132 294.978L156.857 295.531C156.653 295.606 156.467 295.683 156.299 295.762C156.132 295.837 155.966 295.922 155.802 296.017C155.591 296.139 155.426 296.264 155.308 296.393C155.188 296.52 155.113 296.649 155.085 296.78C155.057 296.896 155.064 297.016 155.104 297.14C155.144 297.26 155.214 297.381 155.313 297.502L158.541 299.366L157.676 299.865L152.643 296.96L153.462 296.487L154.173 296.855L154.304 296.925C154.232 296.647 154.26 296.381 154.387 296.125C154.515 295.865 154.761 295.63 155.127 295.418ZM171.129 291.073C171.148 291.206 171.149 291.335 171.134 291.462C171.115 291.588 171.08 291.709 171.027 291.825C170.94 292.025 170.802 292.216 170.613 292.397C170.427 292.58 170.194 292.75 169.915 292.907C169.633 293.067 169.334 293.191 169.017 293.28C168.701 293.366 168.377 293.421 168.045 293.444C167.717 293.469 167.385 293.466 167.05 293.434C166.715 293.401 166.386 293.346 166.064 293.267C165.741 293.192 165.431 293.097 165.133 292.982C164.836 292.864 164.558 292.733 164.301 292.588L163.515 292.134C163.267 291.987 163.039 291.83 162.831 291.664C162.623 291.494 162.448 291.317 162.305 291.135C162.163 290.952 162.059 290.767 161.994 290.579C161.925 290.389 161.91 290.199 161.947 290.01C161.984 289.823 162.076 289.64 162.221 289.459C162.367 289.278 162.583 289.106 162.868 288.941C163.184 288.758 163.525 288.619 163.891 288.522C164.254 288.423 164.625 288.369 165.003 288.358C165.385 288.349 165.764 288.384 166.143 288.463C166.518 288.54 166.878 288.662 167.222 288.828L166.371 289.32C166.141 289.226 165.909 289.153 165.673 289.099C165.434 289.044 165.199 289.015 164.966 289.013C164.73 289.013 164.499 289.041 164.273 289.097C164.043 289.15 163.822 289.239 163.608 289.362C163.403 289.481 163.257 289.606 163.17 289.738C163.08 289.869 163.036 290.002 163.036 290.139C163.036 290.275 163.076 290.411 163.156 290.547C163.234 290.681 163.335 290.813 163.459 290.941C163.583 291.07 163.724 291.193 163.882 291.309C164.04 291.426 164.203 291.532 164.371 291.629L165.166 292.088C165.34 292.185 165.53 292.279 165.738 292.37C165.946 292.458 166.164 292.536 166.394 292.604C166.623 292.672 166.859 292.725 167.101 292.765C167.343 292.804 167.585 292.822 167.827 292.819C168.065 292.817 168.301 292.79 168.534 292.738C168.763 292.684 168.982 292.599 169.19 292.483C169.311 292.417 169.428 292.343 169.543 292.263C169.661 292.18 169.762 292.094 169.845 292.002C169.929 291.911 169.993 291.817 170.036 291.72C170.076 291.622 170.081 291.522 170.05 291.422L168.538 290.539L167.161 291.334L166.436 290.915L168.631 289.647L171.129 291.073ZM171.199 288.922L173.916 290.49L173.055 290.987L166.283 287.077L168.478 285.809C168.788 285.638 169.123 285.5 169.483 285.396C169.846 285.29 170.215 285.228 170.59 285.208C170.965 285.188 171.337 285.217 171.706 285.294C172.079 285.369 172.427 285.501 172.753 285.689C173.079 285.877 173.307 286.078 173.437 286.293C173.567 286.504 173.615 286.718 173.581 286.935C173.547 287.151 173.438 287.364 173.255 287.574C173.076 287.781 172.835 287.974 172.534 288.151L171.199 288.922ZM170.492 288.514L171.827 287.743C172.023 287.627 172.175 287.503 172.283 287.372C172.389 287.24 172.448 287.106 172.46 286.97C172.472 286.834 172.434 286.7 172.344 286.569C172.254 286.435 172.106 286.309 171.902 286.191C171.697 286.073 171.477 285.987 171.241 285.933C171.009 285.878 170.775 285.852 170.539 285.855C170.3 285.86 170.064 285.895 169.832 285.957C169.602 286.018 169.387 286.105 169.185 286.218L167.85 286.988L170.492 288.514ZM175.796 281.585L180.391 284.228C180.708 284.41 180.948 284.613 181.112 284.837C181.277 285.061 181.364 285.288 181.373 285.519C181.385 285.752 181.317 285.981 181.168 286.207C181.016 286.43 180.779 286.635 180.456 286.822C180.128 287.011 179.77 287.15 179.382 287.238C178.994 287.326 178.6 287.365 178.2 287.356C177.804 287.349 177.413 287.297 177.028 287.2C176.641 287.102 176.287 286.962 175.968 286.781L171.391 284.128L172.209 283.656L176.814 286.293C177.019 286.407 177.244 286.501 177.489 286.575C177.737 286.646 177.99 286.69 178.247 286.706C178.501 286.724 178.756 286.71 179.01 286.663C179.267 286.615 179.506 286.527 179.726 286.4C179.946 286.273 180.098 286.137 180.182 285.992C180.263 285.845 180.287 285.696 180.256 285.546C180.225 285.399 180.146 285.255 180.019 285.114C179.892 284.972 179.731 284.842 179.535 284.722L174.963 282.066L175.796 281.585ZM185.667 282.165C185.564 282.106 185.453 282.065 185.332 282.041C185.208 282.016 185.063 282.012 184.899 282.028C184.735 282.044 184.546 282.082 184.332 282.141C184.115 282.198 183.865 282.281 183.583 282.391C183.235 282.523 182.9 282.634 182.578 282.724C182.259 282.811 181.956 282.869 181.671 282.898C181.386 282.93 181.119 282.929 180.871 282.893C180.62 282.855 180.39 282.776 180.182 282.656C179.978 282.538 179.835 282.4 179.754 282.243C179.671 282.084 179.649 281.915 179.689 281.738C179.73 281.561 179.83 281.381 179.992 281.198C180.156 281.014 180.382 280.838 180.671 280.672C180.981 280.493 181.3 280.355 181.629 280.258C181.958 280.162 182.28 280.104 182.597 280.086C182.913 280.069 183.214 280.088 183.499 280.146C183.784 280.199 184.037 280.29 184.257 280.417L183.397 280.914C183.288 280.851 183.155 280.806 182.997 280.779C182.835 280.751 182.665 280.742 182.485 280.752C182.305 280.763 182.119 280.795 181.927 280.849C181.738 280.901 181.555 280.978 181.378 281.08C181.195 281.186 181.054 281.29 180.955 281.394C180.858 281.496 180.8 281.593 180.778 281.684C180.753 281.777 180.762 281.863 180.806 281.942C180.849 282.021 180.919 282.088 181.015 282.143C181.114 282.201 181.221 282.241 181.336 282.264C181.451 282.288 181.586 282.29 181.741 282.272C181.893 282.256 182.069 282.219 182.271 282.16C182.476 282.099 182.719 282.014 183.001 281.904C183.376 281.763 183.73 281.647 184.062 281.555C184.391 281.462 184.698 281.401 184.983 281.373C185.271 281.346 185.538 281.353 185.783 281.394C186.031 281.434 186.259 281.513 186.467 281.633C186.69 281.762 186.842 281.909 186.923 282.074C187.006 282.237 187.023 282.408 186.974 282.587C186.924 282.766 186.809 282.948 186.629 283.134C186.45 283.321 186.211 283.5 185.913 283.671C185.572 283.868 185.223 284.018 184.867 284.12C184.507 284.22 184.16 284.279 183.825 284.297C183.49 284.319 183.173 284.301 182.876 284.243C182.581 284.184 182.327 284.093 182.113 283.97L182.973 283.473C183.163 283.568 183.358 283.627 183.559 283.65C183.764 283.671 183.966 283.668 184.164 283.639C184.36 283.612 184.547 283.565 184.727 283.497C184.907 283.429 185.07 283.353 185.215 283.269C185.445 283.136 185.619 283.005 185.736 282.877C185.851 282.746 185.909 282.625 185.909 282.514C185.909 282.446 185.888 282.382 185.848 282.323C185.808 282.264 185.747 282.212 185.667 282.165Z" fill="#585D64"/>
<path d="M151.223 175.757L192.053 199.331M192.053 199.331L293.859 140.55C300.88 136.497 309.529 136.497 316.549 140.55L341.893 155.182M192.053 199.331L102.017 251.313C94.4537 255.68 94.4537 266.596 102.017 270.962L134.698 289.831" stroke="#696969" stroke-width="0.567223"/>
<rect width="11.3445" height="11.3445" transform="matrix(0.866041 0.499972 -0.866041 0.499972 191.825 194)" fill="#9D70FF"/>
<g opacity="0.8">
<path d="M525.33 118.669L525.328 67.3285C525.328 66.0955 524.463 64.5963 523.395 63.9798L484.089 41.2851L478.933 38.308C478.415 38.0085 477.943 37.9724 477.596 38.1559L477.537 38.19C477.204 38.3989 477 38.8249 477 39.4242L477.002 90.7648C477.002 91.9978 477.867 93.4971 478.935 94.1136L523.397 119.785C523.938 120.098 524.427 120.124 524.778 119.913C525.119 119.707 525.33 119.277 525.33 118.669Z" fill="#73BEFF"/>
<path d="M525.328 67.3285L525.33 118.669C525.33 119.277 525.119 119.707 524.778 119.913L540.44 110.873C540.786 110.67 541 110.238 541 109.625L540.998 58.2846C540.998 57.0516 540.133 55.5523 539.065 54.9358L494.603 29.2641C494.072 28.9573 493.591 28.9269 493.241 29.1257L477.596 38.1559C477.943 37.9724 478.415 38.0085 478.933 38.308L484.089 41.2851L523.395 63.9798C524.463 64.5963 525.328 66.0955 525.328 67.3285Z" fill="#468BFF"/>
<path d="M477.537 38.19C477.204 38.3989 477 38.8249 477 39.4242L477.002 90.7648C477.002 91.9978 477.867 93.4971 478.935 94.1136L523.397 119.785C523.938 120.098 524.427 120.124 524.778 119.913M477.537 38.19L477.596 38.1559M477.537 38.19C477.556 38.1779 477.576 38.1666 477.596 38.1559M524.778 119.913C525.119 119.707 525.33 119.277 525.33 118.669L525.328 67.3285C525.328 66.0955 524.463 64.5963 523.395 63.9798L484.089 41.2851L478.933 38.308C478.415 38.0085 477.943 37.9724 477.596 38.1559M524.778 119.913L540.44 110.873C540.786 110.67 541 110.238 541 109.625L540.998 58.2846C540.998 57.0516 540.133 55.5523 539.065 54.9358L494.603 29.2641C494.072 28.9573 493.591 28.9269 493.241 29.1257L477.596 38.1559" stroke="#164BE2" stroke-width="0.5" stroke-linecap="round" stroke-linejoin="round" stroke-dasharray="6.11 6.11"/>
</g>
<g opacity="0.8">
<path d="M563.294 155.308L563.293 131.625C563.293 131.056 562.894 130.364 562.401 130.08L544.27 119.611L541.892 118.238C541.652 118.1 541.435 118.083 541.275 118.168L541.248 118.184C541.094 118.28 541 118.476 541 118.753L541.001 142.436C541.001 143.004 541.4 143.696 541.893 143.98L562.402 155.823C562.652 155.967 562.877 155.979 563.039 155.881C563.197 155.786 563.294 155.588 563.294 155.308Z" fill="#B694FF"/>
<path d="M563.293 131.625L563.294 155.308C563.294 155.588 563.197 155.786 563.039 155.881L570.264 151.711C570.424 151.618 570.522 151.418 570.522 151.136L570.522 127.453C570.522 126.884 570.122 126.193 569.63 125.908L549.12 114.066C548.875 113.925 548.653 113.911 548.492 114.002L541.275 118.168C541.435 118.083 541.652 118.1 541.892 118.238L544.27 119.611L562.401 130.08C562.894 130.364 563.293 131.056 563.293 131.625Z" fill="#9D70FF"/>
<path d="M541.248 118.184C541.094 118.28 541 118.476 541 118.753L541.001 142.436C541.001 143.004 541.4 143.696 541.893 143.98L562.402 155.823C562.652 155.967 562.877 155.979 563.039 155.881M541.248 118.184L541.275 118.168M541.248 118.184C541.257 118.178 541.266 118.173 541.275 118.168M563.039 155.881C563.197 155.786 563.294 155.588 563.294 155.308L563.293 131.625C563.293 131.056 562.894 130.364 562.401 130.08L544.27 119.611L541.892 118.238C541.652 118.1 541.435 118.083 541.275 118.168M563.039 155.881L570.264 151.711C570.424 151.618 570.522 151.418 570.522 151.136L570.522 127.453C570.522 126.884 570.122 126.193 569.63 125.908L549.12 114.066C548.875 113.925 548.653 113.911 548.492 114.002L541.275 118.168" stroke="#6720FF" stroke-width="0.5" stroke-linecap="round" stroke-linejoin="round" stroke-dasharray="4.2 4.2"/>
</g>
<g opacity="0.8">
<path d="M114.294 460.363L114.293 436.68C114.293 436.112 113.894 435.42 113.401 435.136L95.2702 424.667L92.8918 423.294C92.6525 423.156 92.4352 423.139 92.2751 423.224L92.2478 423.239C92.0943 423.336 92 423.532 92 423.809L92.0008 447.491C92.0008 448.06 92.4001 448.752 92.8926 449.036L113.402 460.878C113.652 461.022 113.877 461.034 114.039 460.937C114.197 460.842 114.294 460.644 114.294 460.363Z" fill="#B694FF"/>
<path d="M114.293 436.68L114.294 460.363C114.294 460.644 114.197 460.842 114.039 460.937L121.264 456.767C121.424 456.673 121.522 456.474 121.522 456.191L121.522 432.509C121.522 431.94 121.122 431.248 120.63 430.964L100.12 419.122C99.8752 418.98 99.6532 418.966 99.492 419.058L92.2751 423.224C92.4352 423.139 92.6525 423.156 92.8918 423.294L95.2702 424.667L113.401 435.136C113.894 435.42 114.293 436.112 114.293 436.68Z" fill="#9D70FF"/>
<path d="M92.2478 423.239C92.0943 423.336 92 423.532 92 423.809L92.0008 447.491C92.0008 448.06 92.4001 448.752 92.8926 449.036L113.402 460.878C113.652 461.022 113.877 461.034 114.039 460.937M92.2478 423.239L92.2751 423.224M92.2478 423.239C92.2567 423.234 92.2658 423.228 92.2751 423.224M114.039 460.937C114.197 460.842 114.294 460.644 114.294 460.363L114.293 436.68C114.293 436.112 113.894 435.42 113.401 435.136L95.2702 424.667L92.8918 423.294C92.6525 423.156 92.4352 423.139 92.2751 423.224M114.039 460.937L121.264 456.767C121.424 456.673 121.522 456.474 121.522 456.191L121.522 432.509C121.522 431.94 121.122 431.248 120.63 430.964L100.12 419.122C99.8752 418.98 99.6532 418.966 99.492 419.058L92.2751 423.224" stroke="#6720FF" stroke-width="0.5" stroke-linecap="round" stroke-linejoin="round" stroke-dasharray="4.2 4.2"/>
</g>
<g opacity="0.8">
<path d="M440.943 386.425L410.737 403.864C410.231 404.156 409.985 404.542 410.001 404.925C410.015 405.285 410.261 405.643 410.737 405.918L416.076 409L440.943 423.356C441.926 423.923 443.519 423.923 444.502 423.356L469.369 409L474.708 405.918C475.184 405.643 475.429 405.285 475.444 404.925C475.459 404.542 475.214 404.156 474.708 403.864L444.502 386.425C443.519 385.858 441.926 385.858 440.943 386.425Z" fill="#9D70FF"/>
<path d="M444.502 423.356C443.519 423.923 441.926 423.923 440.943 423.356L416.076 409L410.737 405.918C410.261 405.643 410.015 405.285 410.001 404.925V413.143C410.015 413.503 410.261 413.861 410.737 414.136L440.943 431.575C441.926 432.142 443.519 432.142 444.502 431.575L474.708 414.136C475.214 413.844 475.459 413.458 475.444 413.075V404.925C475.429 405.285 475.184 405.643 474.708 405.918L469.369 409L444.502 423.356Z" fill="#B694FF"/>
<path d="M410.001 404.925C409.985 404.542 410.231 404.156 410.737 403.864L440.943 386.425C441.926 385.858 443.519 385.858 444.502 386.425L474.708 403.864C475.214 404.156 475.459 404.542 475.444 404.925M410.001 404.925C410.015 405.285 410.261 405.643 410.737 405.918L416.076 409L440.943 423.356C441.926 423.923 443.519 423.923 444.502 423.356L469.369 409L474.708 405.918C475.184 405.643 475.429 405.285 475.444 404.925M410.001 404.925V413.143C410.015 413.503 410.261 413.861 410.737 414.136L440.943 431.575C441.926 432.142 443.519 432.142 444.502 431.575L474.708 414.136C475.214 413.844 475.459 413.458 475.444 413.075V404.925" stroke="#6720FF" stroke-width="0.513647" stroke-linecap="round" stroke-linejoin="round" stroke-dasharray="2.05 2.05"/>
</g>
<g opacity="0.8">
<path d="M277.929 106.731L277.928 81.3108C277.928 80.7003 277.5 79.958 276.971 79.6528L257.51 68.4162L254.957 66.9422C254.7 66.7939 254.467 66.7761 254.295 66.8669L254.266 66.8838C254.101 66.9872 254 67.1981 254 67.4948L254.001 92.9146C254.001 93.525 254.429 94.2674 254.958 94.5726L276.972 107.283C277.24 107.438 277.482 107.451 277.656 107.346C277.825 107.244 277.929 107.032 277.929 106.731Z" fill="#B694FF"/>
<path d="M277.928 81.3108L277.929 106.731C277.929 107.032 277.825 107.244 277.656 107.346L282.524 104.537C282.696 104.436 282.801 104.222 282.801 103.919L282.801 78.4993C282.801 77.8889 282.372 77.1466 281.843 76.8413L259.83 64.1307C259.567 63.9789 259.328 63.9638 259.155 64.0622L254.295 66.8669C254.467 66.7761 254.7 66.7939 254.957 66.9422L257.51 68.4162L276.971 79.6528C277.5 79.958 277.928 80.7003 277.928 81.3108Z" fill="#9D70FF"/>
<path d="M254.266 66.8838C254.101 66.9872 254 67.1981 254 67.4948L254.001 92.9146C254.001 93.525 254.429 94.2674 254.958 94.5726L276.972 107.283C277.24 107.438 277.482 107.451 277.656 107.346M254.266 66.8838L254.295 66.8669M254.266 66.8838C254.276 66.8778 254.285 66.8722 254.295 66.8669M277.656 107.346C277.825 107.244 277.929 107.032 277.929 106.731L277.928 81.3108C277.928 80.7003 277.5 79.958 276.971 79.6528L257.51 68.4162L254.957 66.9422C254.7 66.7939 254.467 66.7761 254.295 66.8669M277.656 107.346L282.524 104.537C282.696 104.436 282.801 104.222 282.801 103.919L282.801 78.4993C282.801 77.8889 282.372 77.1466 281.843 76.8413L259.83 64.1307C259.567 63.9789 259.328 63.9638 259.155 64.0622L254.295 66.8669" stroke="#6720FF" stroke-width="0.422383" stroke-linecap="round" stroke-linejoin="round" stroke-dasharray="1.69 1.69"/>
</g>
<g opacity="0.8">
<path d="M513.47 309.264L501.458 316.199C501.139 316.384 500.986 316.628 501.001 316.869C501.014 317.089 501.167 317.307 501.458 317.475L503.116 318.432L513.47 324.41C514.081 324.763 515.07 324.763 515.681 324.41L526.035 318.432L527.693 317.475C527.984 317.307 528.137 317.089 528.15 316.869C528.165 316.628 528.012 316.384 527.693 316.199L515.681 309.264C515.07 308.912 514.081 308.912 513.47 309.264Z" fill="#9D70FF"/>
<path d="M515.681 324.41C515.07 324.763 514.081 324.763 513.47 324.41L503.116 318.432L501.458 317.475C501.167 317.307 501.014 317.089 501.001 316.869V321.335C501.014 321.556 501.167 321.773 501.458 321.942L513.47 328.876C514.081 329.229 515.07 329.229 515.681 328.876L527.693 321.942C527.984 321.773 528.137 321.556 528.15 321.335V316.869C528.137 317.089 527.984 317.307 527.693 317.475L526.035 318.432L515.681 324.41Z" fill="#B694FF"/>
<path d="M528.15 316.869C528.165 316.628 528.012 316.384 527.693 316.199L515.681 309.264C515.07 308.912 514.081 308.912 513.47 309.264L501.458 316.199C501.139 316.384 500.986 316.628 501.001 316.869M528.15 316.869C528.137 317.089 527.984 317.307 527.693 317.475L526.035 318.432L515.681 324.41C515.07 324.763 514.081 324.763 513.47 324.41L503.116 318.432L501.458 317.475C501.167 317.307 501.014 317.089 501.001 316.869M528.15 316.869V321.335C528.137 321.556 527.984 321.773 527.693 321.942L515.681 328.876C515.07 329.229 514.081 329.229 513.47 328.876L501.458 321.942C501.167 321.773 501.014 321.556 501.001 321.335V316.869" stroke="#6720FF" stroke-width="0.422383" stroke-linecap="round" stroke-linejoin="round" stroke-dasharray="1.69 1.69"/>
</g>
<g opacity="0.8">
<path d="M460.484 322.879L420.523 345.949C419.461 346.562 418.954 347.374 419.003 348.177C419.048 348.91 419.554 349.635 420.523 350.194L426.038 353.377L460.484 373.263C462.514 374.435 465.806 374.435 467.836 373.263L502.282 353.377L507.797 350.194C508.766 349.635 509.272 348.91 509.317 348.177C509.366 347.374 508.859 346.562 507.797 345.949L467.836 322.879C465.806 321.707 462.514 321.707 460.484 322.879Z" fill="#468BFF"/>
<path d="M467.836 373.263C465.806 374.435 462.514 374.435 460.484 373.263L426.038 353.377L420.523 350.194C419.554 349.635 419.048 348.91 419.003 348.177V363.035C419.048 363.767 419.554 364.492 420.523 365.051L460.484 388.121C462.514 389.293 465.806 389.293 467.836 388.121L507.797 365.051C508.766 364.492 509.272 363.767 509.317 363.035V348.177C509.272 348.91 508.766 349.635 507.797 350.194L502.282 353.377L467.836 373.263Z" fill="#73BEFF"/>
<path d="M509.317 348.177C509.366 347.374 508.859 346.562 507.797 345.949L467.836 322.879C465.806 321.707 462.514 321.707 460.484 322.879L420.523 345.949C419.461 346.562 418.954 347.374 419.003 348.177M509.317 348.177C509.272 348.91 508.766 349.635 507.797 350.194L502.282 353.377L467.836 373.263C465.806 374.435 462.514 374.435 460.484 373.263L426.038 353.377L420.523 350.194C419.554 349.635 419.048 348.91 419.003 348.177M509.317 348.177V363.035C509.272 363.767 508.766 364.492 507.797 365.051L467.836 388.121C465.806 389.293 462.514 389.293 460.484 388.121L420.523 365.051C419.554 364.492 419.048 363.767 419.003 363.035V348.177" stroke="#164BE2" stroke-width="0.5" stroke-linecap="round" stroke-linejoin="round" stroke-dasharray="4.25 4.25"/>
</g>
<defs>
<filter id="filter0_d_4023_8918" x="255.31" y="119.5" width="308.38" height="202.92" filterUnits="userSpaceOnUse" color-interpolation-filters="sRGB">
<feFlood flood-opacity="0" result="BackgroundImageFix"/>
<feColorMatrix in="SourceAlpha" type="matrix" values="0 0 0 0 0 0 0 0 0 0 0 0 0 0 0 0 0 0 127 0" result="hardAlpha"/>
<feOffset dy="7.19007"/>
<feGaussianBlur stdDeviation="3.59503"/>
<feComposite in2="hardAlpha" operator="out"/>
<feColorMatrix type="matrix" values="0 0 0 0 0 0 0 0 0 0 0 0 0 0 0 0 0 0 0.1 0"/>
<feBlend mode="normal" in2="BackgroundImageFix" result="effect1_dropShadow_4023_8918"/>
<feBlend mode="normal" in="SourceGraphic" in2="effect1_dropShadow_4023_8918" result="shape"/>
</filter>
<filter id="filter1_d_4023_8918" x="348.31" y="161.5" width="143.559" height="97.3801" filterUnits="userSpaceOnUse" color-interpolation-filters="sRGB">
<feFlood flood-opacity="0" result="BackgroundImageFix"/>
<feColorMatrix in="SourceAlpha" type="matrix" values="0 0 0 0 0 0 0 0 0 0 0 0 0 0 0 0 0 0 127 0" result="hardAlpha"/>
<feOffset dy="7.19007"/>
<feGaussianBlur stdDeviation="3.59503"/>
<feComposite in2="hardAlpha" operator="out"/>
<feColorMatrix type="matrix" values="0 0 0 0 0 0 0 0 0 0 0 0 0 0 0 0 0 0 0.1 0"/>
<feBlend mode="normal" in2="BackgroundImageFix" result="effect1_dropShadow_4023_8918"/>
<feBlend mode="normal" in="SourceGraphic" in2="effect1_dropShadow_4023_8918" result="shape"/>
</filter>
<filter id="filter2_d_4023_8918" x="64.3099" y="244.5" width="308.38" height="202.92" filterUnits="userSpaceOnUse" color-interpolation-filters="sRGB">
<feFlood flood-opacity="0" result="BackgroundImageFix"/>
<feColorMatrix in="SourceAlpha" type="matrix" values="0 0 0 0 0 0 0 0 0 0 0 0 0 0 0 0 0 0 127 0" result="hardAlpha"/>
<feOffset dy="7.19007"/>
<feGaussianBlur stdDeviation="3.59503"/>
<feComposite in2="hardAlpha" operator="out"/>
<feColorMatrix type="matrix" values="0 0 0 0 0 0 0 0 0 0 0 0 0 0 0 0 0 0 0.1 0"/>
<feBlend mode="normal" in2="BackgroundImageFix" result="effect1_dropShadow_4023_8918"/>
<feBlend mode="normal" in="SourceGraphic" in2="effect1_dropShadow_4023_8918" result="shape"/>
</filter>
<clipPath id="clip0_4023_8918">
<rect width="40" height="40" fill="white" transform="matrix(0.866041 -0.499972 0.866041 0.499972 377 193.999)"/>
</clipPath>
<clipPath id="clip1_4023_8918">
<rect width="45.865" height="14.371" fill="white" transform="matrix(0.866041 -0.499972 0.866041 0.499972 197.794 377.579)"/>
</clipPath>
<clipPath id="clip2_4023_8918">
<rect width="48.1289" height="6.25675" fill="white" transform="matrix(0.866041 -0.499972 0.866041 0.499972 271.33 340.97)"/>
</clipPath>
<clipPath id="clip3_4023_8918">
<rect width="24.0475" height="14.371" fill="white" transform="matrix(0.866041 -0.499972 0.866041 0.499972 190.689 318.843)"/>
</clipPath>
</defs>
</svg>