<svg xmlns:xlink="http://www.w3.org/1999/xlink" xmlns="http://www.w3.org/2000/svg" width="628" height="521" viewBox="0 0 628 521" fill="none">
<path d="M149.175 81.5271L91.0898 115.065L91.0876 182.138L149.173 148.6L149.175 81.5271Z" fill="#E9E9E9"/>
<path d="M91.0876 115.066L33.0021 81.5274L33.0042 148.6L91.0897 182.138L91.0876 115.066Z" fill="#C4C4C4"/>
<path d="M149.175 81.5346L91.0876 48L33 81.5346L91.0876 115.069L149.175 81.5346Z" fill="#BBBBBB"/>
<path d="M91.0876 48L33.0021 81.5381L32.9999 148.611M91.0876 48L149.173 81.5382L149.175 148.611M91.0876 48L149.175 81.5346L91.0876 115.069L33 81.5346L91.0876 48ZM32.9999 148.603L91.0876 182.138M91.0876 182.138L149.175 148.603M91.0876 182.138L91.0898 115.065L149.175 81.5271L149.173 148.6L91.0876 182.138ZM91.0876 115.066L33.0021 81.5274L33.0042 148.6L91.0897 182.138L91.0876 115.066Z" stroke="#696969" stroke-linecap="round" stroke-linejoin="round"/>
<path d="M149 81.4925L91.0022 114.996L91 182L148.998 148.496L149 81.4925Z" fill="#B6F9F0"/>
<path d="M91 114.997L33.0021 81.4929L33.0043 148.496L91.0021 182L91 114.997Z" fill="#82EDDF"/>
<path d="M149 81.5001L91 48L33.0001 81.5001L91 115L149 81.5001Z" fill="#7AC9C0"/>
<path d="M91 48L33.0021 81.5036L33 148.507M91 48L148.998 81.5037L149 148.507M91 48L149 81.5001L91 115L33.0001 81.5001L91 48ZM33 148.5L91 182M91 182L149 148.5M91 182L91.0022 114.996L149 81.4925L148.998 148.496L91 182ZM91 114.997L33.0021 81.4929L33.0043 148.496L91.0021 182L91 114.997Z" stroke="#01A18E" stroke-linecap="round" stroke-linejoin="round"/>
<rect y="0.249986" width="202.271" height="0.5" transform="matrix(0.866041 0.499972 -0.866041 0.499972 236.082 333.125)" stroke="#844AFF" stroke-width="0.5"/>
<path d="M417.933 419.584L402.434 428.533L402.433 446.431L417.933 437.482L417.933 419.584Z" fill="#9D70FF"/>
<path d="M402.434 428.533L386.934 419.584L386.934 437.482L402.433 446.431L402.434 428.533Z" fill="#6720FF"/>
<path d="M417.933 419.586L402.433 410.638L386.933 419.586L402.433 428.534L417.933 419.586Z" fill="#5019C5"/>
<path d="M402.433 410.638L386.934 419.587L386.933 437.485M402.433 410.638L417.933 419.587L417.933 437.485M402.433 410.638L417.933 419.586L402.433 428.534L386.933 419.586L402.433 410.638ZM386.933 437.483L402.433 446.431M402.433 446.431L417.933 437.483M402.433 446.431L402.434 428.533M402.433 446.431L417.933 437.482L417.933 419.584L402.434 428.533M402.433 446.431L386.934 437.482L386.934 419.584L402.434 428.533" stroke="#3C1690" stroke-width="0.533677" stroke-linecap="round" stroke-linejoin="round"/>
<circle cx="3" cy="3" r="3" transform="matrix(0.86601 -0.500028 -3.18351e-05 1 120 137)" fill="#696969"/>
<rect y="0.249986" width="355.466" height="0.5" transform="matrix(0.866041 0.499972 -0.866041 0.499972 123.082 139.125)" stroke="#696969" stroke-width="0.5"/>
<rect y="0.249986" width="202.271" height="0.5" transform="matrix(0.866041 0.499972 -0.866041 0.499972 387.149 239.125)" stroke="#844AFF" stroke-width="0.5"/>
<rect y="0.249986" width="202.271" height="0.5" transform="matrix(0.866041 0.499972 -0.866041 0.499972 398.149 277.125)" stroke="#844AFF" stroke-width="0.5"/>
<rect y="0.249986" width="202.271" height="0.5" transform="matrix(0.866041 0.499972 -0.866041 0.499972 354.149 283.125)" stroke="#844AFF" stroke-width="0.5"/>
<path d="M549 373.946L533.501 382.896L533.5 400.793L548.999 391.844L549 373.946Z" fill="#9D70FF"/>
<path d="M533.501 382.896L518.001 373.946L518.001 391.844L533.5 400.793L533.501 382.896Z" fill="#6720FF"/>
<path d="M549 373.948L533.5 365L518 373.948L533.5 382.897L549 373.948Z" fill="#5019C5"/>
<path d="M533.5 365L518.001 373.949L518 391.847M533.5 365L548.999 373.949L549 391.847M533.5 365L549 373.948L533.5 382.897L518 373.948L533.5 365ZM518 391.845L533.5 400.793M533.5 400.793L549 391.845M533.5 400.793L533.501 382.896M533.5 400.793L548.999 391.844L549 373.946L533.501 382.896M533.5 400.793L518.001 391.844L518.001 373.946L533.501 382.896" stroke="#3C1690" stroke-width="0.533677" stroke-linecap="round" stroke-linejoin="round"/>
<rect y="0.249986" width="202.271" height="0.5" transform="matrix(0.866041 0.499972 -0.866041 0.499972 367.149 323.125)" stroke="#844AFF" stroke-width="0.5"/>
<path d="M562 414.946L546.501 423.896L546.5 441.793L561.999 432.844L562 414.946Z" fill="#9D70FF"/>
<path d="M546.501 423.896L531.001 414.946L531.001 432.844L546.5 441.793L546.501 423.896Z" fill="#6720FF"/>
<path d="M562 414.948L546.5 406L531 414.948L546.5 423.897L562 414.948Z" fill="#5019C5"/>
<path d="M546.5 406L531.001 414.949L531 432.847M546.5 406L561.999 414.949L562 432.847M546.5 406L562 414.948L546.5 423.897L531 414.948L546.5 406ZM531 432.845L546.5 441.793M546.5 441.793L562 432.845M546.5 441.793L546.501 423.896M546.5 441.793L561.999 432.844L562 414.946L546.501 423.896M546.5 441.793L531.001 432.844L531.001 414.946L546.501 423.896" stroke="#3C1690" stroke-width="0.533677" stroke-linecap="round" stroke-linejoin="round"/>
<rect y="0.249986" width="202.271" height="0.5" transform="matrix(0.866041 0.499972 -0.866041 0.499972 296.149 311.125)" stroke="#844AFF" stroke-width="0.5"/>
<path d="M491 403.946L475.501 412.896L475.5 430.793L490.999 421.844L491 403.946Z" fill="#9D70FF"/>
<path d="M475.501 412.896L460.001 403.946L460.001 421.844L475.5 430.793L475.501 412.896Z" fill="#6720FF"/>
<path d="M491 403.948L475.5 395L460 403.948L475.5 412.897L491 403.948Z" fill="#5019C5"/>
<path d="M475.5 395L460.001 403.949L460 421.847M475.5 395L490.999 403.949L491 421.847M475.5 395L491 403.948L475.5 412.897L460 403.948L475.5 395ZM460 421.845L475.5 430.793M475.5 430.793L491 421.845M475.5 430.793L475.501 412.896M475.5 430.793L490.999 421.844L491 403.946L475.501 412.896M475.5 430.793L460.001 421.844L460.001 403.946L475.501 412.896" stroke="#3C1690" stroke-width="0.533677" stroke-linecap="round" stroke-linejoin="round"/>
<rect y="0.249986" width="202.271" height="0.5" transform="matrix(0.866041 0.499972 -0.866041 0.499972 323.149 356.125)" stroke="#844AFF" stroke-width="0.5"/>
<path d="M518 446.946L502.501 455.896L502.5 473.793L517.999 464.844L518 446.946Z" fill="#9D70FF"/>
<path d="M502.501 455.896L487.001 446.946L487.001 464.844L502.5 473.793L502.501 455.896Z" fill="#6720FF"/>
<path d="M518 446.948L502.5 438L487 446.948L502.5 455.897L518 446.948Z" fill="#5019C5"/>
<path d="M502.5 438L487.001 446.949L487 464.847M502.5 438L517.999 446.949L518 464.847M502.5 438L518 446.948L502.5 455.897L487 446.948L502.5 438ZM487 464.845L502.5 473.793M502.5 473.793L518 464.845M502.5 473.793L502.501 455.896M502.5 473.793L517.999 464.844L518 446.946L502.501 455.896M502.5 473.793L487.001 464.844L487.001 446.946L502.501 455.896" stroke="#3C1690" stroke-width="0.533677" stroke-linecap="round" stroke-linejoin="round"/>
<path d="M103.36 257.205C103.36 290.83 126.967 321.271 165.133 343.307V355.183C126.967 333.148 103.36 302.706 103.36 269.081V257.205Z" fill="#E6E6E7"/>
<path d="M165.133 343.307C247.498 390.86 381.037 390.86 463.401 343.307V355.183C381.037 402.736 247.498 402.736 165.133 355.183V343.307Z" fill="#D8D8D9"/>
<path d="M525.174 257.205C525.174 290.83 501.568 321.271 463.401 343.307V355.183C501.568 333.148 525.174 302.706 525.174 269.081V257.205Z" fill="#D8D8D9"/>
<path d="M103.604 257.205C103.604 290.705 127.126 321.081 165.256 343.095C206.392 366.845 260.323 378.727 314.267 378.727C368.212 378.727 422.143 366.845 463.279 343.095C501.409 321.081 524.93 290.705 524.93 257.205H525.419V269.081C525.419 302.83 501.727 333.338 463.523 355.395C422.295 379.198 368.275 391.092 314.267 391.092C260.26 391.092 206.24 379.198 165.012 355.395C126.808 333.338 103.116 302.83 103.116 269.081V257.205H103.604Z" stroke="#696969" stroke-width="0.489218"/>
<circle cx="172.205" cy="172.205" r="172.449" transform="matrix(0.866025 0.5 -0.866025 0.5 314.268 85)" fill="white" stroke="#696969" stroke-width="0.489218"/>
<circle cx="162.158" cy="162.158" r="162.158" transform="matrix(0.866041 0.499972 -0.866041 0.499972 313.588 92.2979)" fill="white"/>
<circle cx="157.293" cy="157.293" r="157.293" transform="matrix(0.866041 0.499972 -0.866041 0.499972 313.588 97.1626)" stroke="#24FDE3" stroke-width="6.48694" stroke-miterlimit="1.41421" stroke-dasharray="0.81 5.68"/>
<path d="M449.811 333.089C374.577 376.522 252.599 376.522 177.366 333.089C102.132 289.656 102.132 219.238 177.366 175.805C252.599 132.372 374.577 132.372 449.811 175.805C525.044 219.238 525.044 289.656 449.811 333.089Z" stroke="#E9E9E9" stroke-width="6.48694" stroke-miterlimit="1.41421"/>
<path d="M177.526 332.997C155.928 320.529 139.776 305.275 130.4 288.493C121.025 271.712 118.696 253.884 123.605 236.48" stroke="#12E7CD" stroke-width="6.48694" stroke-linecap="round"/>
<path d="M438.927 182.088C508.149 222.051 508.15 286.843 438.927 326.806C369.705 366.769 257.472 366.769 188.249 326.806C146.813 302.884 130.184 270.067 138.354 239.003L133.036 236.432C132.743 236.291 132.825 236.019 133.184 235.943L139.692 234.57C146.256 215.34 162.44 196.988 188.25 182.088C257.472 142.125 369.704 142.125 438.927 182.088ZM438.225 182.493C373.925 145.373 272.309 142.928 203.092 175.157L204.214 178.846C204.28 179.063 203.914 179.24 203.555 179.165L197.476 177.883C194.569 179.356 191.725 180.892 188.952 182.493C120.117 222.232 120.118 286.661 188.952 326.4C257.787 366.139 369.39 366.139 438.225 326.4C507.059 286.661 507.059 222.232 438.225 182.493Z" fill="#ABABAB"/>
<circle cx="136.213" cy="136.213" r="131.347" transform="matrix(0.866041 0.499972 -0.866041 0.499972 313.588 118.242)" stroke="#585D64" stroke-opacity="0.3" stroke-width="9.7304" stroke-dasharray="0.81 11.35"/>
<path fill-rule="evenodd" clip-rule="evenodd" d="M431.208 322.748L422.806 317.87C422.86 317.839 422.914 317.808 422.967 317.777C423.021 317.747 423.074 317.716 423.128 317.685C423.194 317.646 423.261 317.608 423.328 317.569C423.368 317.546 423.408 317.523 423.448 317.499L431.898 322.35C431.784 322.416 431.669 322.483 431.554 322.549C431.439 322.616 431.324 322.682 431.208 322.748ZM441.088 316.567L431.99 312.125C432.184 311.992 432.377 311.86 432.57 311.727L441.712 316.139C441.505 316.282 441.297 316.425 441.088 316.567ZM449.995 309.922L440.262 305.954C440.385 305.853 440.508 305.752 440.63 305.651C440.68 305.61 440.73 305.569 440.78 305.528L450.553 309.463C450.368 309.617 450.182 309.77 449.995 309.922ZM457.86 302.855L447.562 299.394C447.713 299.244 447.864 299.093 448.013 298.943L458.347 302.369C458.186 302.531 458.024 302.693 457.86 302.855ZM464.622 295.414L453.837 292.489C453.911 292.398 453.985 292.307 454.058 292.216C454.111 292.15 454.164 292.084 454.217 292.018L465.032 294.907C464.896 295.076 464.76 295.245 464.622 295.414ZM470.227 287.658L459.039 285.29C459.142 285.128 459.244 284.965 459.346 284.802L470.558 287.132C470.449 287.307 470.338 287.483 470.227 287.658ZM474.633 279.649L463.129 277.855C463.207 277.688 463.285 277.52 463.361 277.353L474.883 279.108C474.801 279.288 474.717 279.469 474.633 279.649ZM477.812 271.449L466.08 270.241C466.133 270.07 466.185 269.899 466.236 269.728L477.979 270.897C477.924 271.081 477.868 271.265 477.812 271.449ZM479.743 263.121L467.874 262.505C467.901 262.332 467.927 262.159 467.953 261.986L479.827 262.563C479.8 262.749 479.772 262.935 479.743 263.121ZM480.416 254.727L468.5 254.707C468.501 254.534 468.501 254.36 468.5 254.186L480.416 254.167C480.417 254.353 480.417 254.54 480.416 254.727ZM479.827 246.331L467.953 246.907C467.927 246.734 467.901 246.561 467.874 246.388L479.743 245.772C479.772 245.959 479.8 246.145 479.827 246.331ZM477.979 237.996L466.236 239.165C466.185 238.994 466.133 238.823 466.08 238.653L477.812 237.444C477.868 237.628 477.924 237.812 477.979 237.996ZM474.883 229.786L463.361 231.541C463.285 231.373 463.207 231.206 463.129 231.038L474.633 229.244C474.717 229.425 474.801 229.605 474.883 229.786ZM470.558 221.762L459.346 224.092C459.244 223.929 459.142 223.766 459.039 223.603L470.227 221.236C470.338 221.411 470.449 221.586 470.558 221.762ZM465.032 213.987L454.217 216.875C454.091 216.718 453.964 216.561 453.837 216.405L464.622 213.48C464.76 213.649 464.896 213.818 465.032 213.987ZM458.347 206.525L448.013 209.951C447.864 209.8 447.713 209.65 447.562 209.5L457.86 206.039C458.024 206.201 458.186 206.363 458.347 206.525ZM450.553 199.43L440.78 203.366C440.608 203.224 440.435 203.082 440.262 202.94L449.995 198.971C450.182 199.124 450.368 199.277 450.553 199.43ZM441.712 192.754L432.57 197.167C432.377 197.034 432.184 196.901 431.99 196.769L441.089 192.326C441.297 192.469 441.505 192.611 441.712 192.754ZM206.726 180.48L214.369 185.758C214.139 185.869 213.909 185.98 213.68 186.092L205.984 180.84C206.231 180.719 206.478 180.599 206.726 180.48ZM195.968 186.145C195.853 186.211 195.737 186.278 195.622 186.344C195.507 186.411 195.393 186.477 195.278 186.544L203.728 191.394C203.835 191.332 203.942 191.27 204.049 191.209C204.156 191.147 204.263 191.085 204.37 191.024L195.968 186.145ZM186.088 192.326C185.879 192.469 185.671 192.611 185.464 192.754L194.607 197.167C194.799 197.034 194.992 196.901 195.186 196.769L186.088 192.326ZM177.181 198.971L186.915 202.94C186.741 203.082 186.568 203.224 186.397 203.366L176.623 199.43C176.808 199.277 176.994 199.124 177.181 198.971ZM169.316 206.039L179.615 209.5C179.463 209.65 179.313 209.8 179.163 209.951L168.829 206.525C168.99 206.363 169.153 206.201 169.316 206.039ZM162.554 213.48L173.339 216.405C173.212 216.561 173.085 216.718 172.959 216.875L162.144 213.987C162.28 213.818 162.417 213.648 162.554 213.48ZM156.949 221.236L168.138 223.603C168.034 223.766 167.932 223.929 167.83 224.092L156.618 221.762C156.727 221.586 156.838 221.411 156.949 221.236ZM152.543 229.244L164.047 231.038C163.969 231.206 163.892 231.373 163.815 231.541L152.293 229.786C152.375 229.605 152.459 229.425 152.543 229.244ZM149.365 237.444L161.096 238.653C161.043 238.823 160.991 238.994 160.94 239.165L149.197 237.996C149.252 237.812 149.308 237.628 149.365 237.444ZM147.433 245.772L159.302 246.388C159.275 246.561 159.249 246.734 159.224 246.907L147.349 246.331C147.376 246.145 147.404 245.959 147.433 245.772ZM146.76 254.167L158.676 254.187C158.676 254.36 158.676 254.534 158.676 254.707L146.76 254.727C146.759 254.54 146.759 254.353 146.76 254.167ZM147.349 262.563L159.224 261.986C159.249 262.159 159.275 262.332 159.302 262.505L147.433 263.121C147.404 262.935 147.376 262.749 147.349 262.563ZM149.197 270.897L160.94 269.728C160.991 269.899 161.043 270.07 161.096 270.241L149.365 271.449C149.308 271.265 149.252 271.081 149.197 270.897ZM152.293 279.108L163.815 277.353C163.863 277.459 163.912 277.565 163.961 277.67C163.99 277.732 164.018 277.794 164.047 277.855L152.543 279.649C152.459 279.469 152.375 279.288 152.293 279.108ZM156.618 287.132L167.83 284.802C167.932 284.965 168.034 285.128 168.138 285.29L156.949 287.658C156.838 287.483 156.727 287.307 156.618 287.132ZM162.144 294.907L172.959 292.018C173.085 292.175 173.212 292.332 173.339 292.489L162.554 295.414C162.417 295.245 162.28 295.076 162.144 294.907ZM168.829 302.369L179.163 298.943C179.313 299.093 179.463 299.244 179.615 299.394L169.316 302.855C169.153 302.693 168.99 302.531 168.829 302.369ZM176.623 309.463L186.397 305.528C186.496 305.61 186.596 305.692 186.696 305.775C186.769 305.834 186.842 305.894 186.915 305.954L177.181 309.922C176.994 309.77 176.808 309.617 176.623 309.463ZM185.464 316.139L194.607 311.727C194.799 311.86 194.992 311.992 195.186 312.125L186.088 316.567C185.879 316.425 185.671 316.282 185.464 316.139ZM195.278 322.35L203.728 317.499C203.835 317.561 203.942 317.623 204.049 317.685C204.107 317.718 204.165 317.752 204.223 317.785L204.37 317.87L195.968 322.748C195.853 322.682 195.737 322.616 195.622 322.549C195.507 322.483 195.392 322.416 195.278 322.35ZM205.984 328.054L213.68 322.801C213.909 322.913 214.139 323.025 214.369 323.136L206.726 328.414C206.478 328.294 206.231 328.174 205.984 328.054ZM217.495 333.196L224.369 327.576C224.614 327.677 224.86 327.776 225.107 327.875L218.29 333.518C218.024 333.411 217.759 333.304 217.495 333.196ZM229.737 337.736L235.732 331.791C235.992 331.878 236.252 331.965 236.513 332.052L230.579 338.017C230.298 337.924 230.017 337.83 229.737 337.736ZM242.626 341.64L247.692 335.413C247.964 335.487 248.236 335.56 248.508 335.633L243.504 341.876C243.211 341.798 242.918 341.719 242.626 341.64ZM256.061 344.876L260.162 338.417C260.443 338.476 260.726 338.535 261.008 338.594L256.972 345.067C256.668 345.004 256.364 344.94 256.061 344.876ZM269.933 347.419C270.246 347.468 270.558 347.516 270.871 347.564L273.911 340.912C273.62 340.868 273.33 340.823 273.04 340.778L269.933 347.419ZM284.137 349.254L286.23 342.482C286.526 342.512 286.822 342.542 287.118 342.572L285.093 349.351C284.774 349.319 284.455 349.287 284.137 349.254ZM298.563 350.369L299.63 343.517C299.815 343.527 300 343.537 300.186 343.546C300.3 343.551 300.414 343.557 300.528 343.563L299.53 350.418C299.208 350.402 298.885 350.386 298.563 350.369ZM313.103 350.758L313.137 343.879C313.438 343.879 313.738 343.879 314.039 343.879L314.073 350.758C313.75 350.758 313.426 350.758 313.103 350.758ZM327.646 350.418L326.648 343.563C326.876 343.552 327.104 343.54 327.332 343.529C327.403 343.525 327.475 343.521 327.547 343.517L328.614 350.369C328.291 350.386 327.969 350.402 327.646 350.418ZM342.083 349.351L340.058 342.572C340.355 342.542 340.651 342.512 340.947 342.482L343.04 349.254C342.721 349.287 342.402 349.319 342.083 349.351ZM356.305 347.564L353.265 340.912C353.556 340.868 353.846 340.823 354.136 340.778L357.243 347.419C356.931 347.468 356.618 347.516 356.305 347.564ZM370.204 345.067L366.168 338.594C366.451 338.535 366.733 338.476 367.015 338.417L371.116 344.876C370.812 344.94 370.508 345.004 370.204 345.067ZM383.672 341.876L378.668 335.633C378.941 335.56 379.212 335.487 379.484 335.413L384.551 341.64C384.258 341.719 383.965 341.798 383.672 341.876ZM396.597 338.017L390.663 332.052C390.798 332.007 390.932 331.962 391.066 331.918C391.192 331.875 391.319 331.833 391.445 331.791L397.439 337.736C397.159 337.831 396.878 337.924 396.597 338.017ZM408.887 333.518L402.069 327.875C402.316 327.776 402.562 327.677 402.807 327.576L409.682 333.196C409.417 333.304 409.152 333.411 408.887 333.518ZM420.451 328.414L412.808 323.136C413.038 323.025 413.267 322.913 413.496 322.801L421.192 328.054C420.945 328.174 420.698 328.294 420.451 328.414Z" fill="#6720FF"/>
<path d="M227.052 231.251C223.775 229.359 221.458 227.399 220.1 225.372C218.743 223.345 218.391 221.332 219.047 219.332C219.749 217.359 221.435 215.494 224.103 213.737L230.985 217.71C229.066 219.251 228.223 220.872 228.457 222.575C228.738 224.305 230.213 225.94 232.881 227.481L233.583 227.886C235.55 229.021 237.586 229.791 239.693 230.197C241.846 230.629 243.93 230.724 245.943 230.481C247.956 230.237 249.758 229.656 251.35 228.737C253.831 227.305 254.815 225.656 254.3 223.791C253.831 221.953 252.193 220.224 249.384 218.602L246.154 216.737L252.403 213.129L255.844 215.115C257.717 216.197 259.66 216.94 261.673 217.345C263.78 217.751 265.816 217.818 267.783 217.548C269.796 217.305 271.575 216.737 273.12 215.845C275.554 214.44 276.631 212.818 276.35 210.98C276.069 209.142 274.618 207.467 271.996 205.953L271.294 205.548C268.953 204.196 266.261 203.453 263.218 203.318C260.222 203.21 257.46 203.75 254.932 204.94L248.05 200.967C250.812 199.48 253.902 198.534 257.319 198.129C260.83 197.723 264.365 197.872 267.923 198.575C271.528 199.25 274.828 200.453 277.825 202.183C281.055 204.048 283.302 206.021 284.566 208.102C285.924 210.183 286.275 212.197 285.62 214.142C285.011 216.115 283.349 217.886 280.634 219.453C278.808 220.507 276.725 221.278 274.384 221.764C272.137 222.251 269.819 222.453 267.432 222.372C265.091 222.318 262.82 221.98 260.62 221.359C262.352 223.17 263.054 225.143 262.726 227.278C262.446 229.386 260.83 231.291 257.881 232.994C254.838 234.751 251.514 235.778 247.909 236.075C244.351 236.4 240.746 236.129 237.095 235.264C233.49 234.373 230.142 233.035 227.052 231.251ZM262.98 244.37L271.547 239.424L325.62 238.208L317.053 243.154L262.98 244.37ZM269.581 255.56C265.648 253.289 263.284 250.762 262.488 247.978C261.739 245.222 262.488 242.33 264.736 239.303C267.076 236.276 270.892 233.235 276.182 230.181C279.366 228.343 282.526 226.816 285.662 225.6C288.893 224.384 292.029 223.492 295.073 222.924C298.209 222.357 301.229 222.1 304.131 222.154C307.128 222.208 309.937 222.586 312.558 223.289C315.274 223.992 317.802 225.019 320.143 226.37C324.028 228.613 326.346 231.113 327.095 233.87C327.891 236.654 327.142 239.573 324.848 242.627C322.601 245.654 318.832 248.695 313.542 251.749C310.358 253.587 307.151 255.114 303.921 256.33C300.784 257.546 297.671 258.452 294.581 259.046C291.538 259.614 288.518 259.871 285.522 259.817C282.619 259.762 279.81 259.384 277.095 258.681C274.427 257.952 271.922 256.911 269.581 255.56ZM275.41 251.789L276.112 252.195C277.75 253.141 279.623 253.789 281.73 254.141C283.883 254.519 286.248 254.56 288.823 254.262C291.397 253.965 294.16 253.289 297.109 252.235C300.152 251.181 303.336 249.695 306.66 247.776C309.984 245.857 312.535 244.032 314.314 242.303C316.187 240.573 317.38 238.965 317.895 237.478C318.41 235.992 318.34 234.627 317.685 233.384C317.076 232.167 315.953 231.086 314.314 230.14L313.612 229.735C312.02 228.816 310.147 228.167 307.994 227.789C305.84 227.411 303.476 227.37 300.901 227.667C298.326 227.965 295.517 228.64 292.474 229.694C289.525 230.749 286.388 232.235 283.064 234.154C279.74 236.073 277.142 237.897 275.269 239.627C273.49 241.357 272.343 242.965 271.828 244.451C271.313 245.938 271.383 247.303 272.039 248.546C272.694 249.789 273.818 250.87 275.41 251.789ZM305.087 268.679L313.655 263.733L367.727 262.517L359.16 267.463L305.087 268.679ZM311.688 279.869C307.756 277.598 305.391 275.071 304.596 272.287C303.847 269.531 304.596 266.639 306.843 263.612C309.184 260.584 312.999 257.544 318.289 254.49C321.473 252.652 324.633 251.125 327.77 249.909C331 248.692 334.137 247.8 337.18 247.233C340.316 246.665 343.336 246.409 346.239 246.463C349.235 246.517 352.044 246.895 354.666 247.598C357.381 248.301 359.909 249.328 362.25 250.679C366.136 252.922 368.453 255.422 369.202 258.179C369.998 260.963 369.249 263.882 366.955 266.936C364.708 269.963 360.939 273.004 355.649 276.058C352.465 277.896 349.258 279.423 346.028 280.639C342.891 281.855 339.778 282.76 336.688 283.355C333.645 283.923 330.625 284.179 327.629 284.125C324.727 284.071 321.918 283.693 319.202 282.99C316.534 282.26 314.029 281.22 311.688 279.869ZM317.517 276.098L318.219 276.504C319.858 277.45 321.73 278.098 323.837 278.45C325.991 278.828 328.355 278.869 330.93 278.571C333.505 278.274 336.267 277.598 339.216 276.544C342.259 275.49 345.443 274.004 348.767 272.085C352.091 270.166 354.642 268.341 356.421 266.612C358.294 264.882 359.488 263.274 360.003 261.787C360.518 260.301 360.447 258.936 359.792 257.693C359.183 256.476 358.06 255.395 356.421 254.449L355.719 254.044C354.127 253.125 352.255 252.476 350.101 252.098C347.947 251.719 345.583 251.679 343.008 251.976C340.433 252.274 337.625 252.949 334.581 254.003C331.632 255.057 328.495 256.544 325.171 258.463C321.847 260.382 319.249 262.206 317.376 263.936C315.597 265.666 314.45 267.274 313.935 268.76C313.42 270.247 313.491 271.612 314.146 272.855C314.802 274.098 315.925 275.179 317.517 276.098ZM347.194 292.988L355.762 288.042L409.835 286.826L401.267 291.772L347.194 292.988ZM353.796 304.177C349.863 301.907 347.499 299.38 346.703 296.596C345.954 293.839 346.703 290.947 348.95 287.92C351.291 284.893 355.106 281.853 360.397 278.799C363.58 276.961 366.74 275.434 369.877 274.217C373.107 273.001 376.244 272.109 379.287 271.542C382.424 270.974 385.443 270.717 388.346 270.771C391.342 270.826 394.151 271.204 396.773 271.907C399.488 272.609 402.016 273.636 404.357 274.988C408.243 277.231 410.56 279.731 411.309 282.488C412.105 285.272 411.356 288.191 409.062 291.245C406.815 294.272 403.046 297.312 397.756 300.366C394.573 302.204 391.366 303.731 388.135 304.948C384.999 306.164 381.885 307.069 378.795 307.664C375.752 308.231 372.733 308.488 369.736 308.434C366.834 308.38 364.025 308.002 361.31 307.299C358.641 306.569 356.136 305.529 353.796 304.177ZM359.624 300.407L360.326 300.812C361.965 301.758 363.838 302.407 365.944 302.758C368.098 303.137 370.462 303.177 373.037 302.88C375.612 302.583 378.374 301.907 381.324 300.853C384.367 299.799 387.55 298.312 390.874 296.393C394.198 294.475 396.749 292.65 398.528 290.92C400.401 289.191 401.595 287.583 402.11 286.096C402.625 284.61 402.555 283.245 401.899 282.001C401.291 280.785 400.167 279.704 398.528 278.758L397.826 278.353C396.234 277.434 394.362 276.785 392.208 276.407C390.055 276.028 387.691 275.988 385.116 276.285C382.541 276.582 379.732 277.258 376.689 278.312C373.739 279.366 370.603 280.853 367.279 282.772C363.955 284.691 361.356 286.515 359.484 288.245C357.705 289.974 356.558 291.583 356.043 293.069C355.528 294.556 355.598 295.92 356.253 297.164C356.909 298.407 358.032 299.488 359.624 300.407Z" fill="#17191D"/>
<path fill-rule="evenodd" clip-rule="evenodd" d="M404.483 209.632L381.943 214.981L391.204 201.965L386.942 199.505L376.838 213.745C375.992 214.931 376.471 216.29 378.049 217.201C379.627 218.112 381.978 218.387 384.029 217.903L408.745 212.092L404.483 209.632ZM383.089 225.257L407.503 225.18L409.753 221.968L383.061 222.067C380.829 222.076 378.855 222.849 378.018 224.04C377.19 225.223 377.669 226.574 379.241 227.482L379.241 227.489L398.242 238.404L400.493 235.193L383.092 225.259L383.089 225.257ZM364.294 200.224L369.856 198.925L369.685 214.335C369.672 215.621 368.331 216.766 366.267 217.246C364.216 217.726 361.872 217.443 360.306 216.54L341.396 205.572L341.383 205.572L346.946 204.273L364.153 214.318L364.294 200.224Z" fill="#6720FF"/>
<path d="M298.125 288.27C297.713 288.032 297.5 287.796 297.485 287.563C297.477 287.325 297.68 287.087 298.092 286.849L301.62 284.813L299.8 283.762L300.676 283.256L302.496 284.307L304.316 283.256L305.384 283.872L303.564 284.923L305.62 286.11L304.743 286.616L302.687 285.429L299.373 287.342C299.163 287.463 299.054 287.565 299.047 287.647C299.054 287.729 299.163 287.831 299.373 287.952L301.148 288.977L300.249 289.496L298.125 288.27ZM303.683 291.608C303.158 291.305 302.814 290.964 302.649 290.583C302.492 290.207 302.518 289.824 302.728 289.435C302.937 289.046 303.327 288.687 303.896 288.358C304.473 288.025 305.095 287.8 305.761 287.684C306.436 287.562 307.099 287.547 307.75 287.638C308.409 287.733 309.001 287.932 309.525 288.235C310.05 288.538 310.391 288.877 310.548 289.253C310.713 289.634 310.69 290.019 310.481 290.408C310.278 290.793 309.889 291.152 309.312 291.485C308.743 291.813 308.121 292.038 307.447 292.159C306.773 292.28 306.106 292.293 305.447 292.198C304.795 292.107 304.207 291.911 303.683 291.608ZM304.503 291.07L304.615 291.134C304.915 291.307 305.263 291.413 305.66 291.452C306.065 291.495 306.484 291.47 306.919 291.374C307.368 291.279 307.806 291.108 308.233 290.862C308.66 290.615 308.956 290.363 309.121 290.103C309.293 289.848 309.338 289.606 309.256 289.377C309.188 289.147 309.005 288.946 308.705 288.773L308.593 288.708C308.293 288.535 307.941 288.427 307.537 288.384C307.147 288.341 306.728 288.367 306.278 288.462C305.836 288.561 305.402 288.734 304.975 288.981C304.548 289.227 304.248 289.478 304.076 289.733C303.919 289.988 303.874 290.231 303.941 290.46C304.016 290.693 304.203 290.897 304.503 291.07ZM307.633 293.759L315.499 289.218L316.566 289.835L308.701 294.375L307.633 293.759ZM309.78 293.311L310.476 292.546L316.768 292.546L318.139 293.337L309.78 293.311ZM311.341 295.9L312.251 293L313.757 292.974L312.633 296.645L311.341 295.9ZM315.899 298.66C315.427 298.388 315.108 298.074 314.944 297.72C314.779 297.365 314.794 296.993 314.989 296.604C315.198 296.215 315.618 295.839 316.247 295.475C316.861 295.121 317.494 294.885 318.146 294.768C318.813 294.652 319.457 294.639 320.078 294.729C320.7 294.82 321.258 295.008 321.753 295.294C322.262 295.588 322.573 295.906 322.685 296.247C322.813 296.589 322.768 296.931 322.55 297.272C322.341 297.609 321.981 297.925 321.472 298.219C321.397 298.262 321.311 298.308 321.213 298.355C321.131 298.403 321.048 298.451 320.966 298.498L316.854 296.124L317.696 295.638L320.921 297.499L320.696 297.46C320.966 297.305 321.165 297.129 321.292 296.935C321.419 296.74 321.453 296.543 321.393 296.345C321.341 296.15 321.172 295.97 320.887 295.806L320.798 295.754C320.565 295.62 320.277 295.523 319.932 295.462C319.595 295.398 319.228 295.393 318.831 295.449C318.442 295.51 318.037 295.657 317.618 295.89L317.067 296.208C316.685 296.438 316.423 296.671 316.281 296.909C316.146 297.142 316.123 297.367 316.213 297.583C316.303 297.8 316.49 297.99 316.775 298.154L316.843 298.193C317.15 298.371 317.494 298.479 317.876 298.518C318.266 298.552 318.648 298.509 319.022 298.388L320.078 298.998C319.397 299.244 318.685 299.339 317.944 299.283C317.21 299.231 316.528 299.024 315.899 298.66ZM319.58 300.656L325.198 297.412L326.265 298.029L325.377 298.541C325.842 298.463 326.325 298.465 326.827 298.547C327.344 298.63 327.808 298.79 328.22 299.027C328.632 299.265 328.894 299.516 329.007 299.78C329.134 300.044 329.119 300.312 328.962 300.584C328.812 300.852 328.52 301.112 328.085 301.363L324.445 303.464L323.377 302.848L326.816 300.863C327.288 300.591 327.542 300.331 327.58 300.085C327.632 299.838 327.471 299.607 327.097 299.391L327.018 299.345C326.696 299.159 326.332 299.053 325.928 299.027C325.531 298.997 325.126 299.032 324.714 299.131C324.31 299.226 323.939 299.371 323.602 299.566L320.647 301.272L319.58 300.656ZM327.969 305.628C327.227 305.2 326.83 304.772 326.778 304.344C326.725 303.916 326.972 303.535 327.519 303.202L328.598 303.825C328.298 304.024 328.171 304.24 328.216 304.474C328.261 304.707 328.452 304.921 328.789 305.116L328.89 305.174C329.212 305.36 329.534 305.464 329.856 305.486C330.186 305.512 330.474 305.453 330.721 305.31C330.909 305.202 330.998 305.081 330.991 304.947C330.998 304.813 330.882 304.642 330.643 304.435L330.047 303.883C329.658 303.529 329.44 303.196 329.395 302.884C329.351 302.573 329.56 302.283 330.025 302.015C330.369 301.816 330.759 301.7 331.193 301.665C331.635 301.626 332.081 301.658 332.53 301.762C332.995 301.866 333.429 302.035 333.834 302.268C334.321 302.549 334.643 302.83 334.8 303.111C334.957 303.393 334.976 303.663 334.856 303.922C334.744 304.177 334.512 304.411 334.16 304.623L333.092 304.007C333.354 303.821 333.485 303.615 333.485 303.39C333.493 303.17 333.336 302.967 333.013 302.781L332.912 302.722C332.613 302.549 332.294 302.456 331.957 302.443C331.628 302.426 331.351 302.482 331.126 302.612C330.946 302.716 330.867 302.843 330.89 302.995C330.92 303.142 331.051 303.321 331.283 303.533L331.912 304.117C332.16 304.337 332.324 304.549 332.407 304.753C332.504 304.956 332.508 305.153 332.418 305.343C332.343 305.533 332.152 305.717 331.845 305.894C331.508 306.089 331.122 306.212 330.688 306.264C330.261 306.312 329.815 306.283 329.351 306.18C328.886 306.076 328.425 305.892 327.969 305.628ZM332.032 307.844L342.93 305.055L344.054 305.704L333.189 308.512L332.032 307.844ZM340.095 312.629C339.353 312.201 338.956 311.772 338.904 311.344C338.851 310.916 339.098 310.536 339.645 310.203L340.724 310.825C340.424 311.024 340.297 311.241 340.342 311.474C340.387 311.708 340.578 311.922 340.915 312.116L341.016 312.175C341.338 312.361 341.66 312.464 341.982 312.486C342.312 312.512 342.6 312.454 342.847 312.311C343.035 312.203 343.124 312.082 343.117 311.948C343.124 311.814 343.008 311.643 342.769 311.435L342.173 310.884C341.784 310.529 341.566 310.196 341.521 309.885C341.477 309.574 341.686 309.284 342.151 309.016C342.495 308.817 342.885 308.7 343.319 308.665C343.761 308.626 344.207 308.659 344.656 308.763C345.121 308.866 345.555 309.035 345.96 309.269C346.447 309.55 346.769 309.831 346.926 310.112C347.083 310.393 347.102 310.663 346.982 310.923C346.87 311.178 346.638 311.411 346.286 311.623L345.218 311.007C345.48 310.821 345.611 310.616 345.611 310.391C345.619 310.17 345.462 309.967 345.139 309.781L345.038 309.723C344.739 309.55 344.42 309.457 344.083 309.444C343.754 309.426 343.477 309.483 343.252 309.612C343.072 309.716 342.993 309.844 343.016 309.995C343.046 310.142 343.177 310.322 343.409 310.534L344.038 311.117C344.286 311.338 344.45 311.55 344.533 311.753C344.63 311.956 344.634 312.153 344.544 312.343C344.469 312.534 344.278 312.717 343.971 312.895C343.634 313.089 343.248 313.212 342.814 313.264C342.387 313.312 341.941 313.284 341.477 313.18C341.012 313.076 340.551 312.892 340.095 312.629ZM346.214 316.161C345.742 315.889 345.423 315.575 345.259 315.221C345.094 314.866 345.109 314.494 345.304 314.105C345.513 313.716 345.933 313.34 346.562 312.976C347.176 312.622 347.809 312.386 348.461 312.269C349.128 312.153 349.772 312.14 350.393 312.23C351.015 312.321 351.573 312.509 352.068 312.795C352.577 313.089 352.888 313.407 353 313.748C353.128 314.09 353.083 314.432 352.865 314.773C352.656 315.111 352.296 315.426 351.787 315.72C351.712 315.764 351.626 315.809 351.528 315.856C351.446 315.904 351.363 315.952 351.281 315.999L347.169 313.625L348.011 313.139L351.236 315L351.011 314.961C351.281 314.806 351.48 314.631 351.607 314.436C351.734 314.241 351.768 314.045 351.708 313.846C351.656 313.651 351.487 313.472 351.202 313.307L351.113 313.255C350.88 313.121 350.592 313.024 350.247 312.963C349.91 312.899 349.543 312.894 349.146 312.951C348.757 313.011 348.352 313.158 347.933 313.392L347.382 313.709C347 313.939 346.738 314.172 346.596 314.41C346.461 314.643 346.438 314.868 346.528 315.085C346.618 315.301 346.805 315.491 347.09 315.655L347.158 315.694C347.465 315.872 347.809 315.98 348.191 316.019C348.581 316.053 348.963 316.01 349.337 315.889L350.393 316.499C349.712 316.745 349 316.84 348.259 316.784C347.525 316.732 346.843 316.525 346.214 316.161ZM352.333 319.694C351.801 319.387 351.46 319.048 351.31 318.676C351.161 318.304 351.198 317.927 351.423 317.547C351.647 317.166 352.045 316.812 352.614 316.483C353.041 316.237 353.494 316.044 353.973 315.906C354.46 315.772 354.947 315.698 355.434 315.685C355.928 315.668 356.408 315.711 356.872 315.815C357.344 315.923 357.779 316.092 358.176 316.321C358.618 316.576 358.928 316.846 359.108 317.132C359.303 317.417 359.352 317.705 359.254 317.995C359.164 318.28 358.925 318.557 358.535 318.825L357.468 318.209C357.745 317.988 357.876 317.757 357.861 317.515C357.861 317.272 357.689 317.052 357.344 316.853L357.254 316.801C356.902 316.598 356.52 316.485 356.108 316.464C355.696 316.442 355.277 316.49 354.85 316.606C354.438 316.723 354.048 316.887 353.681 317.099C353.314 317.311 353.026 317.538 352.816 317.78C352.621 318.023 352.543 318.263 352.58 318.5C352.618 318.738 352.812 318.959 353.164 319.162L353.254 319.214C353.599 319.413 353.981 319.512 354.4 319.512C354.82 319.512 355.221 319.437 355.603 319.285L356.67 319.902C355.951 320.222 355.213 320.362 354.456 320.323C353.707 320.289 353 320.079 352.333 319.694Z" fill="#585D64"/>
<path d="M175.613 267.224L174.546 266.607L182.411 262.067L183.478 262.683L182.658 263.157C183.456 263.02 184.591 263.195 185.343 263.63C186.883 264.519 186.591 265.803 184.928 266.763C183.265 267.723 181.04 267.892 179.501 267.003C178.748 266.568 178.445 265.913 178.681 265.453L175.613 267.224ZM180.186 266.387L180.254 266.426C181.242 266.997 182.703 266.802 183.849 266.14C184.995 265.479 185.332 264.635 184.343 264.065L184.276 264.026C183.31 263.468 181.815 263.643 180.669 264.305C179.523 264.966 179.22 265.829 180.186 266.387ZM184.654 269.848L183.586 269.232L189.204 265.989L190.238 266.585L189.182 267.195C190.024 266.929 191.002 266.962 192.103 267.597L193.317 268.298L192.361 268.849L191.092 268.116C189.946 267.455 188.642 267.545 187.429 268.246L184.654 269.848ZM191.256 273.789C189.683 272.881 189.75 271.532 191.469 270.54C193.189 269.547 195.526 269.508 197.099 270.416C198.672 271.325 198.604 272.674 196.885 273.666C195.166 274.659 192.829 274.698 191.256 273.789ZM192.076 273.251L192.189 273.316C193.087 273.835 194.526 273.783 195.807 273.043C197.087 272.304 197.177 271.474 196.278 270.955L196.166 270.89C195.267 270.371 193.829 270.423 192.548 271.162C191.267 271.902 191.177 272.732 192.076 273.251ZM197.465 277.374C195.87 276.453 196.027 275.156 197.746 274.163C199.465 273.171 201.712 273.08 203.308 274.001C204.634 274.766 204.836 275.7 203.667 276.505L202.6 275.889C203.15 275.441 203.162 274.929 202.476 274.533L202.386 274.481C201.33 273.871 199.914 274.144 198.813 274.779C197.712 275.415 197.24 276.232 198.296 276.842L198.386 276.894C199.072 277.29 199.971 277.264 200.735 276.965L201.802 277.582C200.364 278.217 198.791 278.139 197.465 277.374ZM209.045 280.401C208.888 280.491 208.708 280.582 208.539 280.68L204.607 278.409C203.483 279.084 203.506 279.849 204.348 280.336L204.416 280.375C205.034 280.731 205.843 280.809 206.595 280.569L207.652 281.179C206.281 281.672 204.73 281.568 203.472 280.842C202.067 280.031 201.921 278.753 203.82 277.657C205.652 276.6 207.854 276.625 209.326 277.475C210.843 278.351 210.562 279.525 209.045 280.401ZM208.461 277.988L208.371 277.936C207.719 277.56 206.618 277.404 205.461 277.929L208.348 279.596C209.09 279.129 209.292 278.468 208.461 277.988ZM209.479 284.31C207.996 283.453 207.928 282.545 209.029 281.884L210.108 282.506C209.501 282.908 209.625 283.408 210.299 283.797L210.4 283.855C211.04 284.225 211.737 284.277 212.231 283.992C212.602 283.778 212.625 283.531 212.153 283.116L211.557 282.565C210.771 281.851 210.602 281.235 211.535 280.697C212.569 280.1 214.13 280.249 215.344 280.949C216.793 281.786 216.703 282.668 215.67 283.304L214.602 282.688C215.119 282.312 215.164 281.832 214.524 281.462L214.422 281.404C213.816 281.053 213.085 281.034 212.636 281.293C212.276 281.501 212.333 281.793 212.793 282.214L213.422 282.798C214.142 283.46 214.265 284.037 213.355 284.575C212.333 285.166 210.838 285.094 209.479 284.31ZM215.542 287.81C214.059 286.954 213.991 286.045 215.092 285.384L216.171 286.007C215.564 286.409 215.688 286.908 216.362 287.297L216.463 287.356C217.103 287.725 217.8 287.777 218.294 287.492C218.665 287.278 218.688 287.031 218.216 286.616L217.62 286.065C216.834 285.351 216.665 284.735 217.598 284.197C218.632 283.6 220.193 283.749 221.407 284.45C222.856 285.286 222.766 286.169 221.733 286.804L220.665 286.188C221.182 285.812 221.227 285.332 220.587 284.962L220.486 284.904C219.879 284.554 219.148 284.534 218.699 284.794C218.339 285.001 218.396 285.293 218.856 285.715L219.486 286.298C220.205 286.96 220.328 287.537 219.418 288.076C218.396 288.666 216.901 288.595 215.542 287.81ZM228.998 288.028L227.695 287.275L229.077 286.477L230.38 287.23L228.998 288.028ZM224.447 292.821L219.346 289.876L220.223 289.37L222.268 290.551L226.133 288.32L224.313 287.269L225.189 286.763L228.077 288.43L223.335 291.167L225.324 292.315L224.447 292.821ZM226.409 293.954L225.342 293.338L230.96 290.094L232.027 290.711L231.14 291.223C232.061 291.067 233.151 291.23 233.982 291.71C235.207 292.417 235.14 293.299 233.847 294.045L230.207 296.146L229.14 295.53L232.578 293.545C233.522 293 233.6 292.501 232.859 292.073L232.78 292.027C231.814 291.47 230.376 291.664 229.364 292.248L226.409 293.954ZM231.158 299.549C229.585 298.641 229.382 297.681 230.326 297.033L231.394 297.649C230.944 298.038 231.18 298.537 232.045 299.037L232.135 299.089C232.989 299.582 234.214 299.718 235.382 299.043L236.214 298.563C235.281 298.713 234.337 298.531 233.562 298.083C232.214 297.305 232.146 296.098 233.967 295.048C235.798 293.99 237.944 293.997 239.292 294.775C240.068 295.223 240.382 295.768 240.124 296.306L240.922 295.846L241.989 296.462L236.337 299.724C235.012 300.49 232.933 300.574 231.158 299.549ZM234.585 297.662L234.686 297.72C235.54 298.213 236.888 298.174 238.135 297.454C239.382 296.734 239.517 295.917 238.663 295.424L238.562 295.366C237.697 294.866 236.281 294.944 235.034 295.664C233.787 296.384 233.719 297.162 234.585 297.662ZM245.284 304.85L244.216 304.234L249.834 300.991L250.868 301.588L249.812 302.197C250.654 301.931 251.632 301.964 252.733 302.599L253.947 303.3L252.992 303.851L251.722 303.118C250.576 302.457 249.272 302.548 248.059 303.248L245.284 304.85ZM257.549 308.402C257.392 308.493 257.212 308.584 257.043 308.681L253.111 306.411C251.987 307.086 252.01 307.851 252.852 308.338L252.92 308.376C253.538 308.733 254.347 308.811 255.099 308.571L256.156 309.181C254.785 309.674 253.234 309.57 251.976 308.844C250.571 308.033 250.425 306.755 252.324 305.659C254.156 304.601 256.358 304.627 257.83 305.477C259.347 306.353 259.066 307.527 257.549 308.402ZM256.965 305.989L256.875 305.938C256.223 305.561 255.122 305.406 253.965 305.931L256.852 307.598C257.594 307.131 257.796 306.469 256.965 305.989ZM258.309 314.964L257.241 314.348L260.309 312.577C259.5 312.707 258.365 312.532 257.612 312.097C256.073 311.209 256.376 309.931 258.039 308.971C259.702 308.011 261.915 307.836 263.455 308.724C264.207 309.159 264.511 309.814 264.286 310.281L265.106 309.807L266.174 310.424L258.309 314.964ZM258.612 311.663L258.691 311.708C259.657 312.266 261.151 312.091 262.297 311.429C263.443 310.767 263.747 309.905 262.78 309.347L262.702 309.302C261.724 308.737 260.252 308.925 259.106 309.587C257.96 310.249 257.634 311.098 258.612 311.663ZM267.945 315.001L271.023 313.223L272.091 313.84L266.473 317.083L265.405 316.467L266.349 315.922C265.383 316.116 264.349 315.987 263.529 315.513C262.248 314.774 262.473 313.904 263.686 313.204L267.338 311.096L268.405 311.712L264.945 313.71C264.034 314.235 263.933 314.735 264.664 315.156L264.765 315.215C265.495 315.636 266.888 315.61 267.945 315.001ZM275.738 318.903C275.581 318.994 275.401 319.085 275.232 319.182L271.3 316.912C270.176 317.586 270.199 318.352 271.041 318.838L271.109 318.877C271.727 319.234 272.536 319.312 273.288 319.072L274.345 319.681C272.974 320.174 271.423 320.071 270.165 319.344C268.76 318.533 268.614 317.255 270.513 316.159C272.345 315.102 274.547 315.128 276.019 315.978C277.536 316.853 277.255 318.027 275.738 318.903ZM275.154 316.49L275.064 316.438C274.412 316.062 273.311 315.906 272.154 316.432L275.041 318.099C275.783 317.632 275.985 316.97 275.154 316.49ZM276.172 322.812C274.689 321.956 274.621 321.048 275.722 320.386L276.801 321.009C276.194 321.411 276.318 321.91 276.992 322.3L277.093 322.358C277.734 322.728 278.43 322.78 278.925 322.494C279.295 322.28 279.318 322.034 278.846 321.618L278.25 321.067C277.464 320.354 277.295 319.737 278.228 319.199C279.262 318.602 280.823 318.751 282.037 319.452C283.486 320.289 283.396 321.171 282.363 321.807L281.295 321.19C281.812 320.814 281.857 320.334 281.217 319.964L281.116 319.906C280.509 319.556 279.778 319.536 279.329 319.796C278.969 320.003 279.026 320.295 279.486 320.717L280.116 321.301C280.835 321.962 280.958 322.54 280.048 323.078C279.026 323.668 277.531 323.597 276.172 322.812ZM284.83 327.681L282.707 326.455C281.875 325.975 281.841 325.514 282.673 325.034L286.201 322.998L284.381 321.947L285.257 321.441L287.077 322.492L288.898 321.441L289.965 322.057L288.145 323.108L290.201 324.295L289.325 324.801L287.268 323.614L283.954 325.527C283.538 325.767 283.538 325.897 283.954 326.137L285.729 327.162L284.83 327.681ZM289.084 330.137L287.669 329.319L289.084 328.502L290.5 329.319L289.084 330.137ZM292.9 332.34L291.484 331.522L292.9 330.705L294.316 331.522L292.9 332.34Z" fill="#585D64" fill-opacity="0.4"/>
<path d="M569 325.584L553.501 334.533L553.5 352.431L568.999 343.482L569 325.584Z" fill="#9D70FF"/>
<path d="M553.501 334.533L538.001 325.584L538.001 343.482L553.5 352.431L553.501 334.533Z" fill="#6720FF"/>
<path d="M569 325.586L553.5 316.638L538 325.586L553.5 334.534L569 325.586Z" fill="#5019C5"/>
<path d="M553.5 316.638L538.001 325.587L538 343.485M553.5 316.638L568.999 325.587L569 343.485M553.5 316.638L569 325.586L553.5 334.534L538 325.586L553.5 316.638ZM538 343.483L553.5 352.431M553.5 352.431L569 343.483M553.5 352.431L553.501 334.533M553.5 352.431L568.999 343.482L569 325.584L553.501 334.533M553.5 352.431L538.001 343.482L538.001 325.584L553.501 334.533" stroke="#3C1690" stroke-width="0.533677" stroke-linecap="round" stroke-linejoin="round"/>
<path d="M593 368.946L577.501 377.896L577.5 395.793L592.999 386.844L593 368.946Z" fill="#9D70FF"/>
<path d="M577.501 377.896L562.001 368.946L562.001 386.844L577.5 395.793L577.501 377.896Z" fill="#6720FF"/>
<path d="M593 368.948L577.5 360L562 368.948L577.5 377.897L593 368.948Z" fill="#5019C5"/>
<path d="M577.5 360L562.001 368.949L562 386.847M577.5 360L592.999 368.949L593 386.847M577.5 360L593 368.948L577.5 377.897L562 368.948L577.5 360ZM562 386.845L577.5 395.793M577.5 395.793L593 386.845M577.5 395.793L577.501 377.896M577.5 395.793L592.999 386.844L593 368.946L577.501 377.896M577.5 395.793L562.001 386.844L562.001 368.946L577.501 377.896" stroke="#3C1690" stroke-width="0.533677" stroke-linecap="round" stroke-linejoin="round"/>
<path d="M418 390.604L432.903 382L438.357 393.753L418 390.604Z" fill="#B694FF"/>
<path d="M435 430.603L449.903 422L455.357 433.752L435 430.603Z" fill="#B694FF"/>
<path d="M339 401.604L353.903 393L359.357 404.753L339 401.604Z" fill="#B694FF"/>
<path d="M487 400.604L501.903 392L507.357 403.753L487 400.604Z" fill="#B694FF"/>
<path d="M481 365.604L495.903 357L501.357 368.753L481 365.604Z" fill="#B694FF"/>
<path d="M515 353.604L529.903 345L535.357 356.753L515 353.604Z" fill="#B694FF"/>
<path d="M512 320.604L526.903 312L532.357 323.753L512 320.604Z" fill="#B694FF"/>
</svg>