<svg fill="none" xmlns="http://www.w3.org/2000/svg" viewBox="0 0 30 31" class="design-iconfont">
  <path d="M15.0788 3.68059C15.4229 2.86611 16.5771 2.86611 16.9212 3.68059L18.9508 8.48512C19.1535 8.9648 19.5352 9.34654 20.0149 9.54918L24.8194 11.5788C25.6339 11.9229 25.6339 13.0771 24.8194 13.4212L20.0149 15.4508C19.5352 15.6535 19.1535 16.0352 18.9508 16.5149L16.9212 21.3194C16.5771 22.1339 15.4229 22.1339 15.0788 21.3194L13.0492 16.5149C12.8465 16.0352 12.4648 15.6535 11.9851 15.4508L7.18059 13.4212C6.36611 13.0771 6.36611 11.9229 7.18059 11.5788L11.9851 9.54918C12.4648 9.34654 12.8465 8.9648 13.0492 8.48512L15.0788 3.68059Z" fill="#898CFC"/>
  <path d="M6.71723 20.298C6.81162 20.0316 7.18838 20.0316 7.28277 20.298L8.14892 22.7425C8.24964 23.0267 8.47326 23.2504 8.75751 23.3511L11.202 24.2172C11.4684 24.3116 11.4684 24.6884 11.202 24.7828L8.75751 25.6489C8.47326 25.7496 8.24964 25.9733 8.14892 26.2575L7.28277 28.702C7.18838 28.9684 6.81162 28.9684 6.71723 28.702L5.85108 26.2575C5.75036 25.9733 5.52674 25.7496 5.24249 25.6489L2.79804 24.7828C2.53164 24.6884 2.53164 24.3116 2.79804 24.2172L5.24249 23.3511C5.52674 23.2504 5.75036 23.0267 5.85108 22.7425L6.71723 20.298Z" fill="#898CFC"/>
</svg>
