<svg fill="none" xmlns="http://www.w3.org/2000/svg" viewBox="0 0 34 34" class="design-iconfont">
  <path d="M17.0003 28.3337C23.2596 28.3337 28.3337 23.2596 28.3337 17.0003C28.3337 10.7411 23.2596 5.66699 17.0003 5.66699C10.7411 5.66699 5.66699 10.7411 5.66699 17.0003C5.66699 23.2596 10.7411 28.3337 17.0003 28.3337Z" stroke="#898CFC" stroke-width="2" stroke-linecap="round" stroke-linejoin="round"/>
  <path d="M17 2.83301V13.458" stroke="#898CFC" stroke-width="2" stroke-linecap="round" stroke-linejoin="round"/>
  <path d="M26.917 7.08301L19.5078 14.4922" stroke="#898CFC" stroke-width="2" stroke-linecap="round" stroke-linejoin="round"/>
  <path d="M31.1665 17H20.5415" stroke="#898CFC" stroke-width="2" stroke-linecap="round" stroke-linejoin="round"/>
  <path d="M26.917 26.917L19.5078 19.5078" stroke="#898CFC" stroke-width="2" stroke-linecap="round" stroke-linejoin="round"/>
  <path d="M17 20.542V31.167" stroke="#898CFC" stroke-width="2" stroke-linecap="round" stroke-linejoin="round"/>
  <path d="M14.4922 19.5078L7.08301 26.917" stroke="#898CFC" stroke-width="2" stroke-linecap="round" stroke-linejoin="round"/>
  <path d="M13.4585 17H2.8335" stroke="#898CFC" stroke-width="2" stroke-linecap="round" stroke-linejoin="round"/>
  <path d="M14.4922 14.4922L7.08301 7.08301" stroke="#898CFC" stroke-width="2" stroke-linecap="round" stroke-linejoin="round"/>
  <path d="M16.9997 20.5413C18.9557 20.5413 20.5413 18.9557 20.5413 16.9997C20.5413 15.0437 18.9557 13.458 16.9997 13.458C15.0437 13.458 13.458 15.0437 13.458 16.9997C13.458 18.9557 15.0437 20.5413 16.9997 20.5413Z" stroke="#898CFC" stroke-width="2" stroke-linecap="round" stroke-linejoin="round"/>
</svg>
