<svg viewBox="0 0 96 36" xmlns="http://www.w3.org/2000/svg" xmlns:xlink="http://www.w3.org/1999/xlink" width="96.000000" height="36.000000" fill="none" customFrame="#000000">
	<g id="组合 314">
		<path id="矢量 477" d="M86.8108 7.55782C86.9039 6.51927 86.417 6 85.3524 6L85.2486 6C84.184 6 83.6063 6.51927 83.5132 7.55782L83.4764 7.97006C83.4749 7.98716 83.4735 8.00411 83.4723 8.02093L76.8509 8.02093C75.9292 8.02093 75.2108 8.25513 74.698 8.72354C74.1895 9.19301 73.8952 9.86806 73.8151 10.7508L73.7307 11.7067C73.642 12.6955 74.1051 13.1893 75.1177 13.1893L75.2216 13.1893C76.2299 13.1893 76.7774 12.6955 76.8661 11.7067L76.9267 11.0359L92.7785 11.0359L92.718 11.7067C92.6293 12.6955 93.0901 13.1893 94.0985 13.1893L94.2023 13.1893C95.215 13.1893 95.7646 12.6955 95.8533 11.7067L95.9377 10.7508C96.0177 9.85111 95.8382 9.17181 95.3989 8.71082C94.964 8.25089 94.2954 8.02093 93.3909 8.02093L86.7691 8.02093C86.7709 8.00411 86.7725 7.98716 86.774 7.97006L86.8108 7.55782ZM59.3827 6.28507C60.3975 6.21725 60.8952 6.66658 60.8779 7.63412L60.8627 11.7322C60.8605 12.7209 60.3434 13.2571 59.3091 13.3419L59.1988 13.3419C58.1839 13.4129 57.6841 12.9636 57.6971 11.9918L57.7187 7.89376C57.7209 6.90926 58.238 6.37303 59.2723 6.28507L59.3827 6.28507ZM66.3717 8.98318C67.2134 9.43569 67.3584 10.0917 66.8066 10.9532C64.3897 14.5511 61.5032 17.8765 58.145 20.9297C56.9493 22.0181 55.7148 23.0468 54.4417 24.0156L54.1853 26.8844L61.3907 26.8844L61.527 25.3573Q61.5936 24.621 61.9964 24.2445Q62.4181 23.8503 63.2083 23.8503L63.3121 23.8503Q64.0993 23.8503 64.45 24.2416Q64.7876 24.6182 64.7207 25.3573L64.5585 27.1949C64.4762 28.1158 64.1733 28.812 63.6497 29.2847C63.1325 29.7616 62.3947 30 61.4383 30L53.5902 30C52.6511 30 51.9587 29.7658 51.5108 29.2974C51.0673 28.8332 50.8877 28.1327 50.972 27.1949L51.0429 26.4006C49.786 27.2119 48.4951 27.9705 47.1703 28.6764C46.242 29.1416 45.5864 28.9424 45.1991 28.0808L45.1558 27.9738C44.7923 27.108 45.0649 26.434 45.9737 25.9528C47.8607 24.9537 49.6617 23.8544 51.3773 22.655L52.4586 10.5421C52.5473 9.53636 53.1055 9.03404 54.1312 9.03404L54.2415 9.03404C55.2672 9.03404 55.7345 9.53636 55.6458 10.5421L54.7972 20.0373C55.3964 19.536 55.9836 19.0206 56.5589 18.4912C59.7267 15.578 62.2627 12.598 64.1668 9.55332C64.7186 8.68751 65.4196 8.48086 66.2657 8.93231L66.3717 8.98318ZM48.4707 11.1366C49.479 11.1366 49.9399 11.6283 49.8512 12.6128L49.6868 14.4557C49.5937 15.5123 49.4379 16.6843 49.2237 17.9719C49.0138 19.2595 48.778 20.4761 48.5162 21.6206C48.2673 22.6041 47.6485 22.9919 46.6596 22.7853L46.5558 22.7853C45.595 22.5786 45.2402 21.982 45.489 20.9932Q45.8655 19.4656 46.1382 17.7186C46.3242 16.5487 46.4627 15.4614 46.5514 14.4557L46.7159 12.6128C46.8046 11.6283 47.352 11.1366 48.3604 11.1366L48.4707 11.1366ZM95.9896 15.2611C96.0762 14.2935 95.6218 13.8103 94.6264 13.8103L74.5811 13.8103C73.5858 13.8103 73.0448 14.2935 72.9583 15.2611L72.9496 15.3681C72.8631 16.3357 73.3175 16.8189 74.3128 16.8189L83.6149 16.8189L82.7397 26.6236C82.3252 26.581 81.9446 26.522 81.5983 26.4467C80.8085 26.2739 80.0966 25.9592 79.4626 25.5035C78.833 25.0425 78.2466 24.3802 77.6991 23.5144C77.6032 23.3459 77.499 23.2045 77.3866 23.09C77.7849 22.2692 78.1544 21.4329 78.4954 20.581C78.8481 19.6145 78.5473 19.0168 77.5909 18.789L77.4914 18.7381C76.5372 18.5145 75.8751 18.8685 75.5072 19.8021C74.3972 22.5013 72.9842 25.0181 71.2684 27.3528C70.6603 28.2016 70.7404 28.8936 71.5107 29.4309L71.6102 29.4807C72.413 30.0339 73.1184 29.8951 73.7243 29.0632C74.3446 28.308 75.0089 27.3429 75.7161 26.1665C76.2514 26.8453 76.8222 27.4096 77.4287 27.8593C78.3548 28.5429 79.3674 29.0229 80.4688 29.2974C81.568 29.5761 82.8273 29.7149 84.2467 29.7149L94.0033 29.7149C94.9943 29.7149 95.5331 29.2296 95.6218 28.2588L95.6304 28.1571C95.717 27.1896 95.2647 26.7063 94.2737 26.7063L85.9261 26.7063L86.2642 22.9188L92.8586 22.9188C93.8496 22.9188 94.3884 22.4334 94.475 21.4617L94.4836 21.361C94.5702 20.3892 94.1179 19.9038 93.1269 19.9038L86.5333 19.9038L86.8087 16.8189L94.3581 16.8189C95.3535 16.8189 95.8944 16.3357 95.981 15.3681L95.9896 15.2611ZM67.8993 14.1961C68.9077 14.1961 69.3686 14.6899 69.2798 15.6786L69.1154 17.5215C69.0288 18.4891 68.9769 19.5615 68.9574 20.74C68.9423 21.9131 68.9683 23.028 69.0353 24.0845C69.1067 25.068 68.6394 25.6551 67.631 25.8447L67.5207 25.8447C66.495 26.0344 65.9454 25.6381 65.874 24.6547C65.8156 23.5313 65.794 22.3253 65.8091 21.0378C65.8286 19.7459 65.887 18.5739 65.9801 17.5215L66.1445 15.6786C66.2332 14.6899 66.7807 14.1961 67.789 14.1961L67.8993 14.1961Z" fill="rgb(255,255,255)" fill-rule="evenodd" />
		<g id="组合 312">
			<path id="矢量 471" d="M9.87173 0L27.1283 0C32.5803 0 37 4.30025 37 9.60491L37 26.3951C37 31.6997 32.5803 36 27.1283 36L9.87173 36C4.41964 36 0 31.6997 0 26.3951L0 9.60491C0 4.30025 4.41964 0 9.87173 0Z" fill="rgb(77,83,232)" fill-rule="evenodd" />
			<path id="矢量 471" d="M29.9688 17.2821C28.3145 17.5381 26.7376 17.4697 25.1858 17.0934C23.6293 16.698 22.2084 16.0508 20.9624 15.1711C19.7165 14.2915 18.6432 13.1764 17.774 11.861C16.9249 10.5424 16.3687 9.10338 16.1058 7.49538C16.1045 7.48709 16.1009 7.47923 16.0956 7.47269C16.0901 7.46625 16.0829 7.46123 16.075 7.45818C16.0668 7.45523 16.058 7.45436 16.0497 7.45567C16.0414 7.45687 16.0336 7.46025 16.0271 7.46538C16.0206 7.47051 16.0156 7.47716 16.0127 7.4848C16.0098 7.49232 16.0089 7.50051 16.0102 7.50858C16.273 9.11658 16.1929 10.654 15.7862 12.1669C15.3997 13.6783 14.7446 15.0592 13.8406 16.2715C12.9365 17.4839 11.7904 18.5281 10.4384 19.3737C9.08334 20.1999 7.60423 20.7411 5.94983 20.9971C5.92507 21.0026 5.90672 21.0271 5.9107 21.0516C5.9149 21.0776 5.93999 21.0938 5.96508 21.09C7.61783 20.8341 9.19796 20.912 10.7545 21.3077C12.3078 21.6836 13.7271 22.3209 14.9731 23.2007C16.2195 24.0818 17.2824 25.1969 18.1316 26.5171C19.0009 27.8325 19.5669 29.2684 19.8299 30.878C19.8312 30.8861 19.8347 30.8936 19.84 30.9C19.8452 30.9063 19.852 30.9111 19.8599 30.914C19.8676 30.917 19.876 30.9179 19.8843 30.9165C19.8925 30.9153 19.9003 30.9119 19.9068 30.9067C19.9133 30.9016 19.9182 30.8949 19.9212 30.8874C19.9242 30.8798 19.9251 30.8715 19.9238 30.8635C19.6607 29.2539 19.7309 27.7195 20.1175 26.2098C20.5243 24.6953 21.1893 23.3128 22.093 22.0988C22.9971 20.8866 24.1431 19.8523 25.5 19.026C26.852 18.1804 28.3293 17.6293 29.9821 17.3737C30.0088 17.3694 30.0255 17.3452 30.0215 17.3207C30.0204 17.3128 30.0172 17.3053 30.0122 17.2989C30.0071 17.2926 30.0006 17.2877 29.9929 17.2848C29.9853 17.2817 29.9769 17.2809 29.9688 17.2821Z" fill="rgb(255,255,255)" fill-rule="evenodd" />
			<path id="矢量 471" d="M23.8033 6.62794C23.3931 6.59826 23.0203 6.49528 22.6713 6.32019C22.3224 6.14019 22.0203 5.9075 21.7736 5.62899C21.527 5.35037 21.3352 5.02495 21.2038 4.66288C21.0775 4.30124 21.0281 3.92684 21.0585 3.52823C21.0587 3.52615 21.0584 3.52408 21.0574 3.52223C21.0565 3.52037 21.0549 3.51874 21.0534 3.51764C21.0516 3.51644 21.0495 3.51579 21.0473 3.51568C21.0454 3.51546 21.0433 3.5159 21.0414 3.51666C21.0397 3.51754 21.038 3.51895 21.0369 3.52059C21.0357 3.52223 21.0352 3.52408 21.0349 3.52604C21.0043 3.92477 20.896 4.28772 20.7112 4.62677C20.531 4.9667 20.2945 5.26059 20.0081 5.50059C19.7216 5.74059 19.3873 5.92725 19.0152 6.05499C18.6434 6.17793 18.2585 6.22604 17.8485 6.19626C17.8422 6.19626 17.8364 6.20106 17.836 6.20717C17.8354 6.21361 17.8404 6.21884 17.8467 6.21939C18.2564 6.24906 18.6295 6.35444 18.9785 6.53444C19.3278 6.70954 19.63 6.93983 19.8767 7.21844C20.1233 7.49739 20.3126 7.82226 20.4391 8.18423C20.5703 8.5463 20.6222 8.92048 20.5918 9.31954C20.5916 9.3215 20.5919 9.32346 20.5928 9.32532C20.5937 9.32706 20.595 9.32859 20.5968 9.32968C20.5984 9.33088 20.6004 9.33154 20.6025 9.33164C20.6046 9.33175 20.6066 9.33143 20.6084 9.33055C20.6104 9.32968 20.6118 9.32837 20.613 9.32673C20.6141 9.3251 20.6149 9.32314 20.615 9.32117C20.6455 8.92212 20.7513 8.55939 20.9314 8.2199C21.1164 7.88041 21.3555 7.58663 21.6417 7.34619C21.9282 7.10619 22.262 6.92204 22.6342 6.7991C23.0063 6.67135 23.3913 6.62084 23.801 6.65052C23.8077 6.65095 23.8131 6.64615 23.8135 6.64004C23.8138 6.63808 23.8134 6.63612 23.8125 6.63437C23.8118 6.63263 23.8104 6.63099 23.8089 6.6299C23.8071 6.62881 23.8051 6.62804 23.8031 6.62794L23.8033 6.62794Z" fill="rgb(255,255,255)" fill-rule="evenodd" />
		</g>
	</g>
</svg>
