<svg viewBox="0 0 63 69" xmlns="http://www.w3.org/2000/svg" xmlns:xlink="http://www.w3.org/1999/xlink" width="63.000000" height="69.000000" fill="none" customFrame="#000000">
	<defs>
		<linearGradient id="paint_linear_0" x1="63.0000496" x2="31.5074539" y1="30.0836849" y2="42.6144104" gradientUnits="userSpaceOnUse">
			<stop stop-color="rgb(235,162,255)" offset="0" stop-opacity="1" />
			<stop stop-color="rgb(120,129,250)" offset="1" stop-opacity="1" />
		</linearGradient>
		<linearGradient id="paint_linear_1" x1="51.0029068" x2="69.7906952" y1="1.79478168" y2="15.6853905" gradientUnits="userSpaceOnUse">
			<stop stop-color="rgb(225,223,253)" offset="0" stop-opacity="1" />
			<stop stop-color="rgb(163,178,252)" offset="1" stop-opacity="1" />
		</linearGradient>
		<linearGradient id="paint_linear_2" x1="10.8943615" x2="35.1840515" y1="4.72551203" y2="35.7283669" gradientUnits="userSpaceOnUse">
			<stop stop-color="rgb(255,216,186)" offset="0" stop-opacity="1" />
			<stop stop-color="rgb(233,132,252)" offset="1" stop-opacity="1" />
		</linearGradient>
		<linearGradient id="paint_linear_3" x1="56.0504379" x2="36.0849457" y1="19.3720703" y2="51.4298248" gradientUnits="userSpaceOnUse">
			<stop stop-color="rgb(32,117,255)" offset="0" stop-opacity="1" />
			<stop stop-color="rgb(255,232,216)" offset="0.837222993" stop-opacity="1" />
		</linearGradient>
		<linearGradient id="paint_linear_4" x1="-0.166327477" x2="0.998403549" y1="8.05850029" y2="27.9596272" gradientUnits="userSpaceOnUse">
			<stop stop-color="rgb(225,223,253)" offset="0" stop-opacity="1" />
			<stop stop-color="rgb(163,178,252)" offset="1" stop-opacity="1" />
		</linearGradient>
		<linearGradient id="paint_linear_5" x1="22.2243671" x2="6.08190155" y1="24.9157295" y2="63.3838882" gradientUnits="userSpaceOnUse">
			<stop stop-color="rgb(68,112,255)" offset="0" stop-opacity="1" />
			<stop stop-color="rgb(130,130,255)" offset="0.983952999" stop-opacity="1" />
		</linearGradient>
		<linearGradient id="paint_linear_6" x1="27.3239727" x2="27.3168011" y1="67.9348831" y2="67.9934006" gradientUnits="userSpaceOnUse">
			<stop stop-color="rgb(225,223,254)" offset="0" stop-opacity="1" />
			<stop stop-color="rgb(163,179,253)" offset="1" stop-opacity="1" />
		</linearGradient>
		<linearGradient id="paint_linear_7" x1="32.6349106" x2="22.8383579" y1="48.5203476" y2="64.9603882" gradientUnits="userSpaceOnUse">
			<stop stop-color="rgb(225,223,254)" offset="0" stop-opacity="1" />
			<stop stop-color="rgb(163,179,253)" offset="1" stop-opacity="1" />
		</linearGradient>
	</defs>
	<g id="组合 281">
		<path id="矢量 422" d="M49.5646 60.0686L58.5539 54.9543C61.3059 53.3883 63 50.4932 63 47.3611L63 21.6285C63 21.0766 62.9443 20.5334 62.8418 20.0018C62.8418 20.0018 62.5516 18.3433 61.6341 16.9651C61.6341 16.968 61.6371 16.9737 61.64 16.9766C62.1677 18.2248 62.3844 19.5857 62.2937 20.935C62.2145 22.1139 61.9127 23.5124 61.2298 25.0812C60.9336 25.7083 60.2421 26.9333 58.9289 28.2048C53.6239 33.0443 38.776 41.7933 28.9603 47.3669C28.3858 47.6934 28.3888 48.5052 28.9603 48.8319L48.7058 60.0686C48.9726 60.2188 49.3008 60.2188 49.5646 60.0686Z" fill="url(#paint_linear_0)" fill-rule="nonzero" />
		<path id="矢量 425" d="M58.9267 28.2032C60.2428 26.9346 60.9314 25.7067 61.2275 25.0799C61.9105 23.5109 62.2123 22.1124 62.2914 20.9335C62.3824 19.5842 62.1654 18.2234 61.6378 16.9751C61.6378 16.9722 61.6378 16.9694 61.6348 16.9665C60.8757 15.7761 59.8296 14.7648 58.5517 14.0367L52.382 10.5232C51.8076 10.1967 51.0923 10.6041 51.0923 11.2571L51.0923 34.008C54.3927 31.8177 57.1771 29.7981 58.9267 28.2032Z" fill="url(#paint_linear_1)" fill-rule="nonzero" />
		<path id="矢量 426" d="M44.9312 6.28869L35.942 1.17452C33.1899 -0.391506 29.8017 -0.391506 27.0496 1.17452L4.44628 14.0379C3.95972 14.3153 3.51131 14.6331 3.09512 14.9856C3.09512 14.9856 1.77913 16.0605 1.02588 17.534C1.02588 17.5311 1.03174 17.5282 1.03467 17.5225C1.86706 16.4476 2.95443 15.5808 4.18542 14.9856C5.26105 14.4626 6.6386 14.0235 8.35905 13.8212C9.05662 13.7605 10.481 13.7374 12.2513 14.2257C19.1566 16.3349 34.2654 24.636 44.0695 30.2298C44.644 30.5562 45.356 30.146 45.356 29.496L45.356 7.02256C45.356 6.7192 45.1921 6.43892 44.9253 6.28869L44.9312 6.28869Z" fill="url(#paint_linear_2)" fill-rule="nonzero" />
		<path id="矢量 427" d="M44.9312 6.28869L35.942 1.17452C33.1899 -0.391506 29.8017 -0.391506 27.0496 1.17452L4.44628 14.0379C3.95972 14.3153 3.51131 14.6331 3.09512 14.9856C3.09512 14.9856 1.77913 16.0605 1.02588 17.534C1.02588 17.5311 1.03174 17.5282 1.03467 17.5225C1.86706 16.4476 2.95443 15.5808 4.18542 14.9856C5.26105 14.4626 6.6386 14.0235 8.35905 13.8212C9.05662 13.7605 10.481 13.7374 12.2513 14.2257C19.1566 16.3349 34.2654 24.636 44.0695 30.2298C44.644 30.5562 45.356 30.146 45.356 29.496L45.356 7.02256C45.356 6.7192 45.1921 6.43892 44.9253 6.28869L44.9312 6.28869Z" fill="url(#paint_linear_3)" fill-rule="nonzero" />
		<path id="矢量 429" d="M12.2574 14.2292C10.4842 13.7409 9.06265 13.7641 8.36509 13.8247C6.64464 14.027 5.26712 14.4662 4.19146 14.9891C2.96047 15.5872 1.8731 16.4511 1.04072 17.526C1.04072 17.526 1.03779 17.5318 1.03486 17.5347C0.369542 18.7771 0.00317383 20.1784 0.00317383 21.6318L0.00317383 28.6557C0.00317383 29.3088 0.71832 29.7162 1.29278 29.3898L21.2788 18.0143C17.703 16.2922 14.5376 14.9227 12.2603 14.2292L12.2574 14.2292Z" fill="url(#paint_linear_4)" fill-rule="nonzero" />
		<path id="矢量 430" d="M0 37.1314L0 47.3626C0 50.4947 1.69407 53.3898 4.44621 54.9558L27.0524 67.8222C27.5388 68.0996 28.043 68.3219 28.5618 68.5011L28.5588 68.5011C28.5588 68.5011 30.1652 69.0849 31.8356 68.9894C31.8299 68.9894 31.827 68.9894 31.8211 68.9894C30.461 68.8161 29.1567 68.319 28.0167 67.568C27.0201 66.909 25.9445 65.9558 24.907 64.5861C24.5054 64.0198 23.7727 62.8178 23.3155 61.061C21.7182 54.1121 21.4544 37.0622 21.4661 25.8947C21.4661 25.2419 20.7509 24.8372 20.1765 25.1639L0.430845 36.3976C0.164131 36.5478 0 36.8281 0 37.1314Z" fill="url(#paint_linear_5)" fill-rule="nonzero" />
		<path id="矢量 432" d="M27.3711 67.9922C27.3388 67.9747 27.3065 67.9604 27.2742 67.9431C27.3065 67.9604 27.3388 67.9776 27.3711 67.9922Z" fill="url(#paint_linear_6)" fill-rule="nonzero" />
		<path id="矢量 433" d="M42.1179 62.8406L22.1318 51.4653C22.4073 55.3774 22.7883 58.7666 23.3159 61.058C23.7731 62.8146 24.5059 64.0194 24.9074 64.5828C25.945 65.9525 27.0207 66.906 28.0173 67.5647C29.1573 68.316 30.4616 68.8131 31.8214 68.9864C31.8243 68.9864 31.8273 68.9864 31.8303 68.9864C33.2546 68.9343 34.6704 68.5442 35.9453 67.8189L42.1149 64.3055C42.6894 63.9791 42.6894 63.1643 42.1149 62.8376L42.1179 62.8406Z" fill="url(#paint_linear_7)" fill-rule="nonzero" />
	</g>
</svg>
