<svg viewBox="0 0 939 414" xmlns="http://www.w3.org/2000/svg" xmlns:xlink="http://www.w3.org/1999/xlink" width="939.000000" height="414.000000" fill="none" customFrame="#000000">
	<defs>
		<linearGradient id="paint_linear_6" x1="87.8684006" x2="334.249664" y1="302.819641" y2="89.5623779" gradientUnits="userSpaceOnUse">
			<stop stop-color="rgb(33,123,254)" offset="0" stop-opacity="1" />
			<stop stop-color="rgb(7,142,251)" offset="0.270000011" stop-opacity="1" />
			<stop stop-color="rgb(161,144,255)" offset="0.77700001" stop-opacity="1" />
			<stop stop-color="rgb(189,153,254)" offset="1" stop-opacity="1" />
		</linearGradient>
		<linearGradient id="paint_linear_7" x1="86.6778564" x2="332.582672" y1="300.791382" y2="86.3157349" gradientUnits="userSpaceOnUse">
			<stop stop-color="rgb(33,123,254)" offset="0" stop-opacity="1" />
			<stop stop-color="rgb(7,142,251)" offset="0.270000011" stop-opacity="1" />
			<stop stop-color="rgb(161,144,255)" offset="0.77700001" stop-opacity="1" />
			<stop stop-color="rgb(189,153,254)" offset="1" stop-opacity="1" />
		</linearGradient>
	</defs>
	<g id="logo-full">
		<g id="组合 332">
			<path id="矢量 480" d="M362.07 208.556C337.174 212.412 313.442 211.381 290.089 205.712C266.663 199.754 245.28 190.003 226.528 176.748C207.778 163.495 191.625 146.693 178.544 126.873C165.766 107.005 157.395 85.3227 153.44 61.0943C153.42 60.9694 153.365 60.851 153.285 60.7524C153.204 60.6554 153.094 60.5798 152.976 60.5338C152.853 60.4894 152.72 60.4763 152.595 60.496C152.47 60.5141 152.352 60.565 152.255 60.6423C152.157 60.7195 152.082 60.8198 152.038 60.9349C151.994 61.0483 151.981 61.1716 152.001 61.2932C155.955 85.5216 154.751 108.687 148.629 131.482C142.812 154.255 132.953 175.062 119.35 193.328C105.743 211.595 88.4951 227.329 68.1482 240.071C47.7548 252.519 25.495 260.673 0.597009 264.531C0.224406 264.613 -0.0517152 264.983 0.00818559 265.351C0.071386 265.744 0.44897 265.987 0.826586 265.93C25.6996 262.075 49.4798 263.249 72.9056 269.211C96.2815 274.875 117.641 284.477 136.393 297.732C155.15 311.009 171.147 327.811 183.927 347.703C197.01 367.523 205.526 389.158 209.485 413.411C209.505 413.533 209.557 413.646 209.637 413.741C209.715 413.837 209.818 413.909 209.936 413.953C210.052 413.998 210.179 414.011 210.304 413.991C210.427 413.973 210.545 413.92 210.643 413.843C210.739 413.766 210.814 413.666 210.859 413.552C210.904 413.437 210.917 413.312 210.897 413.192C206.938 388.939 207.995 365.82 213.813 343.073C219.935 320.253 229.943 299.422 243.544 281.131C257.15 262.866 274.397 247.282 294.817 234.831C315.163 222.09 337.397 213.786 362.27 209.935C362.672 209.871 362.923 209.506 362.863 209.136C362.847 209.018 362.799 208.904 362.724 208.809C362.647 208.714 362.549 208.64 362.433 208.595C362.318 208.549 362.192 208.538 362.07 208.556Z" fill="url(#paint_linear_6)" fill-rule="evenodd" />
			<path id="矢量 481" d="M268.94 46.754C262.738 46.3082 257.101 44.7612 251.826 42.1309C246.55 39.4269 241.983 35.9314 238.253 31.7475C234.524 27.5621 231.625 22.6735 229.638 17.2344C227.728 11.8018 226.981 6.17745 227.44 0.189295C227.444 0.158163 227.439 0.12703 227.424 0.0991644C227.41 0.0712984 227.387 0.04673 227.364 0.0303354C227.337 0.0123155 227.305 0.00246934 227.272 0.000843953C227.243 -0.00243809 227.212 0.00411036 227.183 0.0155819C227.156 0.0286944 227.131 0.0499964 227.115 0.0745804C227.096 0.0991644 227.088 0.12703 227.085 0.156522C226.622 6.14632 224.984 11.5986 222.19 16.6919C219.466 21.7984 215.89 26.2133 211.56 29.8187C207.228 33.424 202.173 36.228 196.548 38.147C190.926 39.9939 185.107 40.7167 178.907 40.2693C178.812 40.2693 178.725 40.3414 178.719 40.4331C178.71 40.5298 178.785 40.6085 178.881 40.6167C185.076 41.0625 190.716 42.6455 195.993 45.3495C201.274 47.9798 205.843 51.4393 209.573 55.6248C213.301 59.8152 216.164 64.6955 218.075 70.133C220.059 75.5722 220.845 81.1932 220.385 87.1879C220.382 87.2174 220.387 87.2469 220.4 87.2748C220.413 87.301 220.433 87.3239 220.46 87.3403C220.485 87.3583 220.515 87.3682 220.547 87.3698C220.579 87.3715 220.609 87.3666 220.636 87.3534C220.666 87.3403 220.687 87.3207 220.706 87.2961C220.723 87.2715 220.734 87.242 220.736 87.2125C221.197 81.2178 222.796 75.7688 225.519 70.6689C228.316 65.569 231.931 61.1557 236.259 57.5438C240.591 53.9384 245.637 51.1722 251.264 49.3252C256.891 47.4062 262.711 46.6474 268.906 47.0932C269.007 47.0998 269.089 47.0276 269.095 46.9359C269.099 46.9064 269.094 46.8769 269.08 46.8507C269.068 46.8244 269.048 46.7999 269.025 46.7835C268.998 46.7671 268.968 46.7556 268.938 46.754L268.94 46.754Z" fill="url(#paint_linear_7)" fill-rule="evenodd" />
		</g>
		<path id="矢量 489" d="M583.892 103.5C584.358 103.5 584.59 103.71 584.59 104.13L590.747 172.115Q590.747 172.492 590.559 172.664Q590.401 172.808 590.112 172.808L568.215 174.761C567.792 174.761 567.581 174.53 567.581 174.068L561.361 106.083Q561.361 105.739 561.533 105.566Q561.707 105.39 562.059 105.39L583.892 103.5ZM939 105.705C939 105.285 938.767 105.075 938.302 105.075L916.088 105.075C915.622 105.075 915.39 105.285 915.39 105.705L915.39 313.44L888.352 313.44C887.887 313.44 887.654 313.671 887.654 314.133L887.654 337.635C887.654 338.055 887.887 338.265 888.352 338.265L938.302 338.265C938.767 338.265 939 338.055 939 337.635L939 105.705ZM804.083 107.954Q803.811 107.517 803.113 107.343L755.702 107.343C755.491 107.469 755.3 107.553 755.131 107.595C755.004 107.595 754.856 107.7 754.687 107.911C748.34 123.074 740.66 137.272 731.647 150.503C722.677 163.735 712.628 175.517 701.5 185.851C701.077 186.103 701.013 186.376 701.309 186.67L715.844 202.673C716.013 202.884 716.182 202.968 716.352 202.926Q716.605 202.8 716.859 202.547C720.876 198.866 724.79 194.968 728.601 190.853L728.601 336.249C728.601 336.459 728.643 336.627 728.728 336.753C728.855 336.879 729.024 336.942 729.236 336.942L844.432 336.942C844.643 336.942 844.812 336.879 844.939 336.753C845.066 336.627 845.13 336.459 845.13 336.249L845.13 290.128C845.13 289.666 844.897 289.435 844.432 289.435L822.598 289.435C822.133 289.435 821.9 289.666 821.9 290.128L821.9 314.259L751.767 314.259L751.767 211.684L807.112 211.684L807.112 255.159L786.865 255.159C786.442 255.159 786.231 255.369 786.231 255.789L786.231 277.148C786.231 277.61 786.442 277.841 786.865 277.841L829.643 277.841C829.855 277.841 830.024 277.778 830.151 277.652C830.278 277.526 830.341 277.358 830.341 277.148L830.341 190.92C834.002 194.889 837.747 198.681 841.575 202.295C841.956 202.673 842.295 202.716 842.591 202.421L857.506 186.922C857.802 186.628 857.739 186.355 857.316 186.103Q840.496 170.162 826.914 150.377C817.902 137.188 810.307 123.074 804.129 108.037Q804.108 107.994 804.083 107.954ZM828.534 188.938C822.929 182.724 817.523 176.087 812.316 169.028C803.219 156.594 795.412 143.594 788.896 130.026L769.729 130.026C763.043 143.762 755.173 156.888 746.118 169.406C741.079 176.372 735.824 182.882 730.352 188.938L828.534 188.938ZM884.925 125.49C884.925 125.07 884.692 124.859 884.227 124.859L862.393 124.859C861.928 124.859 861.695 125.07 861.695 125.49L861.695 286.599C861.695 287.019 861.928 287.229 862.393 287.229L884.227 287.229C884.692 287.229 884.925 287.019 884.925 286.599L884.925 125.49ZM654.279 134.941C654.702 135.235 654.808 135.571 654.596 135.949Q653.987 137.096 653.372 138.239Q653.321 138.334 653.269 138.429Q621.582 197.229 572.849 246.842Q555.267 264.719 536.1 280.385L536.1 313.062L617.784 313.062L617.784 282.693C617.784 282.231 617.996 282 618.419 282L640.633 282C641.099 282 641.331 282.231 641.331 282.693L641.331 335.808C641.331 336.018 641.268 336.165 641.141 336.249C641.056 336.375 640.887 336.438 640.633 336.438L513.251 336.438C512.997 336.438 512.807 336.375 512.68 336.249C512.595 336.165 512.553 336.018 512.553 335.808L512.553 298.373Q487.795 316.024 460.636 330.326C460.255 330.578 459.916 330.473 459.62 330.011L449.656 310.983Q449.487 310.705 449.53 310.463L449.53 310.463Q449.583 310.158 449.973 309.912Q482.874 292.696 511.904 270.432Q512.23 270.181 512.553 269.933L512.553 131.601C512.553 131.139 512.786 130.908 513.251 130.908L535.402 130.908Q535.754 130.908 535.928 131.084Q536.1 131.257 536.1 131.601L536.1 250.399Q546.671 240.963 556.664 230.775Q597.118 189.53 625.282 141.133L625.287 141.125Q629.819 133.337 634.032 125.364C634.329 124.943 634.667 124.838 635.048 125.049L654.279 134.941ZM482.152 151.827C482.575 151.827 482.786 152.058 482.786 152.52L482.786 184.842Q482.786 204.375 480.374 228.002Q478.026 251.567 473.583 269.272C473.414 269.86 473.097 270.133 472.631 270.091L451.306 265.303Q450.954 265.271 450.796 265.08Q450.64 264.891 450.671 264.547Q454.797 247.724 457.208 225.482Q459.62 203.241 459.62 184.842L459.62 152.52C459.62 152.058 459.832 151.827 460.255 151.827L482.152 151.827ZM675.414 182.259C675.88 182.259 676.112 182.49 676.112 182.952L676.112 215.338Q676.112 233.043 678.397 255.285C679.963 270.07 681.994 283.323 684.49 295.042C684.786 295.588 684.638 295.903 684.046 295.987L662.72 300.335C662.255 300.419 662.001 300.23 661.959 299.768C659.166 287.754 656.945 273.851 655.294 258.057C653.687 242.221 652.883 227.981 652.883 215.338L652.883 182.952C652.883 182.49 653.115 182.259 653.581 182.259L675.414 182.259Z" fill="rgb(0,0,0)" fill-rule="evenodd" />
	</g>
</svg>
