<svg viewBox="0 0 79 79" xmlns="http://www.w3.org/2000/svg" xmlns:xlink="http://www.w3.org/1999/xlink" width="79.000000" height="79.000000" fill="none" customFrame="#000000">
	<defs>
		<linearGradient id="paint_linear_0" x1="25.0864105" x2="60.823185" y1="51.6547318" y2="21.5225716" gradientUnits="userSpaceOnUse">
			<stop stop-color="rgb(33,123,254)" offset="0" stop-opacity="1" />
			<stop stop-color="rgb(7,142,251)" offset="0.270000011" stop-opacity="1" />
			<stop stop-color="rgb(161,144,255)" offset="0.77700001" stop-opacity="1" />
			<stop stop-color="rgb(189,153,254)" offset="1" stop-opacity="1" />
		</linearGradient>
		<linearGradient id="paint_linear_1" x1="25.0864105" x2="60.823185" y1="51.6547318" y2="21.5225716" gradientUnits="userSpaceOnUse">
			<stop stop-color="rgb(33,123,254)" offset="0" stop-opacity="1" />
			<stop stop-color="rgb(7,142,251)" offset="0.270000011" stop-opacity="1" />
			<stop stop-color="rgb(161,144,255)" offset="0.77700001" stop-opacity="1" />
			<stop stop-color="rgb(189,153,254)" offset="1" stop-opacity="1" />
		</linearGradient>
	</defs>
	<path id="矢量 472" d="M18.3426 0L60.6574 0C70.7895 0 79 8.2128 79 18.3426L79 60.6574C79 70.7872 70.7895 79 60.6574 79L18.3426 79C8.21046 79 0 70.7872 0 60.6574L0 18.3426C0 8.2128 8.21046 0 18.3426 0Z" fill="rgb(9,0,23)" fill-rule="evenodd" />
	<path id="矢量 472" d="M62.3453 36.1195C59.1378 36.6151 56.0846 36.4842 53.0781 35.7548C50.0623 34.988 47.313 33.7326 44.9004 32.0283C42.4831 30.324 40.4071 28.1639 38.7238 25.6133C37.078 23.058 36.0026 20.269 35.493 17.155C35.4883 17.1386 35.4836 17.1223 35.4696 17.1106C35.4602 17.0966 35.4462 17.0872 35.4322 17.0825C35.4181 17.0755 35.3994 17.0732 35.3807 17.0779C35.3667 17.0802 35.3527 17.0849 35.3387 17.0966C35.3246 17.1059 35.3153 17.1176 35.3106 17.134C35.3059 17.148 35.3059 17.1644 35.3059 17.1784C35.8156 20.2947 35.6613 23.2755 34.8711 26.2071C34.123 29.1364 32.8559 31.8109 31.1025 34.1604C29.3538 36.5099 27.1329 38.5345 24.5145 40.1733C21.8915 41.7747 19.0253 42.8221 15.8224 43.32C15.771 43.3294 15.7383 43.3761 15.743 43.4252C15.7523 43.4743 15.7991 43.507 15.8505 43.5C19.0487 43.0044 22.1112 43.154 25.127 43.9208C28.1335 44.6502 30.8828 45.8846 33.2954 47.5889C35.7127 49.2979 37.77 51.458 39.4158 54.0156C41.0991 56.5662 42.1932 59.3482 42.7028 62.4669C42.7075 62.4832 42.7122 62.4972 42.7262 62.5089C42.7356 62.523 42.7496 62.5323 42.7636 62.537C42.7776 62.5417 42.7963 62.544 42.8104 62.5417C42.8244 62.5393 42.8431 62.5323 42.8525 62.523C42.8665 62.5136 42.8758 62.4996 42.8805 62.4856C42.8899 62.4715 42.8899 62.4552 42.8852 62.4388C42.3755 59.3201 42.5111 56.3464 43.2639 53.4218C44.0494 50.4855 45.3399 47.8063 47.0886 45.4545C48.8373 43.1049 51.0582 41.1014 53.686 39.5C56.3043 37.8612 59.1658 36.7928 62.3687 36.2972C62.4201 36.2878 62.4528 36.2411 62.4435 36.1943C62.4435 36.1803 62.4388 36.1639 62.4295 36.1522C62.4154 36.1405 62.4061 36.1312 62.392 36.1242C62.3733 36.1195 62.3593 36.1172 62.3453 36.1195L62.3453 36.1195Z" fill="rgb(9,0,23)" fill-rule="evenodd" />
	<path id="矢量 472" d="M62.3453 36.1195C59.1378 36.6151 56.0846 36.4842 53.0781 35.7548C50.0623 34.988 47.313 33.7326 44.9004 32.0283C42.4831 30.324 40.4071 28.1639 38.7238 25.6133C37.078 23.058 36.0026 20.269 35.493 17.155C35.4883 17.1386 35.4836 17.1223 35.4696 17.1106C35.4602 17.0966 35.4462 17.0872 35.4322 17.0825C35.4181 17.0755 35.3994 17.0732 35.3807 17.0779C35.3667 17.0802 35.3527 17.0849 35.3387 17.0966C35.3246 17.1059 35.3153 17.1176 35.3106 17.134C35.3059 17.148 35.3059 17.1644 35.3059 17.1784C35.8156 20.2947 35.6613 23.2755 34.8711 26.2071C34.123 29.1364 32.8559 31.8109 31.1025 34.1604C29.3538 36.5099 27.1329 38.5345 24.5145 40.1733C21.8915 41.7747 19.0253 42.8221 15.8224 43.32C15.771 43.3294 15.7383 43.3761 15.743 43.4252C15.7523 43.4743 15.7991 43.507 15.8505 43.5C19.0487 43.0044 22.1112 43.154 25.127 43.9208C28.1335 44.6502 30.8828 45.8846 33.2954 47.5889C35.7127 49.2979 37.77 51.458 39.4158 54.0156C41.0991 56.5662 42.1932 59.3482 42.7028 62.4669C42.7075 62.4832 42.7122 62.4972 42.7262 62.5089C42.7356 62.523 42.7496 62.5323 42.7636 62.537C42.7776 62.5417 42.7963 62.544 42.8104 62.5417C42.8244 62.5393 42.8431 62.5323 42.8525 62.523C42.8665 62.5136 42.8758 62.4996 42.8805 62.4856C42.8899 62.4715 42.8899 62.4552 42.8852 62.4388C42.3755 59.3201 42.5111 56.3464 43.2639 53.4218C44.0494 50.4855 45.3399 47.8063 47.0886 45.4545C48.8373 43.1049 51.0582 41.1014 53.686 39.5C56.3043 37.8612 59.1658 36.7928 62.3687 36.2972C62.4201 36.2878 62.4528 36.2411 62.4435 36.1943C62.4435 36.1803 62.4388 36.1639 62.4295 36.1522C62.4154 36.1405 62.4061 36.1312 62.392 36.1242C62.3733 36.1195 62.3593 36.1172 62.3453 36.1195L62.3453 36.1195Z" fill="url(#paint_linear_0)" fill-rule="evenodd" />
	<path id="矢量 472" d="M50.399 15.4718C49.6041 15.4157 48.8794 15.2146 48.2061 14.8756C47.5281 14.5273 46.9437 14.0761 46.4667 13.536C45.9898 12.996 45.6158 12.3671 45.3633 11.6634C45.1202 10.9644 45.022 10.2374 45.0827 9.46588C45.0827 9.4612 45.0827 9.45653 45.0781 9.45419C45.0781 9.44952 45.0734 9.44718 45.0734 9.44484C45.0687 9.4425 45.064 9.4425 45.0594 9.44016C45.0547 9.44016 45.0547 9.4425 45.05 9.4425C45.0453 9.44484 45.0407 9.44718 45.0407 9.45185C45.036 9.45419 45.036 9.45653 45.036 9.4612C44.9752 10.235 44.7695 10.9364 44.4094 11.5956C44.0588 12.2526 43.6006 12.823 43.0488 13.2882C42.4924 13.7535 41.8472 14.1135 41.1225 14.3613C40.4024 14.5998 39.659 14.6933 38.8641 14.6372C38.8501 14.6348 38.8407 14.6465 38.8407 14.6582C38.8407 14.6699 38.8501 14.6792 38.8594 14.6816C39.6543 14.7377 40.379 14.9434 41.0523 15.2918C41.7303 15.6307 42.3148 16.0773 42.7917 16.6173C43.2686 17.1573 43.638 17.7862 43.8811 18.4876C44.1383 19.1913 44.2364 19.916 44.1757 20.6875C44.1757 20.6921 44.1803 20.6968 44.1803 20.6992C44.1803 20.7038 44.185 20.7062 44.1897 20.7085C44.1897 20.7108 44.1944 20.7108 44.199 20.7132C44.2037 20.7132 44.2084 20.7108 44.2084 20.7108C44.2131 20.7085 44.2177 20.7062 44.2177 20.7015C44.2224 20.6992 44.2224 20.6945 44.2224 20.6921C44.2832 19.9183 44.4889 19.2146 44.8349 18.5577C45.195 17.9008 45.6579 17.3303 46.2096 16.8651C46.766 16.3999 47.4112 16.0422 48.136 15.8037C48.856 15.5559 49.5994 15.4577 50.3943 15.5162C50.4083 15.5162 50.4177 15.5068 50.4177 15.4951C50.4177 15.4928 50.4177 15.4881 50.4177 15.4858C50.413 15.4811 50.413 15.4788 50.4083 15.4764C50.4036 15.4741 50.4036 15.4718 50.399 15.4718L50.399 15.4718Z" fill="rgb(9,0,23)" fill-rule="evenodd" />
	<path id="矢量 472" d="M50.399 15.4718C49.6041 15.4157 48.8794 15.2146 48.2061 14.8756C47.5281 14.5273 46.9437 14.0761 46.4667 13.536C45.9898 12.996 45.6158 12.3671 45.3633 11.6634C45.1202 10.9644 45.022 10.2374 45.0827 9.46588C45.0827 9.4612 45.0827 9.45653 45.0781 9.45419C45.0781 9.44952 45.0734 9.44718 45.0734 9.44484C45.0687 9.4425 45.064 9.4425 45.0594 9.44016C45.0547 9.44016 45.0547 9.4425 45.05 9.4425C45.0453 9.44484 45.0407 9.44718 45.0407 9.45185C45.036 9.45419 45.036 9.45653 45.036 9.4612C44.9752 10.235 44.7695 10.9364 44.4094 11.5956C44.0588 12.2526 43.6006 12.823 43.0488 13.2882C42.4924 13.7535 41.8472 14.1135 41.1225 14.3613C40.4024 14.5998 39.659 14.6933 38.8641 14.6372C38.8501 14.6348 38.8407 14.6465 38.8407 14.6582C38.8407 14.6699 38.8501 14.6792 38.8594 14.6816C39.6543 14.7377 40.379 14.9434 41.0523 15.2918C41.7303 15.6307 42.3148 16.0773 42.7917 16.6173C43.2686 17.1573 43.638 17.7862 43.8811 18.4876C44.1383 19.1913 44.2364 19.916 44.1757 20.6875C44.1757 20.6921 44.1803 20.6968 44.1803 20.6992C44.1803 20.7038 44.185 20.7062 44.1897 20.7085C44.1897 20.7108 44.1944 20.7108 44.199 20.7132C44.2037 20.7132 44.2084 20.7108 44.2084 20.7108C44.2131 20.7085 44.2177 20.7062 44.2177 20.7015C44.2224 20.6992 44.2224 20.6945 44.2224 20.6921C44.2832 19.9183 44.4889 19.2146 44.8349 18.5577C45.195 17.9008 45.6579 17.3303 46.2096 16.8651C46.766 16.3999 47.4112 16.0422 48.136 15.8037C48.856 15.5559 49.5994 15.4577 50.3943 15.5162C50.4083 15.5162 50.4177 15.5068 50.4177 15.4951C50.4177 15.4928 50.4177 15.4881 50.4177 15.4858C50.413 15.4811 50.413 15.4788 50.4083 15.4764C50.4036 15.4741 50.4036 15.4718 50.399 15.4718L50.399 15.4718Z" fill="url(#paint_linear_1)" fill-rule="evenodd" />
</svg>
