<svg viewBox="0 0 332 332" xmlns="http://www.w3.org/2000/svg" xmlns:xlink="http://www.w3.org/1999/xlink" width="332.000000" height="332.000000" fill="none" customFrame="#000000">
	<defs>
		<linearGradient id="paint_linear_0" x1="118.504364" x2="245.209579" y1="215.530701" y2="107.063728" gradientUnits="userSpaceOnUse">
			<stop stop-color="rgb(33,123,254)" offset="0" stop-opacity="1" />
			<stop stop-color="rgb(7,142,251)" offset="0.270000011" stop-opacity="1" />
			<stop stop-color="rgb(161,144,255)" offset="0.77700001" stop-opacity="1" />
			<stop stop-color="rgb(189,153,254)" offset="1" stop-opacity="1" />
		</linearGradient>
		<linearGradient id="paint_linear_1" x1="117.897964" x2="244.368546" y1="214.485931" y2="105.390259" gradientUnits="userSpaceOnUse">
			<stop stop-color="rgb(33,123,254)" offset="0" stop-opacity="1" />
			<stop stop-color="rgb(7,142,251)" offset="0.270000011" stop-opacity="1" />
			<stop stop-color="rgb(161,144,255)" offset="0.77700001" stop-opacity="1" />
			<stop stop-color="rgb(189,153,254)" offset="1" stop-opacity="1" />
		</linearGradient>
	</defs>
	<g id="组合 321">
		<rect id="矩形 130" width="332.000000" height="332.000000" x="0.000000" y="0.000000" rx="19.000000" fill="rgb(255,255,255)" fill-opacity="0" />
		<g id="组合 316">
			<path id="矢量 480" d="M258.198 166.974C245.515 168.961 233.424 168.43 221.527 165.51C209.593 162.44 198.699 157.418 189.146 150.59C179.593 143.763 171.364 135.108 164.7 124.899C158.19 114.665 153.925 103.496 151.91 91.0156C151.9 90.9513 151.872 90.8903 151.831 90.8395C151.79 90.7895 151.734 90.7506 151.674 90.7269C151.611 90.704 151.543 90.6973 151.48 90.7074C151.416 90.7167 151.356 90.743 151.307 90.7828C151.257 90.8226 151.219 90.8742 151.196 90.9335C151.174 90.9919 151.167 91.0554 151.177 91.1181C153.191 103.598 152.578 115.531 149.459 127.273C146.496 139.004 141.473 149.721 134.543 159.131C127.611 168.54 118.824 176.645 108.458 183.208C98.0682 189.62 86.7278 193.821 74.0434 195.808C73.8536 195.85 73.7129 196.041 73.7434 196.23C73.7756 196.433 73.968 196.558 74.1604 196.528C86.8321 194.543 98.947 195.147 110.881 198.218C122.79 201.136 133.672 206.082 143.226 212.91C152.781 219.749 160.931 228.404 167.442 238.651C174.107 248.86 178.446 260.004 180.463 272.497C180.473 272.56 180.499 272.618 180.54 272.668C180.58 272.717 180.632 272.754 180.692 272.777C180.752 272.8 180.816 272.806 180.88 272.796C180.942 272.787 181.003 272.76 181.053 272.72C181.102 272.68 181.14 272.629 181.163 272.57C181.186 272.511 181.192 272.447 181.182 272.385C179.165 259.892 179.703 247.983 182.668 236.266C185.786 224.511 190.885 213.781 197.814 204.359C204.746 194.95 213.532 186.923 223.935 180.509C234.301 173.946 245.628 169.669 258.3 167.685C258.505 167.652 258.633 167.464 258.602 167.273C258.594 167.212 258.569 167.154 258.531 167.105C258.492 167.056 258.442 167.018 258.383 166.995C258.324 166.971 258.26 166.965 258.198 166.974Z" fill="url(#paint_linear_0)" fill-rule="evenodd" />
			<path id="矢量 481" d="M210.752 83.6288C207.593 83.3992 204.721 82.6023 202.034 81.2474C199.346 79.8546 197.019 78.054 195.119 75.8988C193.219 73.7428 191.742 71.2247 190.73 68.423C189.757 65.6246 189.376 62.7274 189.61 59.6429C189.612 59.6268 189.61 59.6108 189.602 59.5964C189.595 59.5821 189.583 59.5694 189.571 59.561C189.558 59.5517 189.541 59.5466 189.524 59.5458C189.51 59.5441 189.494 59.5475 189.479 59.5534C189.466 59.5601 189.453 59.5711 189.444 59.5838C189.435 59.5964 189.431 59.6108 189.429 59.626C189.193 62.7114 188.359 65.5199 186.935 68.1435C185.548 70.7739 183.726 73.0481 181.52 74.9053C179.313 76.7624 176.738 78.2067 173.872 79.1953C171.008 80.1466 168.043 80.5189 164.885 80.2885C164.836 80.2885 164.792 80.3256 164.789 80.3729C164.784 80.4227 164.823 80.4632 164.871 80.4674C168.027 80.697 170.901 81.5125 173.589 82.9053C176.28 84.2602 178.607 86.0422 180.508 88.1982C182.407 90.3567 183.865 92.8706 184.839 95.6716C185.85 98.4733 186.25 101.369 186.016 104.457C186.014 104.472 186.017 104.487 186.024 104.501C186.03 104.515 186.041 104.527 186.054 104.535C186.067 104.544 186.082 104.55 186.098 104.55C186.115 104.551 186.13 104.549 186.144 104.542C186.159 104.535 186.17 104.525 186.179 104.512C186.188 104.5 186.194 104.485 186.195 104.469C186.43 101.381 187.244 98.5746 188.631 95.9476C190.056 93.3206 191.898 91.0472 194.103 89.1867C196.31 87.3296 198.881 85.9046 201.747 84.9533C204.614 83.9648 207.579 83.5739 210.735 83.8035C210.786 83.8069 210.828 83.7698 210.832 83.7225C210.833 83.7073 210.831 83.6921 210.824 83.6786C210.818 83.6651 210.808 83.6524 210.796 83.644C210.782 83.6355 210.767 83.6296 210.752 83.6288L210.752 83.6288Z" fill="url(#paint_linear_1)" fill-rule="evenodd" />
		</g>
	</g>
</svg>
