<svg viewBox="0 0 774.045 202" xmlns="http://www.w3.org/2000/svg" xmlns:xlink="http://www.w3.org/1999/xlink" width="774.045410" height="202.000000" fill="none" customFrame="#000000">
	<defs>
		<linearGradient id="paint_linear_12" x1="42.8600006" x2="163.069794" y1="147.752487" y2="43.7354813" gradientUnits="userSpaceOnUse">
			<stop stop-color="rgb(33,123,254)" offset="0" stop-opacity="1" />
			<stop stop-color="rgb(7,142,251)" offset="0.270000011" stop-opacity="1" />
			<stop stop-color="rgb(161,144,255)" offset="0.77700001" stop-opacity="1" />
			<stop stop-color="rgb(189,153,254)" offset="1" stop-opacity="1" />
		</linearGradient>
		<linearGradient id="paint_linear_13" x1="42.2792549" x2="162.256836" y1="146.762939" y2="42.1514053" gradientUnits="userSpaceOnUse">
			<stop stop-color="rgb(33,123,254)" offset="0" stop-opacity="1" />
			<stop stop-color="rgb(7,142,251)" offset="0.270000011" stop-opacity="1" />
			<stop stop-color="rgb(161,144,255)" offset="0.77700001" stop-opacity="1" />
			<stop stop-color="rgb(189,153,254)" offset="1" stop-opacity="1" />
		</linearGradient>
	</defs>
	<g id="智言万象">
		<g id="组合 335">
			<rect id="矩形 132" width="793.000000" height="230.000000" x="0.000000" y="-7.000000" opacity="0" fill="rgb(255,255,255)" />
			<g id="组合 333">
				<path id="矢量 480" d="M176.609 101.759C164.465 103.641 152.889 103.138 141.498 100.372C130.072 97.4642 119.642 92.7067 110.495 86.2393C101.349 79.7727 93.4699 71.5746 87.0893 61.904C80.8563 52.2101 76.7735 41.6308 74.8441 29.8092C74.8343 29.7483 74.8075 29.6905 74.7686 29.6424C74.7289 29.5951 74.6753 29.5582 74.6177 29.5357C74.5576 29.5141 74.4927 29.5077 74.4319 29.5173C74.371 29.5261 74.3134 29.551 74.2664 29.5887C74.2185 29.6264 74.182 29.6753 74.1601 29.7314C74.139 29.7868 74.1325 29.8469 74.1422 29.9063C76.0709 41.7279 75.4834 53.0306 72.4976 64.1528C69.6602 75.2646 64.8512 85.4165 58.2158 94.3292C51.5788 103.242 43.1657 110.919 33.241 117.136C23.2936 123.209 12.4358 127.188 0.291206 129.071C0.10946 129.111 -0.0252254 129.291 0.00399273 129.471C0.0348203 129.662 0.218996 129.781 0.403188 129.753C12.5356 127.872 24.135 128.445 35.5615 131.354C46.9637 134.118 57.3826 138.803 66.5291 145.27C75.6782 151.748 83.4811 159.946 89.7149 169.652C96.0963 179.323 100.251 189.879 102.182 201.712C102.191 201.772 102.216 201.827 102.255 201.874C102.294 201.92 102.344 201.955 102.401 201.977C102.458 201.999 102.52 202.005 102.581 201.996C102.641 201.987 102.698 201.961 102.746 201.923C102.793 201.886 102.83 201.837 102.852 201.781C102.874 201.725 102.88 201.664 102.87 201.606C100.939 189.772 101.455 178.492 104.293 167.393C107.279 156.259 112.161 146.095 118.794 137.17C125.431 128.258 133.844 120.654 143.804 114.579C153.729 108.363 164.574 104.311 176.706 102.432C176.902 102.401 177.025 102.223 176.996 102.042C176.988 101.984 176.964 101.929 176.928 101.882C176.89 101.836 176.842 101.8 176.786 101.778C176.73 101.756 176.668 101.75 176.609 101.759Z" fill="url(#paint_linear_12)" fill-rule="evenodd" />
				<path id="矢量 481" d="M131.182 22.8123C128.157 22.5948 125.408 21.84 122.834 20.5566C120.261 19.2373 118.033 17.5317 116.214 15.4903C114.395 13.4482 112.981 11.0629 112.012 8.40905C111.08 5.75836 110.716 3.01412 110.94 0.0923615C110.941 0.0771713 110.939 0.0619811 110.932 0.0483846C110.925 0.0347881 110.914 0.0228006 110.902 0.0148013C110.889 0.00600899 110.874 0.00120485 110.857 0.000411784C110.844 -0.0011896 110.828 0.00200554 110.814 0.00760275C110.801 0.0140006 110.789 0.0243944 110.781 0.0363895C110.772 0.0483846 110.768 0.0619811 110.766 0.0763706C110.54 2.99893 109.741 5.65921 108.379 8.14438C107.05 10.636 105.305 12.7901 103.193 14.5492C101.081 16.3083 98.6149 17.6765 95.8711 18.6128C93.129 19.514 90.2907 19.8666 87.2665 19.6483C87.22 19.6483 87.1777 19.6835 87.1744 19.7282C87.1703 19.7754 87.207 19.8138 87.2535 19.8178C90.2752 20.0353 93.0263 20.8077 95.6005 22.1271C98.1763 23.4104 100.405 25.0984 102.224 27.1406C104.043 29.1852 105.439 31.5664 106.372 34.2195C107.339 36.8734 107.722 39.616 107.498 42.541C107.497 42.5554 107.499 42.5697 107.506 42.5834C107.512 42.5961 107.522 42.6073 107.535 42.6153C107.547 42.6241 107.562 42.6289 107.577 42.6297C107.593 42.6305 107.607 42.6281 107.62 42.6217C107.635 42.6153 107.646 42.6057 107.655 42.5937C107.663 42.5818 107.669 42.5674 107.669 42.553C107.894 39.628 108.674 36.9693 110.002 34.481C111.367 31.9926 113.13 29.8393 115.241 28.0769C117.354 26.3178 119.816 24.9681 122.56 24.0669C125.305 23.1306 128.144 22.7603 131.166 22.9778C131.215 22.981 131.255 22.9459 131.258 22.9011C131.259 22.8867 131.257 22.8723 131.251 22.8595C131.245 22.8467 131.235 22.8347 131.224 22.8267C131.211 22.8187 131.196 22.8131 131.181 22.8123L131.182 22.8123Z" fill="url(#paint_linear_13)" fill-rule="evenodd" />
			</g>
		</g>
		<path id="矢量 491" d="M674.28 39.1099Q674.171 39 673.951 39L663.953 39Q663.734 39 663.624 39.1099Q663.514 39.2197 663.514 39.4395L663.514 56.5781Q663.514 56.8352 663.642 56.9534Q663.751 57.0542 663.953 57.0542L732.728 57.0542L721.427 67.9673L646.631 67.9673Q646.375 67.9673 646.265 68.0771Q646.155 68.187 646.155 68.4067L646.155 100.78Q646.155 101 646.265 101.109Q646.375 101.219 646.631 101.219L689.215 101.219Q688.267 101.903 687.244 102.538C682.484 105.467 675.904 108.08 667.505 110.375L640.626 117.662Q640.354 117.798 640.306 117.989Q640.277 118.108 640.333 118.248L642.493 126.708Q642.629 126.979 642.821 127.027Q642.939 127.056 643.079 127L669.959 119.713C679.334 117.149 686.964 113.988 692.847 110.228Q693.438 109.848 694.009 109.455Q701.825 113.144 706.653 119.164Q706.848 119.403 707.035 119.645L639.673 141.393Q639.39 141.558 639.35 141.769Q639.328 141.885 639.38 142.015L641.981 150.292Q642.145 150.596 642.353 150.631Q642.471 150.65 642.603 150.584L711.269 128.405Q712.037 131.512 712.037 134.984L712.037 140.173L638.026 164.354Q637.754 164.49 637.706 164.681Q637.677 164.8 637.733 164.94L640.333 173.253Q640.498 173.536 640.709 173.576Q640.825 173.598 640.955 173.546L712.037 150.311L712.037 165.27L697.095 165.27Q696.876 165.27 696.766 165.379Q696.656 165.489 696.656 165.709L696.656 175.23Q696.656 175.488 696.784 175.606Q696.893 175.707 697.095 175.707L722.584 175.707Q722.803 175.707 722.913 175.597Q723.023 175.487 723.023 175.23L723.023 135.912L736.41 130.062Q739.26 139.114 743.962 147.071Q745.432 149.559 747.083 151.939Q751.637 158.459 757.122 164.069Q761.958 169.015 767.518 173.253Q767.635 173.37 767.752 173.37Q767.781 173.37 767.811 173.363Q767.957 173.326 768.104 173.18L773.963 165.013Q774.031 164.923 774.043 164.826Q774.07 164.608 773.817 164.354Q763.27 156.297 756.055 145.934Q749.856 136.982 746.497 125.654L766.126 117.076Q766.346 116.966 766.401 116.802Q766.456 116.637 766.346 116.417L762.684 107.335Q762.581 107.13 762.423 107.068Q762.242 106.998 761.988 107.115L721.6 124.765Q721.056 122.927 720.303 121.178Q718.46 116.899 715.369 113.158Q712.339 109.457 708.723 106.464Q705.685 103.948 702.233 101.932Q702.521 101.579 702.8 101.219L763.746 101.219Q764.002 101.219 764.112 101.109Q764.222 101 764.222 100.78L764.222 68.4067Q764.222 68.187 764.112 68.0771Q764.002 67.9673 763.746 67.9673L735.201 67.9673L753.821 48.2285Q753.895 48.1553 753.931 48.082Q753.943 48.0576 753.943 48.0332Q753.943 47.9844 753.895 47.9355Q753.821 47.8623 753.675 47.8623L674.39 47.8623L674.39 39.4395Q674.39 39.2197 674.28 39.1099ZM708.218 91.5513L753.162 91.5513L753.162 77.5986L711.583 77.5986Q710.598 85.4371 708.218 91.5513ZM701.813 77.5986L657.215 77.5986L657.215 91.5513L697.732 91.5513Q697.798 91.424 697.864 91.2949Q700.647 85.8174 701.813 77.5986ZM237.795 39.0732Q238.015 39.0732 238.125 39.1831Q238.234 39.293 238.234 39.5127L238.234 46.0312L291.774 46.0312Q291.994 46.0312 292.104 46.1411Q292.214 46.251 292.214 46.4707L292.214 55.6992Q292.214 55.9189 292.104 56.0288Q291.994 56.1387 291.774 56.1387L265.868 56.1387Q265.446 64.3473 263.604 71.6294L293.898 71.6294Q294.101 71.6294 294.21 71.7302Q294.338 71.8484 294.338 72.1055L294.338 81.2974Q294.338 81.5544 294.21 81.6727Q294.101 81.7734 293.898 81.7734L273.61 81.7734Q276.109 86.9208 279.799 90.8188Q285.659 96.9712 295.473 101.219Q295.701 101.352 295.752 101.534L295.752 101.535Q295.799 101.704 295.693 101.915L291.665 111.144Q291.555 111.363 291.39 111.418Q291.225 111.473 291.005 111.363Q279.287 106.346 271.486 98.0698Q269.15 95.5796 267.225 92.8042L267.225 92.8041Q263.727 87.7597 261.586 81.7734L260.156 81.7734Q258.786 84.918 257.094 87.8525Q256.742 88.4657 256.372 89.0676L256.372 89.0677Q247.495 103.492 228.09 111.437C227.944 111.534 227.822 111.559 227.724 111.51Q227.578 111.437 227.431 111.217L223.732 101.805Q223.617 101.574 223.684 101.424Q223.744 101.289 223.952 101.219Q241.018 94.2612 247.939 82.1396Q248.043 81.9572 248.146 81.7734L223.439 81.7734Q223.237 81.7734 223.128 81.6727Q223 81.5544 223 81.2974L223 72.1055Q223 71.8484 223.128 71.7302Q223.237 71.6294 223.439 71.6294L252.328 71.6294Q254.364 64.6069 254.809 56.1387L227.468 56.1387Q227.248 56.1387 227.138 56.0288Q227.028 55.9189 227.028 55.6992L227.028 39.5127Q227.028 39.293 227.138 39.1831Q227.248 39.0732 227.468 39.0732L237.795 39.0732ZM434.975 39.4028Q434.865 39.293 434.645 39.293L424.025 39.293Q423.805 39.293 423.695 39.4028Q423.586 39.5127 423.586 39.7324L423.48 52.623L363.307 52.623Q363.105 52.623 362.996 52.7238Q362.868 52.8421 362.868 53.0991L362.868 63.0234Q362.868 63.2432 362.978 63.353Q363.087 63.4629 363.307 63.4629L495.07 63.4629Q495.29 63.4629 495.399 63.353Q495.509 63.2432 495.509 63.0234L495.509 53.0991Q495.509 52.8421 495.381 52.7238Q495.272 52.623 495.07 52.623L434.979 52.623L435.085 39.7324Q435.085 39.5127 434.975 39.4028ZM300.82 45.1523Q300.82 44.9326 300.93 44.8228Q301.04 44.7129 301.259 44.7129L353.994 44.7129Q354.251 44.7129 354.369 44.841Q354.47 44.9502 354.47 45.1523L354.47 101.585Q354.47 101.788 354.369 101.897Q354.251 102.025 353.994 102.025L301.259 102.025Q301.04 102.025 300.93 101.915Q300.82 101.805 300.82 101.585L300.82 45.1523ZM633.216 47.9355Q633.436 47.9355 633.546 48.0454Q633.656 48.1553 633.656 48.375L633.656 58.9951Q633.656 59.2148 633.546 59.3247Q633.436 59.4346 633.216 59.4346L544.264 59.4346L544.264 89.0977C544.264 90.4955 544.241 91.8871 544.194 93.2725L619.886 93.2725Q620.045 93.2725 620.146 93.3484Q620.185 93.3779 620.216 93.4189Q620.326 93.5288 620.326 93.7485L620.326 173.656Q620.326 173.875 620.216 173.985Q620.106 174.095 619.886 174.095L588.246 174.095Q588.026 174.095 587.916 173.985Q587.806 173.875 587.806 173.656L587.806 163.365Q587.806 163.108 587.934 162.99Q588.044 162.889 588.246 162.889L608.717 162.889L608.717 104.479L543.299 104.479C541.906 115.394 539.005 125.905 534.596 136.009Q533.09 139.473 531.342 142.809L531.341 142.811Q521.906 160.816 505.409 175.121Q505.286 175.243 505.157 175.25Q504.978 175.26 504.786 175.047L497.718 167.027Q497.667 166.958 497.647 166.881Q497.585 166.631 497.865 166.295Q515.094 151.441 523.607 132.639L523.637 132.573Q523.902 131.986 524.159 131.395Q525.321 128.716 526.324 125.978Q532.655 108.698 532.655 89.0977L532.655 59.4346L501.161 59.4346Q500.941 59.4346 500.831 59.3247Q500.721 59.2148 500.721 58.9951L500.721 48.375Q500.721 48.1553 500.831 48.0454Q500.941 47.9355 501.161 47.9355L633.216 47.9355ZM343.41 55.7725L311.879 55.7725L311.879 90.9653L343.41 90.9653L343.41 55.7725ZM484.962 77.9282Q484.853 77.8184 484.633 77.8184L373.744 77.8184Q373.524 77.8184 373.415 77.9282Q373.305 78.0381 373.305 78.2578L373.305 87.9624Q373.305 88.1821 373.415 88.292Q373.524 88.4019 373.744 88.4019L484.633 88.4019Q484.853 88.4019 484.962 88.292Q485.072 88.1821 485.072 87.9624L485.072 78.2578Q485.072 78.0381 484.962 77.9282ZM484.962 103.05Q484.853 102.94 484.633 102.94L373.744 102.94Q373.524 102.94 373.415 103.05Q373.305 103.16 373.305 103.38L373.305 113.084Q373.305 113.304 373.415 113.414Q373.524 113.524 373.744 113.524L484.633 113.524Q484.853 113.524 484.962 113.414Q485.072 113.304 485.072 113.084L485.072 103.38Q485.072 103.16 484.962 103.05ZM235.708 114.33Q235.708 114.11 235.817 114Q235.927 113.89 236.147 113.89L346.23 113.89Q346.45 113.89 346.56 114Q346.669 114.11 346.669 114.33L346.669 173.912Q346.669 174.132 346.56 174.242Q346.45 174.352 346.23 174.352L236.147 174.352Q235.927 174.352 235.817 174.242Q235.708 174.132 235.708 173.912L235.708 114.33ZM335.5 124.181L246.877 124.181L246.877 138.939L335.5 138.939L335.5 124.181ZM372.169 127.989Q372.06 128.099 372.06 128.355L372.06 173.07Q372.06 173.326 372.169 173.399Q372.279 173.509 372.499 173.509L485.805 173.509Q486.024 173.509 486.134 173.399Q486.244 173.326 486.244 173.07L486.244 128.355Q486.244 128.099 486.134 127.989Q486.024 127.879 485.805 127.879L372.499 127.879Q372.279 127.879 372.169 127.989ZM383.266 138.463L475.038 138.463L475.038 162.926L383.266 162.926L383.266 138.463ZM246.877 164.061L246.877 148.9L335.5 148.9L335.5 164.061L246.877 164.061Z" fill="rgb(108,115,127)" fill-rule="evenodd" />
	</g>
</svg>
