<svg viewBox="0 0 168 50" xmlns="http://www.w3.org/2000/svg" xmlns:xlink="http://www.w3.org/1999/xlink" width="168.000000" height="50.000000" fill="none">
	<defs>
		<linearGradient id="paint_linear_0" x1="22.6300716" x2="37.5927048" y1="29.5769196" y2="16.7792206" gradientUnits="userSpaceOnUse">
			<stop stop-color="rgb(33,123,254)" offset="0" stop-opacity="1" />
			<stop stop-color="rgb(7,142,251)" offset="0.270000011" stop-opacity="1" />
			<stop stop-color="rgb(161,144,255)" offset="0.77700001" stop-opacity="1" />
			<stop stop-color="rgb(189,153,254)" offset="1" stop-opacity="1" />
		</linearGradient>
		<linearGradient id="paint_linear_1" x1="22.6290817" x2="37.5917206" y1="29.5770988" y2="16.7794018" gradientUnits="userSpaceOnUse">
			<stop stop-color="rgb(33,123,254)" offset="0" stop-opacity="1" />
			<stop stop-color="rgb(7,142,251)" offset="0.270000011" stop-opacity="1" />
			<stop stop-color="rgb(161,144,255)" offset="0.77700001" stop-opacity="1" />
			<stop stop-color="rgb(189,153,254)" offset="1" stop-opacity="1" />
		</linearGradient>
		<linearGradient id="paint_linear_2" x1="131.761139" x2="143.021759" y1="28.3383369" y2="14.8198452" gradientUnits="userSpaceOnUse">
			<stop stop-color="rgb(33,123,254)" offset="0" stop-opacity="1" />
			<stop stop-color="rgb(7,142,251)" offset="0.270000011" stop-opacity="1" />
			<stop stop-color="rgb(161,144,255)" offset="0.77700001" stop-opacity="1" />
			<stop stop-color="rgb(189,153,254)" offset="1" stop-opacity="1" />
		</linearGradient>
	</defs>
	<rect id="logo-full" width="168.000000" height="50.000000" x="0.000000" y="0.000000" />
	<rect id="svgexport-1 1" width="168.000000" height="50.000000" x="0.000000" y="0.000000" />
	<g id="组合 310">
		<path id="矢量 471" d="M20.9313 8L36.5439 8C41.4765 8 45.4752 11.9419 45.4752 16.8045L45.4752 32.1955C45.4752 37.0581 41.4765 41 36.5439 41L20.9313 41C15.9986 41 12 37.0581 12 32.1955L12 16.8045C12 11.9419 15.9986 8 20.9313 8Z" fill="rgb(255,255,255)" fill-rule="evenodd" />
		<path id="矢量 471" d="M39.1143 23.8421C37.6176 24.0767 36.1909 24.014 34.787 23.6691C33.3787 23.3066 32.0933 22.7134 30.966 21.907C29.8387 21.1007 28.8676 20.0785 28.0812 18.8727C27.313 17.664 26.8098 16.3449 26.572 14.8709C26.5709 14.8633 26.5675 14.8561 26.5627 14.8501C26.5578 14.8442 26.5513 14.8396 26.5441 14.8368C26.5367 14.8341 26.5287 14.8333 26.5212 14.8345C26.5137 14.8356 26.5066 14.8387 26.5008 14.8434C26.4949 14.8481 26.4904 14.8542 26.4877 14.8612C26.4851 14.8681 26.4843 14.8756 26.4855 14.883C26.7232 16.357 26.6508 17.7663 26.2828 19.1531C25.9331 20.5386 25.3405 21.8044 24.5226 22.9157C23.7046 24.027 22.6677 24.9842 21.4445 25.7594C20.2185 26.5167 18.8803 27.0128 17.3835 27.2475C17.3611 27.2525 17.3445 27.275 17.3481 27.2974C17.3519 27.3213 17.3746 27.3361 17.3973 27.3326C18.8926 27.0981 20.3222 27.1695 21.7305 27.5322C23.1358 27.8768 24.4199 28.461 25.5472 29.2674C26.6749 30.0751 27.6365 31.0973 28.4049 32.3075C29.1913 33.5133 29.7034 34.8295 29.9413 36.305C29.9425 36.3124 29.9457 36.3193 29.9504 36.3251C29.9551 36.3309 29.9613 36.3353 29.9684 36.338C29.9755 36.3407 29.983 36.3415 29.9905 36.3403C29.9979 36.3392 30.005 36.336 30.011 36.3313C30.0168 36.3266 30.0212 36.3205 30.0239 36.3136C30.0266 36.3066 30.0274 36.299 30.0262 36.2917C29.7882 34.8162 29.8517 33.4097 30.2015 32.0258C30.5695 30.6375 31.1712 29.3702 31.9888 28.2574C32.8069 27.1462 33.8437 26.1981 35.0713 25.4406C36.2944 24.6655 37.6311 24.1603 39.1264 23.926C39.1506 23.9221 39.1656 23.8999 39.162 23.8774C39.161 23.8702 39.1581 23.8633 39.1536 23.8575C39.149 23.8517 39.1432 23.8472 39.1362 23.8445C39.1292 23.8417 39.1217 23.841 39.1143 23.8421Z" fill="rgb(255,255,255)" fill-rule="evenodd" />
		<path id="矢量 471" d="M39.1143 23.8421C37.6176 24.0767 36.1909 24.014 34.787 23.6691C33.3787 23.3066 32.0933 22.7134 30.966 21.907C29.8387 21.1007 28.8676 20.0785 28.0812 18.8727C27.313 17.664 26.8098 16.3449 26.572 14.8709C26.5709 14.8633 26.5675 14.8561 26.5627 14.8501C26.5578 14.8442 26.5513 14.8396 26.5441 14.8368C26.5367 14.8341 26.5287 14.8333 26.5212 14.8345C26.5137 14.8356 26.5066 14.8387 26.5008 14.8434C26.4949 14.8481 26.4904 14.8542 26.4877 14.8612C26.4851 14.8681 26.4843 14.8756 26.4855 14.883C26.7232 16.357 26.6508 17.7663 26.2828 19.1531C25.9331 20.5386 25.3405 21.8044 24.5226 22.9157C23.7046 24.027 22.6677 24.9842 21.4445 25.7594C20.2185 26.5167 18.8803 27.0128 17.3835 27.2475C17.3611 27.2525 17.3445 27.275 17.3481 27.2974C17.3519 27.3213 17.3746 27.3361 17.3973 27.3326C18.8926 27.0981 20.3222 27.1695 21.7305 27.5322C23.1358 27.8768 24.4199 28.461 25.5472 29.2674C26.6749 30.0751 27.6365 31.0973 28.4049 32.3075C29.1913 33.5133 29.7034 34.8295 29.9413 36.305C29.9425 36.3124 29.9457 36.3193 29.9504 36.3251C29.9551 36.3309 29.9613 36.3353 29.9684 36.338C29.9755 36.3407 29.983 36.3415 29.9905 36.3403C29.9979 36.3392 30.005 36.336 30.011 36.3313C30.0168 36.3266 30.0212 36.3205 30.0239 36.3136C30.0266 36.3066 30.0274 36.299 30.0262 36.2917C29.7882 34.8162 29.8517 33.4097 30.2015 32.0258C30.5695 30.6375 31.1712 29.3702 31.9888 28.2574C32.8069 27.1462 33.8437 26.1981 35.0713 25.4406C36.2944 24.6655 37.6311 24.1603 39.1264 23.926C39.1506 23.9221 39.1656 23.8999 39.162 23.8774C39.161 23.8702 39.1581 23.8633 39.1536 23.8575C39.149 23.8517 39.1432 23.8472 39.1362 23.8445C39.1292 23.8417 39.1217 23.841 39.1143 23.8421Z" fill="url(#paint_linear_0)" fill-rule="evenodd" />
		<path id="矢量 471" d="M33.5356 14.0756C33.1645 14.0484 32.8272 13.954 32.5115 13.7935C32.1958 13.6285 31.9225 13.4152 31.6993 13.1599C31.4762 12.9045 31.3027 12.6062 31.1838 12.2743C31.0695 11.9428 31.0248 11.5996 31.0523 11.2342C31.0525 11.2323 31.0522 11.2304 31.0513 11.2287C31.0505 11.227 31.0491 11.2255 31.0477 11.2245C31.0461 11.2234 31.0442 11.2228 31.0422 11.2227C31.0405 11.2225 31.0386 11.2229 31.0369 11.2236C31.0353 11.2244 31.0338 11.2257 31.0328 11.2272C31.0317 11.2287 31.0312 11.2304 31.031 11.2322C31.0033 11.5977 30.9053 11.9304 30.7381 12.2412C30.5751 12.5528 30.3611 12.8222 30.102 13.0422C29.8428 13.2622 29.5403 13.4333 29.2037 13.5504C28.8673 13.6631 28.5191 13.7072 28.1481 13.6799C28.1424 13.6799 28.1372 13.6843 28.1368 13.6899C28.1363 13.6958 28.1408 13.7006 28.1465 13.7011C28.5172 13.7283 28.8547 13.8249 29.1705 13.9899C29.4865 14.1504 29.7599 14.3615 29.9831 14.6169C30.2062 14.8726 30.3775 15.1704 30.4919 15.5022C30.6106 15.8341 30.6576 16.1771 30.6301 16.5429C30.6299 16.5447 30.6302 16.5465 30.631 16.5482C30.6318 16.5498 30.633 16.5512 30.6346 16.5522C30.6361 16.5533 30.6379 16.5539 30.6398 16.554C30.6417 16.5541 30.6435 16.5538 30.6451 16.553C30.6469 16.5522 30.6482 16.551 30.6493 16.5495C30.6503 16.548 30.651 16.5462 30.6511 16.5444C30.6787 16.1786 30.7744 15.8461 30.9373 15.5349C31.1047 15.2237 31.321 14.9544 31.58 14.734C31.8392 14.514 32.1412 14.3452 32.4779 14.2325C32.8146 14.1154 33.1629 14.0691 33.5336 14.0963C33.5396 14.0967 33.5445 14.0923 33.5449 14.0867C33.5451 14.0849 33.5448 14.0831 33.544 14.0815C33.5433 14.0799 33.5421 14.0784 33.5407 14.0774C33.5391 14.0764 33.5373 14.0757 33.5355 14.0756L33.5356 14.0756Z" fill="rgb(255,255,255)" fill-rule="evenodd" />
		<path id="矢量 471" d="M33.5356 14.0756C33.1645 14.0484 32.8272 13.954 32.5115 13.7935C32.1958 13.6285 31.9225 13.4152 31.6993 13.1599C31.4762 12.9045 31.3027 12.6062 31.1838 12.2743C31.0695 11.9428 31.0248 11.5996 31.0523 11.2342C31.0525 11.2323 31.0522 11.2304 31.0513 11.2287C31.0505 11.227 31.0491 11.2255 31.0477 11.2245C31.0461 11.2234 31.0442 11.2228 31.0422 11.2227C31.0405 11.2225 31.0386 11.2229 31.0369 11.2236C31.0353 11.2244 31.0338 11.2257 31.0328 11.2272C31.0317 11.2287 31.0312 11.2304 31.031 11.2322C31.0033 11.5977 30.9053 11.9304 30.7381 12.2412C30.5751 12.5528 30.3611 12.8222 30.102 13.0422C29.8428 13.2622 29.5403 13.4333 29.2037 13.5504C28.8673 13.6631 28.5191 13.7072 28.1481 13.6799C28.1424 13.6799 28.1372 13.6843 28.1368 13.6899C28.1363 13.6958 28.1408 13.7006 28.1465 13.7011C28.5172 13.7283 28.8547 13.8249 29.1705 13.9899C29.4865 14.1504 29.7599 14.3615 29.9831 14.6169C30.2062 14.8726 30.3775 15.1704 30.4919 15.5022C30.6106 15.8341 30.6576 16.1771 30.6301 16.5429C30.6299 16.5447 30.6302 16.5465 30.631 16.5482C30.6318 16.5498 30.633 16.5512 30.6346 16.5522C30.6361 16.5533 30.6379 16.5539 30.6398 16.554C30.6417 16.5541 30.6435 16.5538 30.6451 16.553C30.6469 16.5522 30.6482 16.551 30.6493 16.5495C30.6503 16.548 30.651 16.5462 30.6511 16.5444C30.6787 16.1786 30.7744 15.8461 30.9373 15.5349C31.1047 15.2237 31.321 14.9544 31.58 14.734C31.8392 14.514 32.1412 14.3452 32.4779 14.2325C32.8146 14.1154 33.1629 14.0691 33.5336 14.0963C33.5396 14.0967 33.5445 14.0923 33.5449 14.0867C33.5451 14.0849 33.5448 14.0831 33.544 14.0815C33.5433 14.0799 33.5421 14.0784 33.5407 14.0774C33.5391 14.0764 33.5373 14.0757 33.5355 14.0756L33.5356 14.0756Z" fill="url(#paint_linear_1)" fill-rule="evenodd" />
		<g id="组合 308">
			<path id="矢量 466" d="M53.1914 36.9779L56.198 12.783L65.9043 12.783C68.083 12.8045 69.7551 13.2609 70.9208 14.1522C72.0864 15.0436 72.6692 16.3484 72.6692 18.0666C72.6692 18.2384 72.6474 18.5606 72.6038 19.0331L72.4731 20.1929C72.2117 22.0185 71.3837 23.3716 69.9894 24.2522C70.9262 24.6174 71.6343 25.1758 72.1136 25.9275C72.5929 26.6793 72.8326 27.5813 72.8326 28.6337C72.8326 28.9559 72.8217 29.2029 72.7999 29.3747L72.6365 30.7278C72.3751 32.7253 71.4981 34.2663 70.0057 35.351C68.5133 36.4356 66.4816 36.9779 63.9107 36.9779L53.1914 36.9779ZM64.7277 22.9958C67.059 22.9528 68.3662 22.04 68.6494 20.2573L68.8129 18.9687C68.9654 17.1645 67.8869 16.241 65.5774 16.198L59.6295 16.198L58.7798 22.9958L64.7277 22.9958ZM64.3683 33.4985C65.6537 33.477 66.6668 33.23 67.4076 32.7575C68.1483 32.285 68.595 31.6299 68.7475 30.7923L68.9109 29.407C69.0198 28.419 68.7638 27.6619 68.1429 27.1357C67.522 26.6094 66.5579 26.3356 65.2506 26.3141L58.3877 26.3141L57.4726 33.4985L64.3683 33.4985ZM87.5717 33.4341L89.3364 19.0331L93.0947 19.0331L90.8724 36.9779L82.6695 36.9779C78.1596 36.9779 75.9046 34.9375 75.9046 30.8567C75.9046 30.3627 75.9373 29.8258 76.0026 29.2459L77.2772 19.0331L81.0355 19.0331L79.7609 29.3425C79.7174 29.6217 79.6956 30.0083 79.6956 30.5023C79.6956 31.6192 79.9625 32.3924 80.4962 32.822C81.03 33.2515 81.8961 33.4663 83.0944 33.4663L87.5717 33.4341ZM97.474 16.6168L97.9642 12.7508L102.245 12.7508L101.755 16.6168L97.474 16.6168ZM98.9773 36.9779L95.219 36.9779L97.474 19.0331L101.232 19.0331L98.9773 36.9779ZM103.912 26.7974C104.544 21.6212 107.354 19.0331 112.344 19.0331L116.625 19.0331L117.475 12.1387L121.233 12.1387L118.161 36.9779L110.285 36.9779C105.775 36.9779 103.52 34.9375 103.52 30.8567C103.52 30.3627 103.553 29.8258 103.618 29.2459L103.912 26.7974ZM114.827 33.5307L116.2 22.4159L111.919 22.4159C109.457 22.4159 108.052 23.8442 107.703 26.7007L107.376 29.3425C107.333 29.7721 107.311 30.0835 107.311 30.2768C107.311 32.4461 108.444 33.5307 110.71 33.5307L114.827 33.5307Z" fill="rgb(0,0,0)" fill-rule="nonzero" />
		</g>
		<g id="组合 309">
			<path id="矢量 465" d="M120.482 36.9731L137.42 12.0273L137.474 12.0273L141.917 36.9731L137.706 36.9731L136.867 31.9072L128.469 31.9072L125.074 36.9731L120.482 36.9731ZM130.823 28.408L136.261 28.408L135.743 25.3169C135.631 24.6707 135.533 24.0433 135.447 23.4346C135.361 22.8259 135.309 22.1109 135.291 21.2896C134.886 22.098 134.495 22.8086 134.117 23.4212C133.739 24.0338 133.329 24.6657 132.885 25.3169L130.823 28.408ZM145.345 36.9731L151.47 12.8697L156 12.8697L149.874 36.9731L145.345 36.9731Z" fill="url(#paint_linear_2)" fill-rule="nonzero" />
		</g>
	</g>
</svg>
