<svg viewBox="0 0 586 202" xmlns="http://www.w3.org/2000/svg" xmlns:xlink="http://www.w3.org/1999/xlink" width="586.000000" height="202.000000" fill="none" customFrame="#000000">
	<defs>
		<linearGradient id="paint_linear_0" x1="42.8600006" x2="163.069794" y1="147.752487" y2="43.7354813" gradientUnits="userSpaceOnUse">
			<stop stop-color="rgb(33,123,254)" offset="0" stop-opacity="1" />
			<stop stop-color="rgb(7,142,251)" offset="0.270000011" stop-opacity="1" />
			<stop stop-color="rgb(161,144,255)" offset="0.77700001" stop-opacity="1" />
			<stop stop-color="rgb(189,153,254)" offset="1" stop-opacity="1" />
		</linearGradient>
		<linearGradient id="paint_linear_1" x1="42.2792549" x2="162.256836" y1="146.762939" y2="42.1514053" gradientUnits="userSpaceOnUse">
			<stop stop-color="rgb(33,123,254)" offset="0" stop-opacity="1" />
			<stop stop-color="rgb(7,142,251)" offset="0.270000011" stop-opacity="1" />
			<stop stop-color="rgb(161,144,255)" offset="0.77700001" stop-opacity="1" />
			<stop stop-color="rgb(189,153,254)" offset="1" stop-opacity="1" />
		</linearGradient>
	</defs>
	<g id="logo-full">
		<g id="智言万象">
			<g id="组合 335">
				<rect id="矩形 132" width="793.000000" height="230.000000" x="0.000000" y="-7.000000" opacity="0" fill="rgb(255,255,255)" />
				<g id="组合 333">
					<path id="矢量 480" d="M176.609 101.759C164.465 103.641 152.889 103.138 141.498 100.372C130.072 97.4642 119.642 92.7067 110.495 86.2393C101.349 79.7727 93.4699 71.5746 87.0893 61.904C80.8563 52.2101 76.7735 41.6308 74.8441 29.8092C74.8343 29.7483 74.8075 29.6905 74.7686 29.6424C74.7289 29.5951 74.6753 29.5582 74.6177 29.5357C74.5576 29.5141 74.4927 29.5077 74.4319 29.5173C74.371 29.5261 74.3134 29.551 74.2664 29.5887C74.2185 29.6264 74.182 29.6753 74.1601 29.7314C74.139 29.7868 74.1325 29.8469 74.1422 29.9063C76.0709 41.7279 75.4834 53.0306 72.4976 64.1528C69.6602 75.2646 64.8512 85.4165 58.2158 94.3292C51.5788 103.242 43.1657 110.919 33.241 117.136C23.2936 123.209 12.4358 127.188 0.291206 129.071C0.10946 129.111 -0.0252254 129.291 0.00399273 129.471C0.0348203 129.662 0.218996 129.781 0.403188 129.753C12.5356 127.872 24.135 128.445 35.5615 131.354C46.9637 134.118 57.3826 138.803 66.5291 145.27C75.6782 151.748 83.4811 159.946 89.7149 169.652C96.0963 179.323 100.251 189.879 102.182 201.712C102.191 201.772 102.216 201.827 102.255 201.874C102.294 201.92 102.344 201.955 102.401 201.977C102.458 201.999 102.52 202.005 102.581 201.996C102.641 201.987 102.698 201.961 102.746 201.923C102.793 201.886 102.83 201.837 102.852 201.781C102.874 201.725 102.88 201.664 102.87 201.606C100.939 189.772 101.455 178.492 104.293 167.393C107.279 156.259 112.161 146.095 118.794 137.17C125.431 128.258 133.844 120.654 143.804 114.579C153.729 108.363 164.574 104.311 176.706 102.432C176.902 102.401 177.025 102.223 176.996 102.042C176.988 101.984 176.964 101.929 176.928 101.882C176.89 101.836 176.842 101.8 176.786 101.778C176.73 101.756 176.668 101.75 176.609 101.759Z" fill="url(#paint_linear_0)" fill-rule="evenodd" />
					<path id="矢量 481" d="M131.182 22.8123C128.157 22.5948 125.408 21.84 122.834 20.5566C120.261 19.2373 118.033 17.5317 116.214 15.4903C114.395 13.4482 112.981 11.0629 112.012 8.40905C111.08 5.75836 110.716 3.01412 110.94 0.0923615C110.941 0.0771713 110.939 0.0619811 110.932 0.0483846C110.925 0.0347881 110.914 0.0228006 110.902 0.0148013C110.889 0.00600899 110.874 0.00120485 110.857 0.000411784C110.844 -0.0011896 110.828 0.00200554 110.814 0.00760275C110.801 0.0140006 110.789 0.0243944 110.781 0.0363895C110.772 0.0483846 110.768 0.0619811 110.766 0.0763706C110.54 2.99893 109.741 5.65921 108.379 8.14438C107.05 10.636 105.305 12.7901 103.193 14.5492C101.081 16.3083 98.6149 17.6765 95.8711 18.6128C93.129 19.514 90.2907 19.8666 87.2665 19.6483C87.22 19.6483 87.1777 19.6835 87.1744 19.7282C87.1703 19.7754 87.207 19.8138 87.2535 19.8178C90.2752 20.0353 93.0263 20.8077 95.6005 22.1271C98.1763 23.4104 100.405 25.0984 102.224 27.1406C104.043 29.1852 105.439 31.5664 106.372 34.2195C107.339 36.8734 107.722 39.616 107.498 42.541C107.497 42.5554 107.499 42.5697 107.506 42.5834C107.512 42.5961 107.522 42.6073 107.535 42.6153C107.547 42.6241 107.562 42.6289 107.577 42.6297C107.593 42.6305 107.607 42.6281 107.62 42.6217C107.635 42.6153 107.646 42.6057 107.655 42.5937C107.663 42.5818 107.669 42.5674 107.669 42.553C107.894 39.628 108.674 36.9693 110.002 34.481C111.367 31.9926 113.13 29.8393 115.241 28.0769C117.354 26.3178 119.816 24.9681 122.56 24.0669C125.305 23.1306 128.144 22.7603 131.166 22.9778C131.215 22.981 131.255 22.9459 131.258 22.9011C131.259 22.8867 131.257 22.8723 131.251 22.8595C131.245 22.8467 131.235 22.8347 131.224 22.8267C131.211 22.8187 131.196 22.8131 131.181 22.8123L131.182 22.8123Z" fill="url(#paint_linear_1)" fill-rule="evenodd" />
				</g>
			</g>
		</g>
		<path id="" d="M218.91 64.957Q216.625 64.957 215.324 64.043Q214.023 63.0938 214.023 61.5117Q214.023 60.3516 215.043 58.3477L221.09 46.3945L235.047 46.3945L231.742 53.7422L269.605 53.7422L267.883 64.957L250.902 64.957Q250.164 69.1406 248.441 74.9062L269.887 74.9062L268.445 86.2969L244.539 86.2969Q256.211 92.4844 268.164 101.414L258.953 109.465Q250.164 102.996 247.703 100.957Q242.676 97.3711 238.352 94.6289Q229.422 106.441 215.043 114.949L204.074 106.863Q212.863 101.977 218.91 97.0898Q224.957 92.168 229 86.2969L207.977 86.2969L209.418 74.9062L234.906 74.9062Q236.77 70.0195 237.648 64.957L218.91 64.957ZM320.16 105.281L270.168 105.281L275.512 62.3906Q276.074 57.7852 278.957 55.1836Q281.84 52.582 286.445 52.582L315.555 52.582Q320.301 52.582 323.184 55.8164Q326.066 59.0508 325.328 63.5156L320.16 105.281ZM284.723 93.7852L308.488 93.7852L311.652 64.1133L288.344 64.1133L284.723 93.7852ZM305.605 168.949L215.184 168.949L221.371 121.137Q221.934 116.812 225.168 114.07Q228.438 111.328 233.043 111.328L300.719 111.328Q305.465 111.328 308.207 113.789Q310.949 116.215 310.949 120.539Q310.949 121.98 310.809 122.719L305.605 168.949ZM296.816 123.422L234.766 123.422L233.324 134.391L295.516 134.391L296.816 123.422ZM230.582 156.855L293.09 156.855L294.215 145.887L231.883 145.887L230.582 156.855ZM400.977 57.3281L449.949 57.3281L448.367 70.1602L331.719 70.1602L333.16 57.3281L385.297 57.3281L380.234 44.3906L395.809 44.3906L400.977 57.3281ZM343.812 80.0742L436.836 80.0742L435.535 92.168L342.371 92.168L343.812 80.0742ZM341.07 102.539L435.957 102.539L434.516 114.492L339.629 114.492L341.07 102.539ZM428.328 167.789L334.461 167.789L338.047 135.516Q339.629 124.02 352.145 124.02L420.559 124.02Q433.215 124.02 431.949 135.375L428.328 167.789ZM351.16 154.957L414.652 154.957L416.832 136.395L353.305 136.395L351.16 154.957ZM515.258 56.0273Q523.309 56.0273 524.61 63.832L541.028 164.168L523.028 164.168L518.282 132.949L471.77 132.949L459.219 164.168L440.657 164.168L482.141 62.6719Q484.848 56.0273 492.196 56.0273L515.258 56.0273ZM496.379 71.8828L478.098 117.094L515.821 117.094L508.895 71.8828L496.379 71.8828ZM566.071 56.0273L583.087 56.0273L569.833 164.168L552.852 164.168L566.071 56.0273Z" fill="rgb(37,53,84)" fill-rule="nonzero" />
	</g>
</svg>
