<svg viewBox="0 0 256 113" xmlns="http://www.w3.org/2000/svg" xmlns:xlink="http://www.w3.org/1999/xlink" width="256.000000" height="113.000000" fill="none" customFrame="#000000">
	<defs>
		<linearGradient id="paint_linear_4" x1="23.9556026" x2="91.1933746" y1="82.6536789" y2="24.5229683" gradientUnits="userSpaceOnUse">
			<stop stop-color="rgb(33,123,254)" offset="0" stop-opacity="1" />
			<stop stop-color="rgb(7,142,251)" offset="0.270000011" stop-opacity="1" />
			<stop stop-color="rgb(161,144,255)" offset="0.77700001" stop-opacity="1" />
			<stop stop-color="rgb(189,153,254)" offset="1" stop-opacity="1" />
		</linearGradient>
		<linearGradient id="paint_linear_5" x1="23.6310806" x2="90.7394028" y1="82.1000671" y2="23.6367264" gradientUnits="userSpaceOnUse">
			<stop stop-color="rgb(33,123,254)" offset="0" stop-opacity="1" />
			<stop stop-color="rgb(7,142,251)" offset="0.270000011" stop-opacity="1" />
			<stop stop-color="rgb(161,144,255)" offset="0.77700001" stop-opacity="1" />
			<stop stop-color="rgb(189,153,254)" offset="1" stop-opacity="1" />
		</linearGradient>
	</defs>
	<g id="logo-full">
		<g id="组合 332">
			<path id="矢量 480" d="M98.7113 56.9246C91.9238 57.9772 85.4538 57.6959 79.0871 56.1485C72.7005 54.5221 66.8708 51.8607 61.7586 48.2429C56.6467 44.6254 52.2428 40.0393 48.6765 34.6295C45.1928 29.2067 42.9108 23.2886 41.8324 16.6755C41.8269 16.6414 41.8119 16.6091 41.7902 16.5822C41.768 16.5557 41.738 16.5351 41.7058 16.5225C41.6723 16.5104 41.636 16.5068 41.602 16.5122C41.568 16.5171 41.5358 16.531 41.5095 16.5521C41.4827 16.5732 41.4623 16.6006 41.4501 16.632C41.4383 16.6629 41.4346 16.6966 41.4401 16.7298C42.518 23.3429 42.1897 29.6657 40.5208 35.8875C38.935 42.1035 36.2471 47.7825 32.5384 52.7684C28.8288 57.7542 24.1265 62.0487 18.5793 65.5266C13.0194 68.9242 6.95071 71.1499 0.162763 72.2029C0.0611798 72.2253 -0.0140991 72.3263 0.00223164 72.4268C0.019462 72.534 0.122403 72.6004 0.225353 72.5847C7.00649 71.5326 13.4897 71.853 19.8763 73.4802C26.2493 75.0262 32.0726 77.6472 37.1849 81.2652C42.2986 84.8889 46.6598 89.475 50.1441 94.9045C53.7108 100.314 56.0327 106.219 57.112 112.839C57.1175 112.872 57.1315 112.903 57.1533 112.929C57.1746 112.955 57.2027 112.975 57.2349 112.987C57.2667 112.999 57.3011 113.003 57.3352 112.998C57.3687 112.993 57.4009 112.978 57.4277 112.957C57.454 112.936 57.4744 112.909 57.4866 112.878C57.4989 112.846 57.5025 112.812 57.4971 112.78C56.4177 106.16 56.7057 99.8495 58.292 93.6407C59.9609 87.4121 62.6896 81.7264 66.3974 76.7338C70.107 71.7484 74.8089 67.4948 80.376 64.0963C85.9232 60.6188 91.9846 58.3522 98.7658 57.3011C98.8755 57.2836 98.944 57.184 98.9276 57.083C98.9231 57.0507 98.91 57.0198 98.8895 56.9937C98.8687 56.9677 98.8419 56.9475 98.8102 56.9354C98.7789 56.9228 98.7444 56.9197 98.7113 56.9246Z" fill="url(#paint_linear_4)" fill-rule="evenodd" />
			<path id="矢量 481" d="M73.3212 12.7614C71.6305 12.6397 70.0937 12.2174 68.6554 11.4995C67.2171 10.7615 65.9719 9.80736 64.955 8.66539C63.9386 7.52298 63.1481 6.18867 62.6064 4.70407C62.0856 3.22126 61.882 1.68612 62.0073 0.0516676C62.0082 0.0431701 62.0068 0.0346726 62.0027 0.0270666C61.9991 0.0194607 61.9927 0.0127548 61.9863 0.00827995C61.979 0.00336146 61.9704 0.000673999 61.9612 0.000230354C61.9535 -0.000665468 61.9448 0.00112191 61.9371 0.00425302C61.9298 0.00783204 61.923 0.0136464 61.9184 0.0203565C61.9134 0.0270666 61.9111 0.0346726 61.9102 0.0427222C61.784 1.67762 61.3375 3.1658 60.5758 4.55601C59.8331 5.94981 58.8581 7.15485 57.6777 8.13892C56.4968 9.12298 55.1186 9.88832 53.585 10.4121C52.0524 10.9162 50.4659 11.1135 48.7757 10.9914C48.7497 10.9914 48.726 11.0111 48.7242 11.0361C48.7219 11.0625 48.7424 11.084 48.7684 11.0862C50.4573 11.2079 51.9949 11.64 53.4337 12.378C54.8734 13.0959 56.1191 14.0402 57.136 15.1826C58.1524 16.3264 58.9329 17.6584 59.4541 19.1426C59.9949 20.6272 60.209 22.1614 60.0837 23.7977C60.0828 23.8057 60.0842 23.8138 60.0878 23.8214C60.0915 23.8285 60.0969 23.8348 60.1042 23.8393C60.111 23.8442 60.1192 23.8469 60.1279 23.8473C60.1366 23.8478 60.1448 23.8464 60.152 23.8428C60.1603 23.8393 60.1662 23.8339 60.1712 23.8272C60.1757 23.8205 60.1789 23.8124 60.1794 23.8044C60.3051 22.1681 60.7411 20.6809 61.4833 19.2889C62.246 17.8968 63.2315 16.6923 64.4115 15.7064C65.5924 14.7223 66.9683 13.9673 68.5023 13.4632C70.0363 12.9394 71.6232 12.7323 73.3121 12.8539C73.3395 12.8557 73.3618 12.8361 73.3636 12.811C73.3645 12.803 73.3631 12.7949 73.3595 12.7877C73.3563 12.7806 73.3508 12.7739 73.3445 12.7694C73.3372 12.7649 73.329 12.7618 73.3208 12.7614L73.3212 12.7614Z" fill="url(#paint_linear_5)" fill-rule="evenodd" />
		</g>
		<path id="矢量 489" d="M159.187 28.25Q159.292 28.25 159.339 28.3021Q159.377 28.3447 159.377 28.422L161.056 46.9782Q161.056 47.0812 161.004 47.1282Q160.961 47.1674 160.883 47.1674L154.913 47.7005C154.797 47.7005 154.74 47.6375 154.74 47.5114L153.044 28.9551C153.044 28.829 153.107 28.7659 153.234 28.7659L159.187 28.25ZM255.962 28.7321Q255.914 28.6799 255.81 28.6799L249.753 28.6799Q249.649 28.6799 249.602 28.7321Q249.563 28.7746 249.563 28.8519L249.563 85.5526L242.192 85.5526C242.065 85.5526 242.001 85.6156 242.001 85.7417L242.001 92.1565C242.001 92.2711 242.065 92.3284 242.192 92.3284L255.81 92.3284C255.937 92.3284 256 92.2711 256 92.1565L256 28.8519Q256 28.7746 255.962 28.7321ZM219.217 29.4655Q219.143 29.3463 218.953 29.2991L206.027 29.2991C205.97 29.3335 205.918 29.3564 205.872 29.3678Q205.82 29.3678 205.751 29.4538Q203.155 35.6622 199.469 41.0794C197.024 44.6909 194.284 47.9069 191.25 50.7273C191.135 50.7961 191.118 50.8706 191.198 50.9509L195.161 55.3191Q195.218 55.3908 195.276 55.3908Q195.288 55.3908 195.299 55.3879Q195.368 55.3535 195.438 55.2847C196.533 54.28 197.6 53.2159 198.639 52.0926L198.639 91.7781C198.639 91.8354 198.65 91.8813 198.673 91.9157C198.708 91.9501 198.754 91.9673 198.812 91.9673L230.218 91.9673C230.275 91.9673 230.322 91.9501 230.356 91.9157C230.391 91.8813 230.408 91.8354 230.408 91.7781L230.408 79.1894C230.408 79.0633 230.345 79.0003 230.218 79.0003L224.265 79.0003C224.138 79.0003 224.075 79.0633 224.075 79.1894L224.075 85.7761L204.955 85.7761L204.955 57.7784L220.043 57.7784L220.043 69.6447L214.523 69.6447C214.408 69.6447 214.35 69.7021 214.35 69.8167L214.35 75.6467C214.35 75.7728 214.408 75.8359 214.523 75.8359L226.186 75.8359C226.244 75.8359 226.29 75.8187 226.324 75.7843C226.359 75.7499 226.376 75.704 226.376 75.6467L226.376 52.1109C227.374 53.1944 228.395 54.2294 229.439 55.2159Q229.536 55.3125 229.62 55.3019Q229.67 55.2956 229.716 55.2503L233.782 51.0197C233.863 50.9394 233.846 50.8649 233.73 50.7961Q229.145 46.4451 225.442 41.045Q225.083 40.5192 224.735 39.9861Q221.51 35.0454 219.23 29.4882Q219.224 29.4766 219.217 29.4655ZM225.884 51.57C224.355 49.8739 222.882 48.0624 221.462 46.1356Q217.742 41.0451 215.077 35.4902L209.852 35.4902Q209.494 36.2263 209.119 36.9539Q206.633 41.7847 203.415 46.2387C202.041 48.1401 200.608 49.9172 199.116 51.57L225.884 51.57ZM241.257 34.252C241.257 34.1373 241.194 34.08 241.067 34.08L235.115 34.08Q235.01 34.08 234.963 34.1321Q234.924 34.1747 234.924 34.252L234.924 78.2264C234.924 78.341 234.988 78.3983 235.115 78.3983L241.067 78.3983C241.194 78.3983 241.257 78.341 241.257 78.2264L241.257 34.252ZM178.376 36.8316Q178.479 36.9032 178.49 36.987Q178.498 37.0441 178.463 37.1068Q178.254 37.4997 178.043 37.8911Q169.418 53.8782 156.176 67.3746Q151.383 72.2541 146.157 76.5303L146.157 85.4494L168.427 85.4494L168.427 77.1601C168.427 77.034 168.485 76.9709 168.6 76.9709L174.656 76.9709C174.783 76.9709 174.846 77.034 174.846 77.1601L174.846 91.6577C174.846 91.715 174.829 91.7552 174.795 91.7781C174.771 91.8125 174.725 91.8297 174.656 91.8297L139.928 91.8297C139.859 91.8297 139.807 91.8125 139.772 91.7781C139.749 91.7552 139.738 91.715 139.738 91.6577L139.738 81.4398Q132.988 86.2576 125.583 90.1615Q125.519 90.2039 125.461 90.197Q125.378 90.1871 125.306 90.0755L122.59 84.8819Q122.544 84.8059 122.555 84.7399Q122.57 84.6567 122.676 84.5895Q131.588 79.9207 139.459 73.8917Q139.598 73.7849 139.738 73.6773L139.738 35.9202Q139.738 35.8261 139.785 35.7789Q139.832 35.731 139.928 35.731L145.967 35.731C146.094 35.731 146.157 35.794 146.157 35.9202L146.157 68.3456Q149.039 65.7702 151.764 62.9892Q162.749 51.7763 170.41 38.6267Q171.679 36.4487 172.857 34.2176C172.937 34.1029 173.03 34.0743 173.133 34.1316L178.376 36.8316ZM131.449 41.4406C131.565 41.4406 131.622 41.5037 131.622 41.6298L131.622 50.4522Q131.622 55.7834 130.965 62.2326Q130.324 68.6645 129.113 73.497C129.067 73.6575 128.981 73.732 128.854 73.7206L123.04 72.4136C122.913 72.4021 122.855 72.3333 122.867 72.2072Q123.991 67.6154 124.649 61.5446Q125.306 55.4739 125.306 50.4522L125.306 41.6298Q125.306 41.5268 125.358 41.4799Q125.401 41.4406 125.479 41.4406L131.449 41.4406ZM184.282 49.7949Q184.329 49.8422 184.329 49.9362L184.329 58.7758Q184.329 63.6084 184.952 69.6791C185.379 73.7148 185.932 77.3321 186.613 80.5308C186.694 80.6799 186.653 80.7659 186.492 80.7888L180.678 81.9754C180.551 81.9984 180.482 81.9468 180.47 81.8207C179.709 78.5417 179.103 74.7467 178.653 70.4358Q177.996 63.9523 177.996 58.7758L177.996 49.9362Q177.996 49.8422 178.043 49.7949Q178.09 49.7471 178.186 49.7471L184.138 49.7471Q184.234 49.7471 184.282 49.7949Z" fill="rgb(0,0,0)" fill-rule="evenodd" />
	</g>
</svg>
