<svg viewBox="0 0 651 202" xmlns="http://www.w3.org/2000/svg" xmlns:xlink="http://www.w3.org/1999/xlink" width="651.000000" height="202.000122" fill="none" customFrame="#000000">
	<defs>
		<linearGradient id="paint_linear_4" x1="42.8600006" x2="163.069794" y1="147.752609" y2="43.7356033" gradientUnits="userSpaceOnUse">
			<stop stop-color="rgb(33,123,254)" offset="0" stop-opacity="1" />
			<stop stop-color="rgb(7,142,251)" offset="0.270000011" stop-opacity="1" />
			<stop stop-color="rgb(161,144,255)" offset="0.77700001" stop-opacity="1" />
			<stop stop-color="rgb(189,153,254)" offset="1" stop-opacity="1" />
		</linearGradient>
		<linearGradient id="paint_linear_5" x1="42.2792549" x2="162.256836" y1="146.762939" y2="42.1514053" gradientUnits="userSpaceOnUse">
			<stop stop-color="rgb(33,123,254)" offset="0" stop-opacity="1" />
			<stop stop-color="rgb(7,142,251)" offset="0.270000011" stop-opacity="1" />
			<stop stop-color="rgb(161,144,255)" offset="0.77700001" stop-opacity="1" />
			<stop stop-color="rgb(189,153,254)" offset="1" stop-opacity="1" />
		</linearGradient>
	</defs>
	<g id="组合 337">
		<path id="" d="M235.373 117.748Q235.373 117.308 235.812 117.308L346.188 117.308Q346.627 117.308 346.627 117.748L346.627 177.44Q346.627 177.879 346.188 177.879L235.812 177.879Q235.373 177.879 235.373 177.44L235.373 117.748ZM334.982 128.001L247.018 128.001L247.018 167.223L334.982 167.223L334.982 128.001ZM340.365 142.247Q340.805 142.247 340.805 142.687L340.805 152.171Q340.805 152.611 340.365 152.611L241.635 152.611Q241.195 152.611 241.195 152.171L241.195 142.687Q241.195 142.247 241.635 142.247L340.365 142.247ZM265.622 54.6128Q266.061 54.6128 266.061 55.0156Q265.988 76.0728 257.125 91.4902Q248.3 106.871 228.012 115.147Q227.792 115.294 227.646 115.221Q227.499 115.147 227.353 114.928L223.471 105.113Q223.251 104.71 223.69 104.527Q240.719 97.606 247.604 85.5576Q254.489 73.4727 254.562 55.1987Q254.562 54.6128 255.001 54.6128L265.622 54.6128ZM293.747 75.0107Q294.149 75.0107 294.149 75.4502L294.149 85.0815Q294.149 85.521 293.747 85.521L223.178 85.521Q222.775 85.521 222.775 85.0815L222.775 75.4502Q222.775 75.0107 223.178 75.0107L293.747 75.0107ZM270.675 78.4897Q270.895 78.3433 271.005 78.4531Q271.115 78.563 271.188 78.7827Q274.008 88.0479 279.831 94.1636Q285.653 100.279 295.395 104.564Q295.834 104.784 295.614 105.187L291.403 114.854Q291.183 115.294 290.744 115.074Q279.025 110.021 271.225 101.744Q263.424 93.4312 260.165 81.9321Q260.019 81.6025 260.458 81.3462L270.675 78.4897ZM238.009 42.4912Q238.449 42.4912 238.449 42.9307L238.449 49.3394L291.659 49.3394Q292.099 49.3394 292.099 49.7788L292.099 59.4102Q292.099 59.8496 291.659 59.8496L227.243 59.8496Q227.023 59.8496 226.913 59.7397Q226.803 59.6299 226.803 59.4102L226.803 42.9307Q226.803 42.4912 227.243 42.4912L238.009 42.4912ZM300.595 48.4971Q300.595 48.0576 300.998 48.0576L353.915 48.0576Q354.354 48.0576 354.354 48.4971L354.354 105.26Q354.354 105.699 353.915 105.699L300.998 105.699Q300.595 105.699 300.595 105.26L300.595 48.4971ZM342.855 59.5566L312.057 59.5566L312.057 94.2002L342.855 94.2002L342.855 59.5566ZM383.798 131.59Q383.798 131.334 383.871 131.261Q383.981 131.151 384.237 131.151L497.689 131.151Q497.946 131.151 498.019 131.261Q498.129 131.334 498.129 131.59L498.129 176.634Q498.129 176.854 498.019 176.964Q497.946 177.074 497.689 177.074L384.237 177.074Q383.981 177.074 383.871 176.964Q383.798 176.854 383.798 176.634L383.798 131.59ZM486.483 142.137L395.443 142.137L395.443 166.051L486.483 166.051L486.483 142.137ZM496.481 106.175Q496.92 106.175 496.92 106.615L496.92 116.759Q496.92 117.198 496.481 117.198L385.519 117.198Q385.08 117.198 385.08 116.759L385.08 106.615Q385.08 106.175 385.519 106.175L496.481 106.175ZM496.481 81.1265Q496.92 81.1265 496.92 81.5659L496.92 91.6733Q496.92 92.1128 496.481 92.1128L385.519 92.1128Q385.08 92.1128 385.08 91.6733L385.08 81.5659Q385.08 81.1265 385.519 81.1265L496.481 81.1265ZM506.955 55.9678Q507.394 55.9678 507.394 56.4072L507.394 66.771Q507.394 67.2104 506.955 67.2104L375.045 67.2104Q374.606 67.2104 374.606 66.771L374.606 56.4072Q374.606 55.9678 375.045 55.9678L506.955 55.9678ZM446.713 42.7842Q447.152 42.7842 447.152 43.2236L447.006 61.2046Q447.006 61.6074 446.566 61.6074L435.434 61.6074Q434.994 61.6074 434.994 61.2046L435.141 43.2236Q435.141 42.7842 435.58 42.7842L446.713 42.7842ZM613.412 163.78Q613.485 163.927 613.449 164Q613.412 164.073 613.266 164.073L600.265 164.073Q600.119 164.073 599.972 164Q599.862 163.927 599.826 163.78L562.326 64.9766L567.782 64.9766L530.319 163.78Q530.246 163.927 530.099 164Q529.989 164.073 529.843 164.073L516.842 164.073Q516.696 164.073 516.659 164Q516.623 163.927 516.696 163.78L558.664 53.0747Q558.664 52.7817 559.103 52.7817L571.005 52.7817Q571.481 52.7817 571.481 53.0747L613.412 163.78ZM591.366 118.15L591.366 130.492L538.742 130.492L538.742 118.15L591.366 118.15ZM638.783 163.78Q638.783 163.927 638.673 164Q638.599 164.073 638.453 164.073L626.258 164.073Q626.112 164.073 626.038 164Q625.965 163.927 625.965 163.78L625.965 53.0747Q625.965 52.9282 626.038 52.855Q626.112 52.7817 626.258 52.7817L638.453 52.7817Q638.599 52.7817 638.673 52.855Q638.783 52.9282 638.783 53.0747L638.783 163.78Z" fill="rgb(108,115,127)" fill-rule="nonzero" />
		<g id="智言万象">
			<g id="组合 335">
				<rect id="矩形 132" width="793.000000" height="230.000000" x="0.000000" y="-7.000000" opacity="0" fill="rgb(255,255,255)" />
				<g id="组合 333">
					<path id="矢量 480" d="M176.609 101.759C164.465 103.641 152.889 103.138 141.498 100.372C130.072 97.4643 119.642 92.7068 110.495 86.2394C101.349 79.7729 93.4699 71.5747 87.0893 61.9041C80.8563 52.2102 76.7735 41.631 74.8441 29.8093C74.8343 29.7484 74.8075 29.6906 74.7686 29.6425C74.7289 29.5952 74.6753 29.5583 74.6177 29.5359C74.5576 29.5142 74.4927 29.5078 74.4319 29.5174C74.371 29.5262 74.3134 29.5511 74.2664 29.5888C74.2185 29.6265 74.182 29.6754 74.1601 29.7316C74.139 29.7869 74.1325 29.847 74.1422 29.9064C76.0709 41.728 75.4834 53.0307 72.4976 64.1529C69.6602 75.2648 64.8512 85.4166 58.2158 94.3293C51.5788 103.242 43.1657 110.919 33.241 117.136C23.2936 123.21 12.4358 127.188 0.291206 129.071C0.10946 129.111 -0.0252254 129.291 0.00399273 129.471C0.0348203 129.663 0.218996 129.781 0.403188 129.753C12.5356 127.872 24.135 128.445 35.5615 131.354C46.9637 134.118 57.3826 138.803 66.5291 145.27C75.6782 151.748 83.4811 159.946 89.7149 169.652C96.0963 179.323 100.251 189.879 102.182 201.713C102.191 201.772 102.216 201.827 102.255 201.874C102.294 201.92 102.344 201.956 102.401 201.977C102.458 201.999 102.52 202.005 102.581 201.996C102.641 201.987 102.698 201.961 102.746 201.924C102.793 201.886 102.83 201.837 102.852 201.782C102.874 201.725 102.88 201.664 102.87 201.606C100.939 189.772 101.455 178.492 104.293 167.393C107.279 156.259 112.161 146.095 118.794 137.17C125.431 128.258 133.844 120.654 143.804 114.579C153.729 108.363 164.574 104.311 176.706 102.432C176.902 102.401 177.025 102.223 176.996 102.042C176.988 101.984 176.964 101.929 176.928 101.883C176.89 101.836 176.842 101.8 176.786 101.778C176.73 101.756 176.668 101.75 176.609 101.759Z" fill="url(#paint_linear_4)" fill-rule="evenodd" />
					<path id="矢量 481" d="M131.182 22.8123C128.157 22.5948 125.408 21.84 122.834 20.5566C120.261 19.2373 118.033 17.5317 116.214 15.4903C114.395 13.4482 112.981 11.0629 112.012 8.40905C111.08 5.75836 110.716 3.01412 110.94 0.0923615C110.941 0.0771713 110.939 0.0619811 110.932 0.0483846C110.925 0.0347881 110.914 0.0228006 110.902 0.0148013C110.889 0.00600899 110.874 0.00120485 110.857 0.000411784C110.844 -0.0011896 110.828 0.00200554 110.814 0.00760275C110.801 0.0140006 110.789 0.0243944 110.781 0.0363895C110.772 0.0483846 110.768 0.0619811 110.766 0.0763706C110.54 2.99893 109.741 5.65921 108.379 8.14438C107.05 10.636 105.305 12.7901 103.193 14.5492C101.081 16.3083 98.6149 17.6765 95.8711 18.6128C93.129 19.514 90.2907 19.8666 87.2665 19.6483C87.22 19.6483 87.1777 19.6835 87.1744 19.7282C87.1703 19.7754 87.207 19.8138 87.2535 19.8178C90.2752 20.0353 93.0263 20.8077 95.6005 22.1271C98.1763 23.4104 100.405 25.0984 102.224 27.1406C104.043 29.1852 105.439 31.5664 106.372 34.2195C107.339 36.8734 107.722 39.616 107.498 42.541C107.497 42.5554 107.499 42.5697 107.506 42.5834C107.512 42.5961 107.522 42.6073 107.535 42.6153C107.547 42.6241 107.562 42.6289 107.577 42.6297C107.593 42.6305 107.607 42.6281 107.62 42.6217C107.635 42.6153 107.646 42.6057 107.655 42.5937C107.663 42.5818 107.669 42.5674 107.669 42.553C107.894 39.628 108.674 36.9693 110.002 34.481C111.367 31.9926 113.13 29.8393 115.241 28.0769C117.354 26.3178 119.816 24.9681 122.56 24.0669C125.305 23.1306 128.144 22.7603 131.166 22.9778C131.215 22.981 131.255 22.9459 131.258 22.9011C131.259 22.8867 131.257 22.8723 131.251 22.8595C131.245 22.8467 131.235 22.8347 131.224 22.8267C131.211 22.8187 131.196 22.8131 131.181 22.8123L131.182 22.8123Z" fill="url(#paint_linear_5)" fill-rule="evenodd" />
				</g>
			</g>
		</g>
	</g>
</svg>
