<svg viewBox="0 0 1269 295" xmlns="http://www.w3.org/2000/svg" xmlns:xlink="http://www.w3.org/1999/xlink" width="1269.000000" height="295.000000" fill="none" customFrame="#000000">
	<defs>
		<linearGradient id="paint_linear_3" x1="93.6771011" x2="227.124542" y1="192.887909" y2="80.3691025" gradientUnits="userSpaceOnUse">
			<stop stop-color="rgb(33,123,254)" offset="0" stop-opacity="1" />
			<stop stop-color="rgb(7,142,251)" offset="0.270000011" stop-opacity="1" />
			<stop stop-color="rgb(161,144,255)" offset="0.77700001" stop-opacity="1" />
			<stop stop-color="rgb(189,153,254)" offset="1" stop-opacity="1" />
		</linearGradient>
		<linearGradient id="paint_linear_4" x1="93.6771011" x2="227.124542" y1="192.887909" y2="80.3691025" gradientUnits="userSpaceOnUse">
			<stop stop-color="rgb(33,123,254)" offset="0" stop-opacity="1" />
			<stop stop-color="rgb(7,142,251)" offset="0.270000011" stop-opacity="1" />
			<stop stop-color="rgb(161,144,255)" offset="0.77700001" stop-opacity="1" />
			<stop stop-color="rgb(189,153,254)" offset="1" stop-opacity="1" />
		</linearGradient>
	</defs>
	<g id="组合 310">
		<path id="矢量 471" d="M78.7067 0L216.293 0C259.762 0 295 35.238 295 78.7067L295 216.293C295 259.762 259.762 295 216.293 295L78.7067 295C35.238 295 0 259.762 0 216.293L0 78.7067C0 35.238 35.238 0 78.7067 0Z" fill="rgb(255,255,255)" fill-rule="evenodd" />
		<path id="矢量 471" d="M238.945 141.622C225.755 143.72 213.182 143.159 200.811 140.076C188.4 136.835 177.071 131.532 167.137 124.324C157.203 117.116 148.645 107.978 141.716 97.1988C134.946 86.3941 130.512 74.6019 128.416 61.4251C128.405 61.357 128.376 61.2931 128.334 61.2397C128.29 61.1863 128.233 61.1452 128.169 61.1206C128.105 61.0959 128.035 61.0889 127.968 61.0994C127.902 61.11 127.84 61.1376 127.788 61.1792C127.736 61.2215 127.697 61.2761 127.673 61.3382C127.65 61.3999 127.643 61.4673 127.653 61.533C129.748 74.7099 129.111 87.3088 125.867 99.7059C122.786 112.091 117.563 123.407 110.355 133.341C103.146 143.275 94.0087 151.832 83.2293 158.762C72.4252 165.531 60.633 169.967 47.4421 172.064C47.2449 172.109 47.0982 172.311 47.1299 172.511C47.1639 172.724 47.3634 172.857 47.5641 172.825C60.741 170.729 73.3393 171.368 85.7499 174.609C98.1346 177.69 109.45 182.913 119.385 190.121C129.322 197.342 137.797 206.48 144.568 217.298C151.498 228.077 156.01 239.843 158.108 253.033C158.119 253.099 158.146 253.161 158.188 253.213C158.229 253.264 158.284 253.304 158.346 253.328C158.409 253.352 158.475 253.359 158.541 253.348C158.607 253.338 158.669 253.31 158.721 253.269C158.772 253.226 158.812 253.172 158.836 253.11C158.859 253.047 158.866 252.98 158.856 252.914C156.759 239.724 157.318 227.151 160.401 214.779C163.643 202.369 168.946 191.04 176.151 181.093C183.36 171.159 192.497 162.683 203.315 155.912C214.094 148.983 225.873 144.467 239.05 142.372C239.264 142.338 239.396 142.139 239.365 141.938C239.357 141.873 239.331 141.812 239.291 141.76C239.251 141.708 239.198 141.668 239.137 141.644C239.076 141.619 239.009 141.612 238.945 141.622L238.945 141.622Z" fill="rgb(255,255,255)" fill-rule="evenodd" />
		<path id="矢量 471" d="M238.945 141.622C225.755 143.72 213.182 143.159 200.811 140.076C188.4 136.835 177.071 131.532 167.137 124.324C157.203 117.116 148.645 107.978 141.716 97.1988C134.946 86.3941 130.512 74.6019 128.416 61.4251C128.405 61.357 128.376 61.2931 128.334 61.2397C128.29 61.1863 128.233 61.1452 128.169 61.1206C128.105 61.0959 128.035 61.0889 127.968 61.0994C127.902 61.11 127.84 61.1376 127.788 61.1792C127.736 61.2215 127.697 61.2761 127.673 61.3382C127.65 61.3999 127.643 61.4673 127.653 61.533C129.748 74.7099 129.111 87.3088 125.867 99.7059C122.786 112.091 117.563 123.407 110.355 133.341C103.146 143.275 94.0087 151.832 83.2293 158.762C72.4252 165.531 60.633 169.967 47.4421 172.064C47.2449 172.109 47.0982 172.311 47.1299 172.511C47.1639 172.724 47.3634 172.857 47.5641 172.825C60.741 170.729 73.3393 171.368 85.7499 174.609C98.1346 177.69 109.45 182.913 119.385 190.121C129.322 197.342 137.797 206.48 144.568 217.298C151.498 228.077 156.01 239.843 158.108 253.033C158.119 253.099 158.146 253.161 158.188 253.213C158.229 253.264 158.284 253.304 158.346 253.328C158.409 253.352 158.475 253.359 158.541 253.348C158.607 253.338 158.669 253.31 158.721 253.269C158.772 253.226 158.812 253.172 158.836 253.11C158.859 253.047 158.866 252.98 158.856 252.914C156.759 239.724 157.318 227.151 160.401 214.779C163.643 202.369 168.946 191.04 176.151 181.093C183.36 171.159 192.497 162.683 203.315 155.912C214.094 148.983 225.873 144.467 239.05 142.372C239.264 142.338 239.396 142.139 239.365 141.938C239.357 141.873 239.331 141.812 239.291 141.76C239.251 141.708 239.198 141.668 239.137 141.644C239.076 141.619 239.009 141.612 238.945 141.622L238.945 141.622Z" fill="url(#paint_linear_3)" fill-rule="evenodd" />
		<path id="矢量 471" d="M189.791 54.3139C186.52 54.0704 183.548 53.2272 180.765 51.7921C177.983 50.3171 175.575 48.4102 173.608 46.1278C171.642 43.8448 170.113 41.1781 169.065 38.2116C168.058 35.248 167.664 32.18 167.907 28.9136C167.908 28.8966 167.905 28.8796 167.897 28.8643C167.89 28.8491 167.878 28.8362 167.865 28.8268C167.851 28.8174 167.835 28.8115 167.817 28.8104C167.802 28.8092 167.786 28.8121 167.77 28.8192C167.756 28.8262 167.743 28.8373 167.734 28.8508C167.725 28.8643 167.72 28.8796 167.719 28.896C167.475 32.1629 166.611 35.1371 165.137 37.9159C163.701 40.7011 161.815 43.1096 159.532 45.0764C157.248 47.0431 154.582 48.5721 151.615 49.6188C148.651 50.6263 145.583 51.0205 142.313 50.7771C142.263 50.7765 142.217 50.8164 142.214 50.8662C142.209 50.919 142.249 50.9619 142.299 50.966C145.566 51.2089 148.54 52.0726 151.323 53.5476C154.108 54.9828 156.517 56.8697 158.484 59.1527C160.45 61.4386 161.959 64.1006 162.967 67.0671C164.014 70.0342 164.428 73.0999 164.186 76.3698C164.184 76.3862 164.187 76.4026 164.194 76.4173C164.201 76.432 164.211 76.4443 164.225 76.4537C164.238 76.4631 164.255 76.4683 164.271 76.4695C164.288 76.4707 164.304 76.4677 164.318 76.4607C164.333 76.4537 164.345 76.4425 164.354 76.429C164.364 76.4155 164.37 76.3997 164.371 76.3838C164.614 73.1134 165.458 70.1416 166.893 67.3593C168.368 64.577 170.275 62.1696 172.557 60.2C174.841 58.2333 177.502 56.7242 180.47 55.7168C183.436 54.67 186.506 54.2558 189.773 54.4993C189.826 54.5028 189.869 54.4629 189.873 54.413C189.874 54.3972 189.872 54.3814 189.864 54.3667C189.859 54.352 189.848 54.3391 189.835 54.3297C189.821 54.3209 189.806 54.3151 189.789 54.3139L189.791 54.3139Z" fill="rgb(255,255,255)" fill-rule="evenodd" />
		<path id="矢量 471" d="M189.791 54.3139C186.52 54.0704 183.548 53.2272 180.765 51.7921C177.983 50.3171 175.575 48.4102 173.608 46.1278C171.642 43.8448 170.113 41.1781 169.065 38.2116C168.058 35.248 167.664 32.18 167.907 28.9136C167.908 28.8966 167.905 28.8796 167.897 28.8643C167.89 28.8491 167.878 28.8362 167.865 28.8268C167.851 28.8174 167.835 28.8115 167.817 28.8104C167.802 28.8092 167.786 28.8121 167.77 28.8192C167.756 28.8262 167.743 28.8373 167.734 28.8508C167.725 28.8643 167.72 28.8796 167.719 28.896C167.475 32.1629 166.611 35.1371 165.137 37.9159C163.701 40.7011 161.815 43.1096 159.532 45.0764C157.248 47.0431 154.582 48.5721 151.615 49.6188C148.651 50.6263 145.583 51.0205 142.313 50.7771C142.263 50.7765 142.217 50.8164 142.214 50.8662C142.209 50.919 142.249 50.9619 142.299 50.966C145.566 51.2089 148.54 52.0726 151.323 53.5476C154.108 54.9828 156.517 56.8697 158.484 59.1527C160.45 61.4386 161.959 64.1006 162.967 67.0671C164.014 70.0342 164.428 73.0999 164.186 76.3698C164.184 76.3862 164.187 76.4026 164.194 76.4173C164.201 76.432 164.211 76.4443 164.225 76.4537C164.238 76.4631 164.255 76.4683 164.271 76.4695C164.288 76.4707 164.304 76.4677 164.318 76.4607C164.333 76.4537 164.345 76.4425 164.354 76.429C164.364 76.4155 164.37 76.3997 164.371 76.3838C164.614 73.1134 165.458 70.1416 166.893 67.3593C168.368 64.577 170.275 62.1696 172.557 60.2C174.841 58.2333 177.502 56.7242 180.47 55.7168C183.436 54.67 186.506 54.2558 189.773 54.4993C189.826 54.5028 189.869 54.4629 189.873 54.413C189.874 54.3972 189.872 54.3814 189.864 54.3667C189.859 54.352 189.848 54.3391 189.835 54.3297C189.821 54.3209 189.806 54.3151 189.789 54.3139L189.791 54.3139Z" fill="url(#paint_linear_4)" fill-rule="evenodd" />
		<g id="组合 308">
			<path id="矢量 466" d="M363 259.048L389.496 42.76L475.032 42.76C494.232 42.952 508.968 47.032 519.24 55C529.512 62.968 534.648 74.632 534.648 89.992C534.648 91.528 534.456 94.408 534.072 98.632L532.92 109C530.616 125.32 523.32 137.416 511.032 145.288C519.288 148.552 525.528 153.544 529.752 160.264C533.976 166.984 536.088 175.048 536.088 184.456C536.088 187.336 535.992 189.544 535.8 191.08L534.36 203.176C532.056 221.032 524.328 234.808 511.176 244.504C498.024 254.2 480.12 259.048 457.464 259.048L363 259.048ZM464.664 134.056C485.208 133.672 496.728 125.512 499.224 109.576L500.664 98.056C502.008 81.928 492.504 73.672 472.152 73.288L419.736 73.288L412.248 134.056L464.664 134.056ZM461.496 227.944C472.824 227.752 481.752 225.544 488.28 221.32C494.808 217.096 498.744 211.24 500.088 203.752L501.528 191.368C502.488 182.536 500.232 175.768 494.76 171.064C489.288 166.36 480.792 163.912 469.272 163.72L408.792 163.72L400.728 227.944L461.496 227.944ZM665.976 227.368L681.528 98.632L714.648 98.632L695.064 259.048L622.776 259.048C583.032 259.048 563.16 240.808 563.16 204.328C563.16 199.912 563.448 195.112 564.024 189.928L575.256 98.632L608.376 98.632L597.144 190.792C596.76 193.288 596.568 196.744 596.568 201.16C596.568 211.144 598.92 218.056 603.624 221.896C608.328 225.736 615.96 227.656 626.52 227.656L665.976 227.368ZM753.24 77.032L757.56 42.472L795.288 42.472L790.968 77.032L753.24 77.032ZM766.488 259.048L733.368 259.048L753.24 98.632L786.36 98.632L766.488 259.048ZM809.976 168.04C815.544 121.768 840.312 98.632 884.28 98.632L922.008 98.632L929.496 37L962.616 37L935.544 259.048L866.136 259.048C826.392 259.048 806.52 240.808 806.52 204.328C806.52 199.912 806.808 195.112 807.384 189.928L809.976 168.04ZM906.168 228.232L918.264 128.872L880.536 128.872C858.84 128.872 846.456 141.64 843.384 167.176L840.504 190.792C840.12 194.632 839.928 197.416 839.928 199.144C839.928 218.536 849.912 228.232 869.88 228.232L906.168 228.232Z" fill="rgb(255,255,255)" fill-rule="nonzero" />
		</g>
		<g id="组合 309">
			<path id="矢量 465" d="M956 259L1105.26 36L1105.74 36L1144.89 259L1107.79 259L1100.39 213.714L1026.39 213.714L996.462 259L956 259ZM1047.13 182.433L1095.05 182.433L1090.49 154.8C1089.5 149.024 1088.63 143.416 1087.87 137.974C1087.12 132.532 1086.66 126.141 1086.5 118.799C1082.94 126.026 1079.49 132.378 1076.16 137.854C1072.83 143.331 1069.21 148.979 1065.3 154.8L1047.13 182.433ZM1175.1 259L1229.08 43.5302L1269 43.5302L1215.02 259L1175.1 259Z" fill="rgb(255,255,255)" fill-rule="nonzero" />
		</g>
	</g>
</svg>
